<mxfile host="app.diagrams.net" agent="Mozilla/5.0 (Windows NT 10.0; Win64; x64) AppleWebKit/537.36 (KHTML, like Gecko) Chrome/141.0.0.0 Safari/537.36" version="28.2.7">
  <diagram name="Page-1" id="LdRW2M0Z-OdcXSIT7n-y">
    <mxGraphModel dx="888" dy="471" grid="1" gridSize="10" guides="1" tooltips="1" connect="1" arrows="1" fold="1" page="1" pageScale="1" pageWidth="1100" pageHeight="850" background="none" math="0" shadow="0">
      <root>
        <mxCell id="0" />
        <mxCell id="1" parent="0" />
        <mxCell id="F6hma239Z3UVsW2DJXRU-25" value="Availability Zone 1" style="fillColor=none;strokeColor=#147EBA;dashed=1;verticalAlign=top;fontStyle=0;fontColor=#147EBA;whiteSpace=wrap;html=1;" parent="1" vertex="1">
          <mxGeometry x="300" y="330" width="240" height="320" as="geometry" />
        </mxCell>
        <mxCell id="F6hma239Z3UVsW2DJXRU-26" value="Availability Zone 2" style="fillColor=none;strokeColor=#147EBA;dashed=1;verticalAlign=top;fontStyle=0;fontColor=#147EBA;whiteSpace=wrap;html=1;" parent="1" vertex="1">
          <mxGeometry x="650" y="330" width="240" height="320" as="geometry" />
        </mxCell>
        <mxCell id="F6hma239Z3UVsW2DJXRU-33" value="AWS Cloud" style="sketch=0;outlineConnect=0;gradientColor=none;html=1;whiteSpace=wrap;fontSize=12;fontStyle=0;shape=mxgraph.aws4.group;grIcon=mxgraph.aws4.group_aws_cloud;strokeColor=#858B94;fillColor=none;verticalAlign=top;align=left;spacingLeft=30;fontColor=#858B94;dashed=0;" parent="1" vertex="1">
          <mxGeometry x="200" y="100" width="1490" height="740" as="geometry" />
        </mxCell>
        <mxCell id="F6hma239Z3UVsW2DJXRU-27" value="VPC 10.0.0.0/16" style="points=[[0,0],[0.25,0],[0.5,0],[0.75,0],[1,0],[1,0.25],[1,0.5],[1,0.75],[1,1],[0.75,1],[0.5,1],[0.25,1],[0,1],[0,0.75],[0,0.5],[0,0.25]];outlineConnect=0;gradientColor=none;html=1;whiteSpace=wrap;fontSize=12;fontStyle=0;container=1;pointerEvents=0;collapsible=0;recursiveResize=0;shape=mxgraph.aws4.group;grIcon=mxgraph.aws4.group_vpc2;strokeColor=#8C4FFF;fillColor=none;verticalAlign=top;align=left;spacingLeft=30;fontColor=#AAB7B8;dashed=0;" parent="1" vertex="1">
          <mxGeometry x="270" y="310" width="630" height="360" as="geometry" />
        </mxCell>
        <mxCell id="F6hma239Z3UVsW2DJXRU-4" value="Private Subnet -2" style="points=[[0,0],[0.25,0],[0.5,0],[0.75,0],[1,0],[1,0.25],[1,0.5],[1,0.75],[1,1],[0.75,1],[0.5,1],[0.25,1],[0,1],[0,0.75],[0,0.5],[0,0.25]];outlineConnect=0;gradientColor=none;html=1;whiteSpace=wrap;fontSize=12;fontStyle=0;container=1;pointerEvents=0;collapsible=0;recursiveResize=0;shape=mxgraph.aws4.group;grIcon=mxgraph.aws4.group_security_group;grStroke=0;strokeColor=#00A4A6;fillColor=#E6F6F7;verticalAlign=top;align=left;spacingLeft=30;fontColor=#147EBA;dashed=0;" parent="1" vertex="1">
          <mxGeometry x="660" y="480" width="220" height="160" as="geometry" />
        </mxCell>
        <mxCell id="F6hma239Z3UVsW2DJXRU-3" value="Private Subnet - 1" style="points=[[0,0],[0.25,0],[0.5,0],[0.75,0],[1,0],[1,0.25],[1,0.5],[1,0.75],[1,1],[0.75,1],[0.5,1],[0.25,1],[0,1],[0,0.75],[0,0.5],[0,0.25]];outlineConnect=0;gradientColor=none;html=1;whiteSpace=wrap;fontSize=12;fontStyle=0;container=1;pointerEvents=0;collapsible=0;recursiveResize=0;shape=mxgraph.aws4.group;grIcon=mxgraph.aws4.group_security_group;grStroke=0;strokeColor=#00A4A6;fillColor=#E6F6F7;verticalAlign=top;align=left;spacingLeft=30;fontColor=#147EBA;dashed=0;" parent="1" vertex="1">
          <mxGeometry x="310" y="480" width="220" height="160" as="geometry" />
        </mxCell>
        <mxCell id="F6hma239Z3UVsW2DJXRU-5" value="Public Subnet - 1&lt;div&gt;&lt;br&gt;&lt;div&gt;&lt;br&gt;&lt;/div&gt;&lt;/div&gt;" style="points=[[0,0],[0.25,0],[0.5,0],[0.75,0],[1,0],[1,0.25],[1,0.5],[1,0.75],[1,1],[0.75,1],[0.5,1],[0.25,1],[0,1],[0,0.75],[0,0.5],[0,0.25]];outlineConnect=0;gradientColor=none;html=1;whiteSpace=wrap;fontSize=12;fontStyle=0;container=1;pointerEvents=0;collapsible=0;recursiveResize=0;shape=mxgraph.aws4.group;grIcon=mxgraph.aws4.group_security_group;grStroke=0;strokeColor=#7AA116;fillColor=#F2F6E8;verticalAlign=top;align=left;spacingLeft=30;fontColor=#248814;dashed=0;" parent="1" vertex="1">
          <mxGeometry x="310" y="370" width="220" height="80" as="geometry" />
        </mxCell>
        <mxCell id="F6hma239Z3UVsW2DJXRU-8" value="NAT Gateway -1" style="sketch=0;outlineConnect=0;fontColor=#232F3E;gradientColor=none;fillColor=#8C4FFF;strokeColor=none;dashed=0;verticalLabelPosition=bottom;verticalAlign=top;align=center;html=1;fontSize=12;fontStyle=0;aspect=fixed;pointerEvents=1;shape=mxgraph.aws4.nat_gateway;" parent="F6hma239Z3UVsW2DJXRU-5" vertex="1">
          <mxGeometry x="140" y="15" width="40" height="40" as="geometry" />
        </mxCell>
        <mxCell id="F6hma239Z3UVsW2DJXRU-6" value="Public Subnet - 2" style="points=[[0,0],[0.25,0],[0.5,0],[0.75,0],[1,0],[1,0.25],[1,0.5],[1,0.75],[1,1],[0.75,1],[0.5,1],[0.25,1],[0,1],[0,0.75],[0,0.5],[0,0.25]];outlineConnect=0;gradientColor=none;html=1;whiteSpace=wrap;fontSize=12;fontStyle=0;container=1;pointerEvents=0;collapsible=0;recursiveResize=0;shape=mxgraph.aws4.group;grIcon=mxgraph.aws4.group_security_group;grStroke=0;strokeColor=#7AA116;fillColor=#F2F6E8;verticalAlign=top;align=left;spacingLeft=30;fontColor=#248814;dashed=0;movable=1;resizable=1;rotatable=1;deletable=1;editable=1;locked=0;connectable=1;" parent="1" vertex="1">
          <mxGeometry x="660" y="370" width="220" height="80" as="geometry" />
        </mxCell>
        <mxCell id="F6hma239Z3UVsW2DJXRU-9" value="NAT Gateway - 2" style="sketch=0;outlineConnect=0;fontColor=#232F3E;gradientColor=none;fillColor=#8C4FFF;strokeColor=none;dashed=0;verticalLabelPosition=bottom;verticalAlign=top;align=center;html=1;fontSize=12;fontStyle=0;aspect=fixed;pointerEvents=1;shape=mxgraph.aws4.nat_gateway;container=0;" parent="F6hma239Z3UVsW2DJXRU-6" vertex="1">
          <mxGeometry x="150" y="15" width="40" height="40" as="geometry">
            <mxRectangle x="800" y="405" width="110" height="30" as="alternateBounds" />
          </mxGeometry>
        </mxCell>
        <mxCell id="F6hma239Z3UVsW2DJXRU-17" value="" style="sketch=0;outlineConnect=0;fontColor=#232F3E;gradientColor=none;fillColor=#ED7100;strokeColor=none;dashed=0;verticalLabelPosition=bottom;verticalAlign=top;align=center;html=1;fontSize=12;fontStyle=0;aspect=fixed;pointerEvents=1;shape=mxgraph.aws4.auto_scaling2;" parent="1" vertex="1">
          <mxGeometry x="490" y="550" width="40" height="40" as="geometry" />
        </mxCell>
        <mxCell id="F6hma239Z3UVsW2DJXRU-18" value="" style="sketch=0;outlineConnect=0;fontColor=#232F3E;gradientColor=none;fillColor=#ED7100;strokeColor=none;dashed=0;verticalLabelPosition=bottom;verticalAlign=top;align=center;html=1;fontSize=12;fontStyle=0;aspect=fixed;pointerEvents=1;shape=mxgraph.aws4.auto_scaling2;" parent="1" vertex="1">
          <mxGeometry x="660" y="550" width="40" height="40" as="geometry" />
        </mxCell>
        <mxCell id="F6hma239Z3UVsW2DJXRU-19" value="Frontend ALB: 443/3000&lt;br&gt;Backend ALB: 443/80&amp;nbsp;&lt;div&gt;&lt;br/&gt;&lt;/div&gt;" style="sketch=0;outlineConnect=0;fontColor=#232F3E;gradientColor=none;fillColor=#8C4FFF;strokeColor=none;dashed=0;verticalLabelPosition=bottom;verticalAlign=top;align=center;html=1;fontSize=10;fontStyle=0;aspect=fixed;pointerEvents=1;shape=mxgraph.aws4.application_load_balancer;" parent="1" vertex="1">
          <mxGeometry x="570" y="400" width="50" height="50" as="geometry" />
        </mxCell>
        <mxCell id="TwTqnpi0IHW01U2Hm2W1-6" style="edgeStyle=orthogonalEdgeStyle;rounded=0;orthogonalLoop=1;jettySize=auto;html=1;strokeColor=#00FF00;strokeWidth=2;" parent="1" source="F6hma239Z3UVsW2DJXRU-22" target="F6hma239Z3UVsW2DJXRU-19" edge="1">
          <mxGeometry relative="1" as="geometry" />
        </mxCell>
        <mxCell id="F6hma239Z3UVsW2DJXRU-22" value="Internet Gateway" style="sketch=0;outlineConnect=0;fontColor=#232F3E;gradientColor=none;fillColor=#8C4FFF;strokeColor=none;dashed=0;verticalLabelPosition=bottom;verticalAlign=top;align=center;html=1;fontSize=12;fontStyle=0;aspect=fixed;pointerEvents=1;shape=mxgraph.aws4.internet_gateway;" parent="1" vertex="1">
          <mxGeometry x="570" y="260" width="50" height="50" as="geometry" />
        </mxCell>
        <mxCell id="F6hma239Z3UVsW2DJXRU-28" value="Region(ap-southeast-2)" style="points=[[0,0],[0.25,0],[0.5,0],[0.75,0],[1,0],[1,0.25],[1,0.5],[1,0.75],[1,1],[0.75,1],[0.5,1],[0.25,1],[0,1],[0,0.75],[0,0.5],[0,0.25]];outlineConnect=0;gradientColor=none;html=1;whiteSpace=wrap;fontSize=12;fontStyle=0;container=0;pointerEvents=0;collapsible=0;recursiveResize=0;shape=mxgraph.aws4.group;grIcon=mxgraph.aws4.group_region;strokeColor=#00A4A6;fillColor=none;verticalAlign=top;align=left;spacingLeft=30;fontColor=#147EBA;dashed=1;" parent="1" vertex="1">
          <mxGeometry x="240" y="230" width="760" height="530" as="geometry" />
        </mxCell>
        <mxCell id="F6hma239Z3UVsW2DJXRU-34" value="Statics &lt;br&gt;Objects" style="sketch=0;outlineConnect=0;fontColor=#232F3E;gradientColor=none;fillColor=#7AA116;strokeColor=none;dashed=0;verticalLabelPosition=bottom;verticalAlign=top;align=center;html=1;fontSize=12;fontStyle=0;aspect=fixed;pointerEvents=1;shape=mxgraph.aws4.bucket_with_objects;" parent="1" vertex="1">
          <mxGeometry x="924.6199999999999" y="310" width="42.31" height="44" as="geometry" />
        </mxCell>
        <mxCell id="TwTqnpi0IHW01U2Hm2W1-5" style="edgeStyle=orthogonalEdgeStyle;rounded=0;orthogonalLoop=1;jettySize=auto;html=1;strokeColor=#00FF00;strokeWidth=2;" parent="1" target="F6hma239Z3UVsW2DJXRU-22" edge="1">
          <mxGeometry relative="1" as="geometry">
            <mxPoint x="595" y="200.0000000000001" as="sourcePoint" />
          </mxGeometry>
        </mxCell>
        <mxCell id="TwTqnpi0IHW01U2Hm2W1-9" value="ACM" style="sketch=0;points=[[0,0,0],[0.25,0,0],[0.5,0,0],[0.75,0,0],[1,0,0],[0,1,0],[0.25,1,0],[0.5,1,0],[0.75,1,0],[1,1,0],[0,0.25,0],[0,0.5,0],[0,0.75,0],[1,0.25,0],[1,0.5,0],[1,0.75,0]];outlineConnect=0;fontColor=#232F3E;fillColor=#DD344C;strokeColor=#ffffff;dashed=0;verticalLabelPosition=bottom;verticalAlign=top;align=center;html=1;fontSize=12;fontStyle=0;aspect=fixed;shape=mxgraph.aws4.resourceIcon;resIcon=mxgraph.aws4.certificate_manager_3;" parent="1" vertex="1">
          <mxGeometry x="520" y="680" width="40" height="40" as="geometry" />
        </mxCell>
        <mxCell id="PYK1HoXps0qIZWL1eZz0-2" value="Grafana&lt;br&gt;Cloud" style="image;aspect=fixed;html=1;points=[];align=center;fontSize=12;image=img/lib/azure2/other/Grafana.svg;" parent="1" vertex="1">
          <mxGeometry x="1020" y="433.41" width="60" height="46.59" as="geometry" />
        </mxCell>
        <mxCell id="F6hma239Z3UVsW2DJXRU-13" value="Amazon ECS&lt;div&gt;&lt;br/&gt;&lt;/div&gt;" style="sketch=0;points=[[0,0,0],[0.25,0,0],[0.5,0,0],[0.75,0,0],[1,0,0],[0,1,0],[0.25,1,0],[0.5,1,0],[0.75,1,0],[1,1,0],[0,0.25,0],[0,0.5,0],[0,0.75,0],[1,0.25,0],[1,0.5,0],[1,0.75,0]];outlineConnect=0;fontColor=#232F3E;fillColor=#ED7100;strokeColor=#ffffff;dashed=0;verticalLabelPosition=bottom;verticalAlign=top;align=center;html=1;fontSize=12;fontStyle=0;aspect=fixed;shape=mxgraph.aws4.resourceIcon;resIcon=mxgraph.aws4.ecs;" parent="1" vertex="1">
          <mxGeometry x="580" y="527" width="30" height="30" as="geometry" />
        </mxCell>
        <mxCell id="F6hma239Z3UVsW2DJXRU-35" value="ECR" style="sketch=0;points=[[0,0,0],[0.25,0,0],[0.5,0,0],[0.75,0,0],[1,0,0],[0,1,0],[0.25,1,0],[0.5,1,0],[0.75,1,0],[1,1,0],[0,0.25,0],[0,0.5,0],[0,0.75,0],[1,0.25,0],[1,0.5,0],[1,0.75,0]];outlineConnect=0;fontColor=#232F3E;fillColor=#ED7100;strokeColor=#ffffff;dashed=0;verticalLabelPosition=bottom;verticalAlign=top;align=center;html=1;fontSize=12;fontStyle=0;aspect=fixed;shape=mxgraph.aws4.resourceIcon;resIcon=mxgraph.aws4.ecr;" parent="1" vertex="1">
          <mxGeometry x="571.5" y="680" width="40" height="40" as="geometry" />
        </mxCell>
        <mxCell id="F6hma239Z3UVsW2DJXRU-42" value="" style="shape=image;html=1;verticalAlign=top;verticalLabelPosition=bottom;labelBackgroundColor=#ffffff;imageAspect=0;aspect=fixed;image=https://icons.diagrams.net/icon-cache1/Unicons_Line_vol_3-2965/docker-1335.svg" parent="1" vertex="1">
          <mxGeometry x="570" y="680" width="30" height="30" as="geometry" />
        </mxCell>
        <mxCell id="F6hma239Z3UVsW2DJXRU-37" value="CloudWatch" style="sketch=0;points=[[0,0,0],[0.25,0,0],[0.5,0,0],[0.75,0,0],[1,0,0],[0,1,0],[0.25,1,0],[0.5,1,0],[0.75,1,0],[1,1,0],[0,0.25,0],[0,0.5,0],[0,0.75,0],[1,0.25,0],[1,0.5,0],[1,0.75,0]];points=[[0,0,0],[0.25,0,0],[0.5,0,0],[0.75,0,0],[1,0,0],[0,1,0],[0.25,1,0],[0.5,1,0],[0.75,1,0],[1,1,0],[0,0.25,0],[0,0.5,0],[0,0.75,0],[1,0.25,0],[1,0.5,0],[1,0.75,0]];outlineConnect=0;fontColor=#232F3E;fillColor=#E7157B;strokeColor=#ffffff;dashed=0;verticalLabelPosition=bottom;verticalAlign=top;align=center;html=1;fontSize=12;fontStyle=0;aspect=fixed;shape=mxgraph.aws4.resourceIcon;resIcon=mxgraph.aws4.cloudwatch_2;" parent="1" vertex="1">
          <mxGeometry x="924.6199999999999" y="440" width="40" height="40" as="geometry" />
        </mxCell>
        <mxCell id="F6hma239Z3UVsW2DJXRU-36" value="IAM" style="sketch=0;points=[[0,0,0],[0.25,0,0],[0.5,0,0],[0.75,0,0],[1,0,0],[0,1,0],[0.25,1,0],[0.5,1,0],[0.75,1,0],[1,1,0],[0,0.25,0],[0,0.5,0],[0,0.75,0],[1,0.25,0],[1,0.5,0],[1,0.75,0]];outlineConnect=0;fontColor=#232F3E;fillColor=#DD344C;strokeColor=#ffffff;dashed=0;verticalLabelPosition=bottom;verticalAlign=top;align=center;html=1;fontSize=12;fontStyle=0;aspect=fixed;shape=mxgraph.aws4.resourceIcon;resIcon=mxgraph.aws4.identity_and_access_management;" parent="1" vertex="1">
          <mxGeometry x="270" y="681.5999999999999" width="40" height="40" as="geometry" />
        </mxCell>
        <mxCell id="TwTqnpi0IHW01U2Hm2W1-1" value="&lt;font style=&quot;font-size: 10px;&quot;&gt;Peremeter Store&lt;/font&gt;" style="sketch=0;outlineConnect=0;fontColor=#232F3E;gradientColor=none;fillColor=#E7157B;strokeColor=none;dashed=0;verticalLabelPosition=bottom;verticalAlign=top;align=center;html=1;fontSize=12;fontStyle=0;aspect=fixed;pointerEvents=1;shape=mxgraph.aws4.parameter_store;" parent="1" vertex="1">
          <mxGeometry x="340" y="681.5999999999999" width="40" height="41.6" as="geometry" />
        </mxCell>
        <mxCell id="F6hma239Z3UVsW2DJXRU-16" value="Backend Container" style="outlineConnect=0;dashed=0;verticalLabelPosition=bottom;verticalAlign=top;align=center;html=1;shape=mxgraph.aws3.ec2_compute_container;fillColor=#F58534;gradientColor=none;" parent="1" vertex="1">
          <mxGeometry x="740" y="580" width="50" height="27" as="geometry" />
        </mxCell>
        <mxCell id="F6hma239Z3UVsW2DJXRU-15" value="Backend Container" style="outlineConnect=0;dashed=0;verticalLabelPosition=bottom;verticalAlign=top;align=center;html=1;shape=mxgraph.aws3.ec2_compute_container;fillColor=#F58534;gradientColor=none;" parent="1" vertex="1">
          <mxGeometry x="385" y="586.41" width="50" height="27" as="geometry" />
        </mxCell>
        <mxCell id="3F-_Z2dDh5Ke2gcUSv3b-1" value="&lt;font style=&quot;font-size: 10px;&quot;&gt;CloudWatch Insights&lt;/font&gt;" style="sketch=0;outlineConnect=0;fontColor=#232F3E;gradientColor=none;fillColor=#E7157B;strokeColor=none;dashed=0;verticalLabelPosition=bottom;verticalAlign=top;align=center;html=1;fontSize=12;fontStyle=0;aspect=fixed;pointerEvents=1;shape=mxgraph.aws4.cloudwatch_metrics_insights;" parent="1" vertex="1">
          <mxGeometry x="578.51" y="580" width="32.99" height="33.41" as="geometry" />
        </mxCell>
        <mxCell id="GgVsPn2afHot_6HWTfwj-29" style="edgeStyle=orthogonalEdgeStyle;rounded=0;orthogonalLoop=1;jettySize=auto;html=1;exitX=1.002;exitY=0.41;exitDx=0;exitDy=0;strokeWidth=2;strokeColor=#66B2FF;exitPerimeter=0;" parent="1" source="F6hma239Z3UVsW2DJXRU-14" edge="1">
          <mxGeometry relative="1" as="geometry">
            <mxPoint x="945" y="500" as="targetPoint" />
            <Array as="points">
              <mxPoint x="945" y="569" />
            </Array>
          </mxGeometry>
        </mxCell>
        <mxCell id="GgVsPn2afHot_6HWTfwj-30" style="edgeStyle=orthogonalEdgeStyle;rounded=0;orthogonalLoop=1;jettySize=auto;html=1;exitX=1;exitY=0.25;exitDx=0;exitDy=0;strokeColor=#66B2FF;strokeWidth=2;" parent="1" source="F6hma239Z3UVsW2DJXRU-14" edge="1">
          <mxGeometry relative="1" as="geometry">
            <mxPoint x="946" y="390" as="targetPoint" />
            <Array as="points">
              <mxPoint x="910" y="550" />
              <mxPoint x="910" y="420" />
              <mxPoint x="946" y="420" />
            </Array>
          </mxGeometry>
        </mxCell>
        <mxCell id="qeDbLO5Tcm8qtFllbZOF-2" style="edgeStyle=orthogonalEdgeStyle;rounded=0;orthogonalLoop=1;jettySize=auto;html=1;exitX=1;exitY=0.75;exitDx=0;exitDy=0;strokeWidth=2;strokeColor=light-dark(#66B2FF,#66B2FF);" edge="1" parent="1" source="F6hma239Z3UVsW2DJXRU-14" target="qeDbLO5Tcm8qtFllbZOF-1">
          <mxGeometry relative="1" as="geometry">
            <Array as="points">
              <mxPoint x="950" y="610" />
            </Array>
          </mxGeometry>
        </mxCell>
        <mxCell id="F6hma239Z3UVsW2DJXRU-14" value="" style="rounded=1;arcSize=10;dashed=1;fillColor=none;gradientColor=none;dashPattern=8 3 1 3;strokeWidth=2;" parent="1" vertex="1">
          <mxGeometry x="317.5" y="520" width="535" height="120" as="geometry" />
        </mxCell>
        <mxCell id="ECt8iT3MVX6dOdYkUaZF-2" value="Frontend Container" style="outlineConnect=0;dashed=0;verticalLabelPosition=bottom;verticalAlign=top;align=center;html=1;shape=mxgraph.aws3.ec2_compute_container;fillColor=#F58534;gradientColor=none;" parent="1" vertex="1">
          <mxGeometry x="740" y="527" width="50" height="27" as="geometry" />
        </mxCell>
        <mxCell id="ECt8iT3MVX6dOdYkUaZF-3" value="Frontend Container" style="outlineConnect=0;dashed=0;verticalLabelPosition=bottom;verticalAlign=top;align=center;html=1;shape=mxgraph.aws3.ec2_compute_container;fillColor=#F58534;gradientColor=none;" parent="1" vertex="1">
          <mxGeometry x="385" y="528.5" width="50" height="27" as="geometry" />
        </mxCell>
        <mxCell id="ECt8iT3MVX6dOdYkUaZF-8" value="WAF" style="sketch=0;points=[[0,0,0],[0.25,0,0],[0.5,0,0],[0.75,0,0],[1,0,0],[0,1,0],[0.25,1,0],[0.5,1,0],[0.75,1,0],[1,1,0],[0,0.25,0],[0,0.5,0],[0,0.75,0],[1,0.25,0],[1,0.5,0],[1,0.75,0]];outlineConnect=0;fontColor=#232F3E;fillColor=#DD344C;strokeColor=#ffffff;dashed=0;verticalLabelPosition=bottom;verticalAlign=top;align=center;html=1;fontSize=12;fontStyle=0;aspect=fixed;shape=mxgraph.aws4.resourceIcon;resIcon=mxgraph.aws4.waf;" parent="1" vertex="1">
          <mxGeometry x="405" y="681.6" width="40" height="40" as="geometry" />
        </mxCell>
        <mxCell id="GgVsPn2afHot_6HWTfwj-13" style="edgeStyle=orthogonalEdgeStyle;rounded=0;orthogonalLoop=1;jettySize=auto;html=1;" parent="1" source="ECt8iT3MVX6dOdYkUaZF-9" edge="1">
          <mxGeometry relative="1" as="geometry">
            <mxPoint x="158" y="405" as="sourcePoint" />
            <mxPoint x="593" y="740" as="targetPoint" />
            <Array as="points">
              <mxPoint x="113" y="440" />
              <mxPoint x="50" y="440" />
              <mxPoint x="50" y="850" />
              <mxPoint x="593" y="850" />
            </Array>
          </mxGeometry>
        </mxCell>
        <mxCell id="ECt8iT3MVX6dOdYkUaZF-9" value="" style="dashed=0;outlineConnect=0;html=1;align=center;labelPosition=center;verticalLabelPosition=bottom;verticalAlign=top;shape=mxgraph.weblogos.github" parent="1" vertex="1">
          <mxGeometry x="75.45" y="310" width="75" height="75" as="geometry" />
        </mxCell>
        <mxCell id="GgVsPn2afHot_6HWTfwj-14" style="edgeStyle=orthogonalEdgeStyle;rounded=0;orthogonalLoop=1;jettySize=auto;html=1;" parent="1" edge="1">
          <mxGeometry relative="1" as="geometry">
            <mxPoint x="200" y="495" as="targetPoint" />
            <mxPoint x="103.74857142857147" y="540.46" as="sourcePoint" />
            <Array as="points">
              <mxPoint x="110" y="540" />
              <mxPoint x="110" y="495" />
            </Array>
          </mxGeometry>
        </mxCell>
        <mxCell id="ECt8iT3MVX6dOdYkUaZF-11" value="" style="shape=image;verticalLabelPosition=bottom;labelBackgroundColor=default;verticalAlign=top;aspect=fixed;imageAspect=0;image=data:image/png,iVBORw0KGgoAAAANSUhEUgAAAVIAAAFFCAYAAAC+BmXMAAAAAXNSR0IArs4c6QAAAARnQU1BAACxjwv8YQUAAAAJcEhZcwAADsMAAA7DAcdvqGQAAD8tSURBVHhe7d13eBTV+gfw75ndTdn0BiSE3kIT8QYh0otSVcCGghTBAkgVkKo0qYogXkW5IoiCgnotcEEQgzQpgiCEjnSSkE1PNmV35/39QbK/ZJJsdrObkN28n+c5jzLlTNnZb2bOzJ4RRERgjDFWZpJyAGOMMdtwkDLGmJ04SBljzE4cpIwxZicOUsYYsxMHaRncumnE0YNZkGWAn3lgjHGQloE+Q8bHK1Lw3oIkxJzKAREHKmNVGQdpGRARTDLh7xPZWDY3ESsXJ0GfKXOYMlZFcZDaiQg4cSQbcybp8P3mdKQmc6AyVtVwkDpIwl0jftySjvnTE3D27xyYTHy5z1hVwUHqQETA3TgTls9LwofLknHudC4HKmNVAAdpOTCZCH8ezsKyuYnY9FkqsvR8uc+YK+MgLUcmE2HX9kzMmazDz9+mIzeH05QxV8RBWgHuxhnx7VfpmDbmLs6dyYXRwJf7jLkSDtIKQgQk6kx4d14iPn4/Gdf+MfDzp4y5CA7SCpabSzh6MAtvvZGArRvTkJbC7aeMOTsO0vuFgG3fZ2DxHB1++TkTOdmcpow5Kw7S+4gIuH3TiE3rUrFwlg6XzuXCYOBAZczZcJBWAkTAtcsGLJ2biDXvJ+PGVW4/ZcyZcJBWIjnZhKMHs7FodiJ+/i4dKckmDlPGnAAHaSWUmSFj68Z0LH0rEXt2ZIJkTlPGKjMO0krs9k0jvvg0FUveTsLlC7kwGJRTMMYqAw7SSo4IOPt3DpbPS8J/VicjPdXEZ6iMVTIcpE5Cnynj0O96THr5Lnb+nIn0NH7+lLHKgoPUqQjk5BC+Xp+G+W/qcOh3PZ+dMlYJcJA6IVkG4u4Y8cnKFHz0Xgouns3hQGXsPuIgdWJEwJGDWXhvYTI+WpGC5CRuP2XsfuAgdXJE99pPD+/XY940HfbuzuLnTxmrYBykLkMgMcGE9WtSsHhOIk79mQ2SCcSJyli54yB1MbIM3LlpxMrFSfj3ihRcuWiELCunYow5EgepizKZgKMH7r3uZMOaFMgy/3afsfLCQerCiIAsvYzoXXpMHX0Xv+3MRHYWcaAy5mAcpFUA0b3XnXzxaSpmT0rA9X8MAPcuxZjDcJBWIbIMxMcaMf9NHT5ZlWLuro8xZh8O0irIYCAc3KvH21N12PplGnJz+XKfMXtwkFZRRIDJSNj2XQYWTNch+pdM5OZwoDJWFhykVRwRcO2KAevXpGLOZB1uXs/vnZ8TlTFrcZAyIC9Q79wy4J2ZiVj/cSpuXjPy2SljVuIgZYXoM2VE78rEwhmJiN6ZyQ/zM2YFDlJWBBGQlSVjw6dpiI/lbvkZKw0HKSvRvXZSoRzMGFPgIGWMMTtxkDKbEQHpaTJMJv51lCuTZUJKSg5/xlbgIGVl8tmHKfjPBym4dcPAnUm7GCIgKSkHGzdexJgxB5SjWTE4SJnNBICMDBkHf9ffu7u/KwsZ6fwyPmd37yajEefPJ2PixEPYsOES4uL0/EyxFThIWZkREfSZsrkz6d9/1cNo5C+dMyICzp9Pxty5f2L8+IO4eTODA9QGHKTMbkTAjasGrPt3Ct6bn4TbN40cqE5Clgl372bho49i8PrrB3HsmI4/uzLgIGUOQwTE/J2D+W/qsO6jVKSnyQB/JyslonshunnzFUyadAjffXcVMr+apsw4SJlDUd7L+Pbv0eONV+Oxd7ceaancflpZEAG5uTKOH0/A0KHR+Oyzc7hzh9tB7cVByspNlp7w+ccpWDY3ESeOZnOY3mdEwLVraZg16yjmzDmG27cz+TNxEA5SVq5kGbj+jwGrFifhg6XJuHrFABO3wVUoIiAuTo8vvriI117bj+PHdcjONiknY3bgIGUVggg4fjgL785Lwmf/TuXHpSoAEZCdbcI331zBpEl/YMOGC8jNlfkyvhxwkLIKQwSkpZpwIFqPt6ckYO9uPQdqOSAi5OSYcPx4AmbOPIq1a8/lPQ+qnJI5Cgcpq3BEwN04EzasScGSOUk4c5J/hugoRMDdu9lYuPAE5sw5hr/+0kHmX56VOw5Sdt+YTMD1qzl4f1ES1v07Bdf/MXD/p2V0rx00C1u2XMHLL/+OgwfjuR20AnGQsvtMwJBL+P1XPZa8lYgv16YiJ5vfHWUtynut9q5dNzFp0kF8+uk5pKcbuB20gnGQskqBCMhIl/Hrjky8PSUBh37XQ6/nQC0JEcFoJJw8qcP06YexdOlJxMVl8WX8fcJByioVIuD2TSM+XZWCRTN1iI/ld0cpERH0eiPmzz+OmTOP4ejRBN5H9xkHKauUZBm4ftWAaWPuYv3HKbh9kwOVCEhNzcWWLf/g+ef34MCBOGRnG5WTsfuAg5RVakRA9C495k7V4Ydv0vN+D66cyrUREWSZcPhwPF588TduB62EOEhZpUcEZGfJ+O/X6Zg9SYfD+7KQm+v6gUp0bxtPnkzEvHnH8dZbfyI93cDtoJUQBylzGkTAzWsGrFmZjHlTdbhzy+CyYUoEpKcb8O67pzBt2hHs2xcLo5GfDausOEiZ05Fl4Ma1XCyckYgNn6Qi/o7rtJ8SEVJTc/HNN5cxduwB7NhxkwPUCXCQMiclkJEu47edmZg1UYedP2U4dfvpvct4wpUr6Rgz5gA+/fQcbt3K5HZQJ8FBypwaEZCTI+Pr9el4Z2YiDu/PQm6O8wRqfjvo6dNJeOedv/Dqq/tw5w53b+dsOEiZS5BlwsVzufh4RTJWLUlCelrl7wyFCDAYCP/5zzlMnvwH9uy5zTeSnBQHKXMpRMDfJ3Lw5pi7+PI/qUjSmSploObkmPDf/17FSy/txebNV2AyVcKVZFbjIGUuKSNDxu7tmZg+7i4OH8hCTiW43CciGAwyzp9PwYgRv+PDD8/k9VJ/n1eM2Y2DlLksonuvO/n4vWSsWJiIv/Jed1LRuZX/QP3Vq+lYvvwU3njjD8TGcjuoK+EgZS6PCDj7dy5WLk7CysVJ0N01Vlh3fURAWpoBmzdfxssv78Pu3beg1/PPOl0NBymrMoiAE0ey8c7MRGzdmI7UlPJ97UZ2tgnbt9/A5Ml/YN26C3wjyYVxkJaBEILf1+7EEnUmbP9vOmZPTMCRA9nIznbsHX6jkXDhQgqmTz+CFStO4Z9/0jhEXRwHaRkEBkuoHqoGhHIMcxZEQEqyCZ+uSsaKhUmIOZVj9wP9RMCtW5lYvvwkpk49jFOnEu2qjzkPDtIyCA5RY/biYHTrqYW3jwTBgeq0DAbg3OlcvLcgCWtXpyAxwfbHpYiAlJRc/PTTNYwZsx+7dt1CerpBORlzYRykZeTnL2H4a36YNjcIUZ20EBKnqTMzGgkHfsvCghk6fL0hFVl669KUCPj111uYOvUwVq48zQFaRXGQ2kEIgXoNNXhtkj/GTfVHeG0N1GoOVGeWpDNhxw+ZeHvqXZw5mYPsrOID1WgkXLyYiunTD2Px4r9w+XKqchJWhXCQOoAQQGSUJ2YtCsLgkX7w9JS4/dSJEQGxt0x4b0ES9u0p/n3wZ88mYcqUP/g1HwzgIHUcIQBvHwk9+mixYm01dOzmCa2X4PZTJ2YyEdLTin/gNDPTiIwMvoxn93CQlgNvHwkjx/hjxoJgPPAvDw5TxlwcB2k5UakF6jbQ4I3ZgRgxxh916mn4cp8xF8VBWs6EALo8qsW0eUEY+oofPy7FmAviIK0AQgC+fhJ69PbC3GUhaNvBA17eHKiMuQoO0gokBFA9TIVXJwbgzXlBaNLcjcOUMRfAQXofqNUCdRuoMfWtIAx52Q+16qg5UBlzYhyk94kQAm7uAo/28cKMBcF4eogPJIkfl2LMGXGQ3mdCAD5+Eh5/ygcL3w9Gu06ecHPnQGXMmXCQVhJCALXqavDqBH/MXBiMkGp8uc+Ys+AgrWRUKoH6jdRY/GEIXhzlh+phKg5Uxio5DtJKSAgBNzeBR/t64Z33Q9DrCW+o1PfOWhljlQ8HaWUmAHcPCc+P8MWb84LQrqMWkooDlbHKhoPUCQgBNG3hjtGT/TF9fhBCqvPlPmOVCQepExECiGjujreWBuO5Yb6oEcY3pBirDDhInYwQgJ+/Cn36e2Pu8hBERnnw5T5j9xkHqZMSAvDyFhg/LRBvzgtCZDsPqDhQGbsvOEidnQCatXTHuGkBmDgzEJ5a7gyFsYrGQeoihCTQ6l/ueHdNNTw71Je762OsAnGQuhAhBHx8JfQd4I3311bHv9p6wp1/bspYueMgdUFCAB6eAq9P88e4NwPQvJU7hOD2U8bKCwepC1OpBFr9ywPT5gbh1Qn+CArh508ZKw8cpFWAEED7rlrMfCcYTw/2hZe3BIDfIcyYo3CQViEh1VR4/GlvvLU0GA+19YSHB7efMuYIHKRVjBBAWLgaY6cEYMKMQEQ0d4eQuP2UMXtwkFZRbm4CLR50x9S5QXhuqC8Cg1WQJE5TxsqCg7SK02iAvgO8MXtxMPr094KbG4cpY7biIGUAgOAQFZ4d6ou3lwWjRSt3uHsICL7eZ8wqHKTMTAigdj0NJs8OxPg3A1GDe+dnzCocpKwIjZvAAw+5Y8mH1RAcolKOZowpcJCyEgkBqDV8SspYaThIGWPMThykzGYEQBJ8M8rV3eufgT9ja3CQsjIgDBrmgwcjPfLu7ivHM2enUgk0aeKPWbMe4jC1Agcps5kQAvUbu2H89ABMnBEI/0C+u+8qhBCQJIFx41rg3Xej0K1bGH+2VuAgZWWmVgs0b+WOFZ9Wx1Mv+KBaDQ5UZ6bVqtGnTy1s2tQdTzxRF15eauUkrAQcpMwuQgBqNfDEMz54a2kIuvfWct+nTkQIQJIEHnggCBs2dMXEiQ+genVP/vxsxEHKHEIIwM9fwtBX/DF9XhAejPSARsPtp5WZEEDDhn54440HsHRpWwQHe0Ct5g+sLDhImUMJATRr5Y7x0wMx5a0gBAbz5X5lpNWq8corzbB6dXv06VMbHh78wwt7cJCyMqFS+oVWq4GmLd0wd3kwBgzyQUAQB2ploNWq8dhj4Vi9uj2efbY+3N05QB2Bg5TZjAjYuDYVursmEBGohFQVAvAPUKH/s95YtCoEHbpx++n9IkkCdep4Y9Wq9njzzQdRv74vd5voQBykzGYCwI1rBkx//S42fJKGWzeMFs9QhSTg7SNh5Bg/THkrCC0fcodKze2nFUEIoH59X4wb1wKffNIJDRtygJYHDlJWZjk5MvbsyMScSQn43w8ZIEKJZ6cAoFLf6wxlypwgvDYpAB4eEodpORICGDiwHtas6Yj+/evyZXw54iBldjOZgG82pGHu1AQc2pttMUyR9wVv294DS/8dgsef9oZfALefOpJGI6F795r49NPOGDu2BTQa/pqXN97DzCGIgH8u5eKTD5IxZ7IOcXeMkGXlVP9PCCAgSIWnB/tiwXvBiGjhDpWK20/tIUkCNWposXp1e8ya9RAaNPDh/VlBOEiZAwmQDNy4asC8aTpsXJuKhHiT5fbTvECdsSAI494MRERzNwiJ209tIQQQGqrF+PH32kGbNPHPu6nHO7GicJAyhyMCMtJl/Pq/TMwYdxfRv+iRm2MhTfPC4F9tPTBjYTCGvuILL28O09IIIaDVqtGvXx385z+d8eSTdeHrq1FOxioABykrVzk5hA2fpGDp2zocOZAFo7H0QO3eywtzl1dDv6e84anlG1LFUasldOkSimXL2mH8+BbQavl38fcTBykrd7IMXDpvwL/fS8bHK1JwN84Ek6nkQBUCqB6qwjNDfLFkdQgiWrhzT/158ttBFyyIxOzZD6FZM3+o1fw1vt/4E2AVggggGTh2KAvzpiZg0+fpSEwovf00MFiFybMDMWF6IBo2cQOq6AP9QgDVqnni9deb46OPOqBt22qQJO5cu7LgIGUVighIS5Ox6+d0zJ2agD//yIY+U7YYqB4eAg9GumPmwiA8/YIPfHyrzuV+fjto585h+OijDujfvy4CAtw5QCsZDlJ2nwikJMv497vJeP+dJPx1NNtimCLv7aZPPOODWYuC8cQzPnBzd+0wEQKIiqqGRYsexltv/QtBQR4coJUUBym7r0wmwoWzuVi5OAlrP0ix6vnTsHA1nnrBB7PeCUbDxm7QaJD3JinXoFIJhIVpMXNmayxY0AYPPBBYZc7AnRUHKbvv7v20FDgQrceiWTp8syENubmWe5gSAqjfSIMZC4Pw6sQAhNXSOH3YCAF4eqoxcmQEVq1qj+7dw7kd1ElwkLJKgwhITpKx48cMvPFKPI4ezEZuTsm9SwGAm7tA2w6eWLDi3s9NA5z0/VFarRqdOoXi66+74/nnGyI42MMpt6Oq4iBllQ4RkJJswierkrH4rUScP5Nr8ewUANzcBJ4e7IM35weh62P3uutzBkIADzwQiKVL22LmzNbw9XVTTsKcAAcpq7QMuYQrF3KxfF4SNnySirg7pXTXJwRq1lJj+Gh/TJ8fhKYt3KFxq5yJKgRQp443JkxoiWXL2qF58wC4uXHvTM6Kg5RVakSAwUD4bWcmFs/WYeuXacjOolICFWja0h0TZwZi9KQABFai3vmFuHcZP2JEE7z7bhQef7wO3N1V3A7q5DhImVMgApISZWz7LgMLZ+pw4kiWxUAVAtB6CbR5xAOLPgjBY497wf8+tp/mPw/68MPV8cEH7TFkSGMEB3twJ8sugoOUORUi4Po/BqxelowPlibh+tXS20+9vCU8P9wXc5YEo217T6hUFRteQgCNG/th6dK2WLAgEg0a+N63QGflg4OUOSWTCThzMgfzpyViyxdpiL1thCyXnKgqlUC16iqMnhyAcdMC0CjCDapyfvWwEEB4uBdGjozAypVRaN48kDtZdlH8qTKnld9+uv2/GVg8OxG//Jxpfia1JJIKeKitB6a+HYQxb/jD28fxPzcVef0BvPBCI7z//iN44YVG8PBQO3w5rPLgIGVO797zpyZs/jwN86Yl4MTRbBiNJT9/KgTgqRVoE+WBhe+HoEdvL/j62R+oQgi4u6sQFVUda9Z0wsiREfw8aBXBQcpcBhFw5aIB/16ejKVvJSIxwXJnKEIIBIWo8OIrfpi9KBjNW7mVOfSEAKpX98SSJQ/j7bcj0bixX5nrYs6Hg5S5HIPh3u/3Z01MwA/fpENnRXd9NWqq8ebcYIydEoCGTdwgWfFIpxD3evEPC/PCiBER+PzzLmjVKhhubvy1qmr4E2cuiQjQZ8r479fpmD0xAdG7MmEyldx+KgQAATzc3hNvzg/C8Ff9oVKhxM5QhLjXyXLfvnXwyScdMXhwQ3h43L/Hq9j9JaikhiTGSkLAwlk6XIjJuZc+TkCSgBYPeuCxflo0e8AdarXld0IRAQnxJqQkmdC4WdGfbd66lYmEhCw88EBQhT9OxSofDlJmOycM0nwqtUDzVu54dYI/fP34gow5Bh9JrEoxGQmnT2Rj5vgE/PfrdOjuWv79PmPW4CBlVQ4RkJpiwvdfp2PemzocP5JV6vOnjFnCQcqqLgJSkmR8sCQZKxcl4fRf9153wq1dzFYcpKzKIwJOHM3Gu/OT8PGKZOTk8Nkpsw0HKWN5iIDD+7Pw5pi7+OnbDORkc5oy63CQMlYAEZCUaMK3X6Vh/EvxOB+Ty5f6rFQcpIwVh4AsvYyYU873iBereBykjDFmJw5SxhizEwcpY4zZiYOUMcbsxEHKGGN24iBljDE7cZAyxpidOEgZY8xOHKSMMWYnDlLGGLMTByljjNmJg5QxxuzEQcoYY3biIGWMMTtxkDLGmJ04SBljzE4cpIwxZicOUsYYsxMHKWOM2YmDlDHG7MRByhhjduIgZYwxO3GQMsaYnThIGWPMThykjDFmJw5SxhizEwcpY4zZiYOUMcbsxEHKGGN24iBljDE7cZAyxpidOEiZzQiAEAJCCOUoxqokDlJWJv962B0AwFnKGAcpKwMhgJ5PeGHFp9UR0cINarVyCsaqFg5SViZCCASFSHhjThAmzQpC3QZufHbKqiwOUlZmQgi4uwu0bO2OOUuC8MwQHwQFqzhQWZXDQcrsJgTg5ibQ7ykfTF8QhF5PeMHdXXCgsiqDg5Q5jBBAjTA1nh/hhylvByGiuTvc3DhNmevjIGUOJwQQ0dwNk2cH4tVJAQgN58t95to4SFm58fAUaBPlgXnLq6HfQG8EhXCgMtfEQcrKlRCAp1bg6SG+mD4/CO27eEIIfv6UuRYOUlYhJOle++krEwIwbW4QmjR3h0qlnIox58RByiqUEEDzVm6YPCsQY6cEwNtH4rNT5vQ4SFmFE0LAUysQGeWJd9dUR88nvODrx4HKnBcHKbtvhAC8vAUGDfPFO6tC8GCkBySJ20+Z8+EgZfedSiXgH6DChOkBGPNGABo3dYPERyZzIny4skpDpRZo28ETU+cGYfTkAHh5i7xO+xir3DhIWaXj7n4vUOcuD0HPx33gF6DiQGWVGgcpq5Tyf276wks+mPVOEOrUdwP4+VNWSXGQskpNkgRCa6qx4L1gvDbBH42acnd9rPLhIGVOQUgC7btqMeudIAwZ5cdhyioVDlLmVCRJ4NG+Xlj2UTV07+0FjYZvSLH7j4OUOZ389tNhr/ji3U+qoV5DflyK3V98+DGnJSSBwCAVZi8Kxqhx/qhdT8OX/Oy+4CBlTs/NXaBjNy0WrghG3wHe0Go5TVnF4iBlLkNIAs8O9cXMRcHo/KgWHh4cqKxicJAylyIEULuuBiPH+mPKW0GoVUcNtZoDlZUvDlLmcvI7jm7S3A2zFgVj5Fh/1AhTc/spKzccpMyleXlL6NDNE/PfC0HXnlp4eXN3fczxOEhZleCpFRj+mj+mzw9Cpx5agMOUORAHKasyhADq1L/XfjptbhBq1dFA4tedMAfgIGVVSn77aYtW7pi5KAjDX/OHnz9f7jP7cJCyKkkIwNtbQtfHtHh3TTV06Hav/ZSxsuAjh1V5Hp4SXhpzr/304Uc8IUl8espsw0HKGAC1+l776evTAvDqRH/U4Z+bMhsIIuKucxgrgAhIS5Vx7FAWhAC69fLiUGUWcZAyZgER98rPSseX9oxZwCHKrMFByhhjduIgZYwxO3GQMsaYnThIGWPMThykjDFmJw5SxhizEwcpY4zZiYOUMcbsxEHKGGN24iBljDE7cZAyxpidOEgZY8xOHKSMMWYnDlLGGLMTByljjNnJqYJUlmUYDAZwX9SMscrEph7yr127hsWLF4OI0Lx5c4wZMwYajcY8XpZljB49GgAQFRWFYcOGQTiwZ9yTJ09i4cKFCAwMxHPPPYfu3bsrJzHLzc3F66+/DgDo0aMHnn32WQAAEeHixYv43//+h4sXL8JkMgEANBoNwsPD0aZNG3Tu3LnQdjHGmEVkg6NHj5JKpSJJkqhnz56k1+sLjTcajebxw4cPJ1mWC4231+7du0mr1ZIkSfTGG28oRxeSkZFBQggSQtCkSZPM6xIdHU0BAQEkSZJ5fH6RJIl69+7t8PVmjLk2my7tichcSlLa+LIqWKc1yyjuTPjixYsYMGAAUlJSIMsy3N3dERERgYiICFSvXh0AUKdOHeVsjDFmkU1BWlYmkwkZGRnQ6XTQ6XRITEyEwWBQTgYAyM7ORlJSknm6zMxMGI1G5WRmBoMBKSkp0Ol0yMrKMg/39PREWloa0tLSsHjxYgDA3r17kZqaCiJC/fr1cf78eZw5cwZnzpzB7du3ERsbixkzZhQKYYPBgMTEROh0OiQlJSE3N9c8Dnmhrtfrodfrzc0Eubm5yM3NBREhKyvLPI6IkJ6eDp1Oh+TkZMiyXKguxphzKvcgPXToEAYOHIjevXujS5cu6Ny5M7p27Yonn3wS33//vfnMkoiwZcsW9O/fH127djVP17t3b7z99ttFglen02HFihUYMGAAevTogS5dumDw4MHIyMgAAOTk5KBfv37o168f1q5dCwBITk4G8s5W+/bti9q1a0OSJHMJCQlB7dq1AQBGoxFfffUVnnzySXTr1g2dO3dGt27d8NxzzxVa77t37+Lxxx9H37598euvv2LTpk0YOHAg9u3bh/T0dAwZMgSPP/44Nm7ciPHjx6NXr17o3LkzevTogTfeeMO8TowxJ6a81rfkyJEjJEkSAaDu3btTfHw8paammktycrK57TG/jXT79u3mdlNlu6S/vz/t37+fZFmmgwcPFhqfP70kSfTMM8+QLMvmNlIA5mmU7Zz50yrbSE0mEy1ZssQ87MMPP1Runpksy7Ru3Try9PQsUn/+cj/66COSZZmuX79OGo2GhBAUGhpqXqfVq1eTTqejsLAw8zzKfSBJEr311lvcJsuYkyvzGenx48fxxBNPoFevXubSu3fvIm2XLVq0wKxZs7Bx40b8+OOP+OmnnzBo0CAQEVJSUrB//34AwO7du81tn0OHDsWPP/6IH3/8EStWrMDIkSML1Ym8M1i1Wo3OnTujWbNm5nl37txZ6Cw3v9iCiPD2228jKysLXl5eGDduHL7//ntMnToVbm5ukGUZX3zxhfkyP38ZsbGxICL4+/ujUaNGhcYREdq1a4c1a9Zg1apV8Pf3hyzL+M9//qNYOmPM6SiT1ZKCZ6SWiihwRlqcW7duka+vLwGgZ599lkwmE82YMcN8prZw4UJKTk4uNI/yjLR9+/Z0+vRpMplM9Ndff5GbmxsBILVaTSaTiTIyMszrM3HiRJvOSGNiYszb2adPH8rOziYiIpPJRH369CEAVKtWLcrMzKTr16+TWq0mACRJEr3++uuUmppKsiyTTqej0NBQcz0mk4mIiNLS0igqKsq8r0raT4wx51DmM9KwsDAMGTIEw4YNM5ehQ4cWe7fcaDRi9+7dWL9+PdavX49vv/1WOQlCQ0MB3DuDW7JkCbp164Zhw4YVOsPMJ4RA27Zt0bx5c0iShICAAEhSmTelCL1eD+Qtx8fHB25ubuZ/N2zY0LyNyvXSaDRYsWIFfHx8iuwHDw+PQv9mjLmOMqdPixYt8Mknn2DdunXm8tlnnxUJkOPHj6NWrVro1asXRo4ciZEjR2Ly5MlIS0srNN2oUaPw/PPPIzw8HJmZmTh58iQ2btyIvn37YurUqeY74gXlL0u5TEdS1q1SqQr9uyAhBDQaTZF58pU0nDHm3MoUpEIIcyl411sZFESEzz77DPHx8ZBlGZGRkRgxYgQGDRoET0/PQvV5enri888/x969e/Hrr79i6NChICLIsoxdu3YhJSWlUN32On/+vHJQsZRnnTk5OYX+zRhjZQpSaxGR+bnNwMBAHDp0CGvXrsWCBQvg5eVVaFq9Xg+DwYAGDRqga9euWLduHZo1awbkPYdq7zOXQgh4e3sDeeu1Z88exMTEmJ9XjY+Px6VLl3D9+nX4+fmZp4uNjUVqaiqQ9/jUiRMnQERQqVRF/nBYkpuba36EKzc3F9nZ2cpJGGNOqlyDVAhhDszU1FS88MILGDJkCHr16oWkpCTzdESEn376CW3atEG/fv0watQoDB48GFeuXAHy2hfVarV5+rLq16+fOfwuXLiAHj16ICoqCu3atcMjjzyCzp0744MPPkD9+vXRsmVLAMAff/yBqKgoPP7444iKisLRo0cBAPXq1bNpnfbu3YvIyEj06dMHPXv2RExMDADgwQcfVE7KGHMyDg/S/Ev+/P/v2rWr+ZGhrVu34uuvv8atW7fg6elZ6Izu8OHDuHDhAnbs2IH169fjm2++QW5uLjQaDXr16mU+S1QuQzms4HDlsNq1a2PNmjUIDw8HESE+Ph5XrlzBlStXcPXqVcTHx+P06dMgIixfvhz16tWD0WjEhQsXsH37dly6dAlEhIYNG+KNN94wd2yiXE5xMjMzcebMGezcuRMnTpyAwWCAj48PJk2aZHE+xljlZ1PvTzqdznwXPSwsDF26dCl080WWZWzatAlEhAYNGiAqKgpGoxH79u3D559/jmvXrqFbt27o378/4uLikJiYiDp16qBjx46IjY3Fvn378Oeff+L8+fPQ6XTo2LEj+vbtizZt2sDLywuxsbHYu3cvjEYjmjVrhn/9619AXkj9+OOPMJlMkCQJL7zwAkwmEzZv3gwAaNq0KSIjI4G8ZoK4uDhs374dR48exZkzZ+Dp6YkWLVqgadOmiIqKQqtWrcxBu23bNhw+fBhnz55Fq1at0LZtW/Tq1Qs1atSAJEnIzMzEDz/8AFmWoVKp8MILL5j3R2JiIlq2bInY2FhERkaiXbt2uH37NuLi4hAREYFXX30VDz30EPc0xZiTsylI7VFwMZbOwJSrY2laeymXhWKWp5xGOd6SgkE6cOBAbN26tcgZM2PM+Tn80r4k1lz+QjFdadPaS7ms4pZX2nhbOLIuxljlUWFBWpVxcDLm2jhIy5EQAlqtFp06dUKPHj2UoxljLqLC2kirKmvbhhljzouDlDHG7MRByqokS4c9XzkwW3GQMpeXf4gTEZKSkrBr1y5cunQJf/75JzIzMwEAbm5uiIyMhJeXF9q0aYOIiAiEhYUBfLOQWYGDlLm07Oxs7NixA9u2bUN0dDSuX79e6Gw0//+VQSmEQLVq1dCkSRO0atUKkyZNQt26dQtNw1g+DlLmkogIycnJ6N+/Pw4ePAgqw5sS8qlUKsTExKBJkybKUYwBtgZpamoqjhw5UuYDsiKpVCp+5KiKIiKcOHECgwYNwpUrV+w+XlUqFeLi4hAcHKwcxRhga5AeO3YMjzzyiN1d2lUELy+vIp1Hs6pBp9OhQYMGSE9PtztEkdf7WGZmpkPfwsBci01HBuV1tOwshVU9ubm5mDBhgsNCFAC6d+9epA2VsYJsClLGKrsbN25g165dDgtRAGjXrp1yEGOFcJAyl/LFF18gMTFROdgu3Pk2Kw0HKXMZsixj7dq1Np2NSpIET09P+Pn5wc/PD1qtFh4eHoWeHW3VqhVf2jOLbLrZdPToUURFRTlF+6OXlxcyMjKUg5kLu3HjBurWrWt1kNasWROTJ09Gy5Yt4evrCwDIyMiAwWBAQkICLl++jEuXLuGrr77iIGUWcZAyl7Fz50706dPHqiANCwvD7t270bRp0xJDMr+eksYzlo8v7ZlLoLxXw1irb9++iIiIsBiS/NNQZq0yBWn+AWZrsZVyflsKq3ru3LmjHFQsIQRat27Nz4Uyh7Hp0j42NhZfffWVVZdOxcnIyMCCBQusmj8sLAwTJ05UDraaRqOxa37mXIgIS5YswaxZs0o9voQQ2LRpEwYNGqQcxViZ2BSk9si/9KpZs6ZVbaytW7fG8ePH+eySWYWDlN1PFXZtw5fcjDFXVWFByhhjrqpKBSnldaVmqVRl9my/cj9aKlWNcvuLK5XV/Vg/5b5x9H5S1umI+iusjRQA4uPjERYWVqFtpMnJybh16xbi4+Nx+/Zt3Lx5E0SEs2fPAnk9+9SvXx8eHh6oV68eatasierVq6N27dpQq9XK6ipcUlISTp06hb1792Lq1Knw9vZWTuIQV65cwfHjx5GZmYnhw4eXut9TUlIQGxuL9PR0pKenIy0tDf/88w+ysrJgMplw9epV5OTkAABCQ0MRGBgId3d31KtXD35+fqhRowZCQ0MRFBRU6rKsQZWojZSIkJiYiBs3biA+Ph46nQ7Xr1+H0WjE1atXkZubCwBo1qwZhBCoXbs2wsLCEBQUhPDwcISEhCirvC9u376NU6dO4cSJE5g+fXq5fR8MBgPu3LkDnU6HO3fu4O7du4iNjUViYiLi4uLM+6Vp06Zo0qQJGjZsaPO6ZGdn4/bt29DpdIiNjcXt27eRlJSEO3fuICUlBeHh4ahZsyZatmyJJk2aIDw8XFmFRS4ZpESEGzduYP78+di7dy/S0tKQkZFh/mJb4uPjA29vb9SpUwevvvoqnnnmGWi1WuVkFuXk5GDEiBH4+++/laPMhBBYtmwZevfurRwF5P3ccfny5fjss88QGxuLrKwsnD17Fo0bNzZPc+zYMbz00ksWg6NGjRrYsmULAgMDlaNARLh8+TLmzJmDffv2ISEhAd26dcOPP/4IDw+PQtNlZGTgt99+w/79+7Fz505kZ2cjPT0dOTk55mItd3d3eHt7w8fHB5GRkZgwYQLatWsHlUqlnLQIg8GAhx56qMg254eXNc+SCiFQs2ZN+Pn5KUcVERYWhl9++cWq4zA3Nxd79uzB6tWrcf78eaSmppp/KVUad3d3aLVa+Pr6om3bthg1alSZep2KjY3FiBEjcOvWLeUoMyEEtm7dioiICOUoEBFSU1OxZMkSbN68GXfv3oVWq0VMTAxq1Khhnm7Xrl2YPHlyoXkLEkLgyJEjxX538j+748eP44cffsDu3btx+/Zt6PV6pKenw2QyKWcBAKjVagQGBmLAgAFYvny5xZOK/GXs3bsXmzdvxr59+5CWlmZehvL4yefh4YFq1aph3LhxmDx5svX7nypQXFwcSZJEAEotrVu3JlmWlVVYlJOTQ9HR0TRgwACSJImEECSEKFJ3aSV/PkmSqGHDhrRmzRpKSUlRLq5Eer2e2rVrZ66nuCJJEi1btqzQfLIs0z///EOLFi2i6tWrm7cBAEmSRHv37i00fXR0dKHtLK4EBQXRX3/9VWi+3NxcOnDgAL388svk6elpnhYAdezYkdLT083TyrJMzz33HPn6+pIkSXbtV2XJr0ej0VCvXr3o559/ppycnELrqpSdnU0qlarIdtq6Tsr5SiqdO3cu9TjU6XT04YcfUmRkpN37J39eSZKoTZs2tH79ekpKSlIuskTXr1+n+vXrF9mOgkWSJNq6dWuh7TIajXTq1CmaMWMGeXt7Fzr2/Pz86NKlS+ZpZVmmrVu3Wjz2JEmi7du3m5chyzIlJCTQjh07aObMmdSoUaMyHU/5dT/88MMUExNjXqf8ZVy/fp2+//57Gj58OAUHBxdZR2V9xZX8ZTzxxBMUHx9faBklcZkglWWZpkyZQt7e3lbvMGuLRqOhxx57jFJTU5WLLZZer6e2bdsWqadgEULQ8OHDifLW3WQy0fLlyyk8PJxUKlWx03/33XeFlhMdHV3qtnp5eVF0dDTJskyyLJNOp6MXXniB/Pz8ip33gQceoMTERPMyZFmmnj17FpnO0UUIQVqtlkaPHk2ZmZmFtrOg7Oxsq48he4sQgjp16lTicSjLMh09epQiIiLIzc2t2P1pTxFCkFqtpkceeYRSUlJKXI+Crl+/TvXq1StSl7LeFStWmI8Jk8lE06dPp6CgoGL3rZeXFx07dsy8jPwgtbS9Qgh66aWXyGQy0d27d2nKlCkUHh5u/sOtnN7WIoSgyMhI8zZcuXKFhg8fTjVq1CCNRuOQZahUKho+fLhV+90lgvTGjRs0cOBAh+y8kooQgtq0aUMXL15ULr4Ia4IUALVr146ysrJo27Zt1KFDB4vrL4SgVatWFVqONUGqUqlo69atlJSURO+++y7VqFHD4jy1a9emO3fumJchyzKNHz++yHTlVYQQNHjwYMrOzi60rfkqOkiffvrpYo9DWZbpp59+ourVqxeZrzxKUFAQRUdHK1ejCGuDdOTIkZSVlUXr16+nFi1aWDwm3N3di5xdlhakACgiIoJefvll8vX1LXXaspT87Rg+fLjDAlpZhBC0bds25W4uwumDVJZlGjFiRLnsRGURQlCPHj1Ir9crV6MQa4M0PDyc2rdvb/VBMHHixELLsSZIhRA0cOBAqlu3LqnV6iLjlSUwMJCuX79uXoYsy/TDDz8Uma48i0ajoffee6/Qtuar6CB98cUXiz0Ot2zZQlqttsg85VWEEBQSEkJnz55Vrkoh1gQp8r5fLVq0sOpMWq1W01dffWVzkCJvvZXDHFkKNkGUV2nevDllZGQod3UhTv/403vvvYcNGzaU2HjsSESEPXv2YOXKlQ5Z3q1bt3Do0CFkZWVZVZ+10xVERPjvf/9rvmtcmpSUlEI3joQQiIyMLDRNeTMajZgzZw4uXbqkHFXhirtJd/XqVcycORNZWVnKUeWGiKDT6dC3b1/8888/ytE2O3nyJGJiYpCbm1vqMWUymcr8/rPS6raXLMvlvoybN2/i1KlTysGFOHWQHj9+HPPmzbPqKQBHISLMnTvXIQczbDzQdDpdiXc0Lcm78lAOLhYR4cKFC4WGhYaGIjQ0tNCw8kREyMrKwtq1ayv0sy1Ofj+l+YgIL7/8skPeTmorIsL169dt7ry6OLYcEwBw+fJl5aAqIz09vdTtd9ogJSJ899130Ov1ylFWyf/JqtWPNxRgMBgq7Cy4oOTk5DIFqa2Uj84IIVCnTp1Cw0pScL+WZd/mIyL8/vvv5mcu7xcvL69C/96zZw+io6Mr/LPPJ8syVq9ejWvXrilHlavU1FTloCqDiHDs2DGLn7nTBikAfPnllzadsWi1WkydOhWnT59GVlYWsrKykJGRgT/++APPPfccNBqNcpZiEREOHDhg1fOBjpSZmWnT9pbVuXPnlINQt27dQgEZEBCALl26YPz48Xj//fexa9cuREdHIzU11bxv09LScODAAXzxxRcYPHiwzcF66tSpIkEqSRI6deqEzp07FyqdOnVCvXr1Ck1rSdOmTYvUUVxp2bKleR6TyYSNGzda/EIVRwiB0NBQDBkyBHPmzDGXIUOGICQkxOb9kpmZiWXLltm8HvaIi4tTDqpSrl69qhxUmLLRtDw58mbTb7/9ZnUjs8i7E3zt2jUymUzmRyYKFoPBQAcPHqRHHnnEqnq9vb0pISFBuVpENtxssra4u7tThw4daN26dWQwGMzLseZmky3F19eXRo4cWehRF8q7ubBjxw5at24dHTlyhG7fvk0mk8lclPuyuGIymSguLo7efPNNm9Z5+/btRdYlv76CxWg00jvvvGNV3UII2rRpU5E6iitygWMwKyuL6tatW6S+koq3tzeNHTuWjh07Rjk5OUXqzi/R0dE0atQo0mg0ReooqYSFhVFsbGyhfUM23Gyytmi1Wnr66afp559/Nu8L2YabTaUVIQQFBwdTly5daNCgQTRs2DDq1KmTQ+pGXv1CCKpVqxZ17tyZhg8fTsOHD6eHHnrIpmW0aNGCTCaTcnebOWWQynl36pXzlFSeffZZizshnyzLdOTIEfLz8ytSh7JIklTiYxGOClJJkqhevXp04MABMhqNRfaHI4JU5D2r2LdvX9LpdEXCI1/BULSHyWSiYcOGFVmPksqMGTOsWqYsy7Ro0SKr9ocQgjZv3qysolQxMTFF6iqpSJJEixcvLnF/FpT/h2H27NlWfz/ynw9WclSQqlQqatasGZ0+fbrINtgbpJIkkZubG/Xs2ZN2795NRqORjEaj+Q+L0Wik33//nTw8PIrMa00RQpBKpaKgoCCaMGECxcTEFLuMUaNGWb0NzZs3t5ghThmkubm51KRJkyLzFFc8PDyK/CLIkuzsbOrcuXORepRFCEGjR49Wzk7kgCBVqVTUvn17Wrt2rcVHrewNUnd3dxo0aBDt37+/xH1dHvbu3Uuenp5F1qe48tRTT1m1buUdpLIs09KlS4vUVVIZNmyYxS9ecVJSUqh58+ZF6iquSJJEGzduVFZhd5BqNBp69NFH6bvvvisSoPnKGqQ+Pj705JNP0vr16+nWrVvF1p0vJyeH+vTpU6QOS0UIQWFhYTRu3DjauXMn6fV6i8swmUzUtGnTIvUUVwICAix+nk7ZRpqQkICkpCTl4GL5+Pigbdu2ysElcnd3t/o3zqdPn1YOsosQAlqtFsuXL8eePXswcuRIeHp6Kiezm0qlQoMGDXDo0CF89dVXaN++vVXb6yjh4eEICgpSDi5WQkJChbYFWvK///1POahYXl5eeOWVV2x+lYmvry+WL1+uHFwsWZZx7tw5h+0bSZLg7e2NL7/8Ejt37sSAAQMgSZJDjgs3NzcMHjwYx44dw/fff4+hQ4eiZs2aFuvWaDSoV6+exWkKCggIwJIlS3D+/HmsWrUKjz32GDw9PS3OL4Sw+lXbqampFve1bZ90JZGWlmbVM5EA0KJFC7i5uSkHW9SoUSPloCKIyGKnJLby8PDAmDFj8Oeff2LixIlwc3Oz6gO2hcjrrGP16tU4duyY+b1Fjl5Oadzd3eHu7q4cXKkRkdWPvAUHB6NmzZrKwaUSQqBnz55FHrkqyfXr15WDysTT0xNvv/02YmJi8Mwzzzj8mBg3bhzWr1+Pxo0bO7xu5O23L7/80tw7mrDhiZGCnfPYwymDVK/XW/0YkI+Pj9U7NV/Dhg2tmscRr3sWQqBx48Y4ePAgPvjgA/ObLa1Zvi00Gg0GDBiAs2fP4rXXXkNAQIDDl2EtrVbrsAO4Iln7cj1PT0+LPROVxtpu9Oz9QYAkSYiKisKVK1cwe/Zs1K5d2+HHhBACvr6+UKvVDq87n8h7KqI8vjfWcsogtXSKXRxbp69IdevWxcGDB8v97LB3797YuHEjfH19y20ZzH75oVARmjRpgu3btyM0NNTmZghWmMvvPb1ej2vXruHq1atWlzt37lRY+Pr6+jqsc2NLgoODy6W9lTleRTV7BAYGWtUnKyudywfpnj170KhRIzRs2NDq0r9//woL0opS3kHNHIs/L+fi8kFKRJBl2abiaiFaHgwGAxITE3Hz5k1cvnwZMTExVpfz58/b1KM+Y5Wdywcpc6zMzEx8/vnnGDJkCHr06IH27dujTZs2eOCBB6wuHTp0wJUrV5RVM+a0OEiZVYxGIw4fPowOHTpg5MiR2LJlC06ePImbN28iJSWlyFm9pZL3QxDlIhhzWhykrFREhM8//xyPPfYYTp06xSHImAIHKbOIiPDXX39h/PjxyMjI4BBlrBgcpMwinU6HZ599FtnZ2RyijJWAg5RZtHfvXty4cUM5mDFWgMsHaceOHfHHH3+USzl06JBycS6FiPDbb79VeAfWjDkblw/SgIAAPPzww2jbtq3Dy8MPP6xcnEuxtWOWxo0bY8CAAZgxY4bFMmnSJAQHBytnZwVwM4pzcfkgRTHvEXJkcXVnz55VDipWx44dER0djS1btuCdd96xWGbNmoXq1asrq2B5EhISlINYJVclgpSVDRFZ9RpelUqFV155BaGhoeZefkorzsjad3qZTKYyN4cQkdV97bLKwymDNCQkxOqD+uLFi3yZVEYnT55UDiqWm5sbGjRooBzsch588EHloGKlpqZCp9MpB1vlzp07iI2NVQ4uVlXY587CKYPUy8sLKpVKObhYcXFxVh+YrLDs7GzloBKpVCqnPdO0hhACTZo0UQ4ulk6nw/Hjx23+A05EWLp0qdV97ZblDaSsfDhlkAYEBCAgIEA5uFgZGRnYv3+/zQd1SRxVjzPw8fFRDioWERV5bbIlzroPBw4cqBxULFmWMX36dJs7/j5+/Dg+//xz5eBiubm5ISIiQjmY3SdOGaRCCHTv3l05uFhGoxHz5s3DqVOnlKNsotfrceLECXz55Zf48ssvnTYMbNG8eXPloGIZjUZcuHDBqn1iMBjwxx9/ICUlRTmqUhNCoH379lb3fB8fH4+ePXvizz//VI4qwmQyYd++fRg7diwyMzOVo4vl7e2NevXqKQez+8QpgxQARo0apRxUogsXLqBLly6YNWuWxU4z8odTXtd7ly5dwubNmzFo0CDUrl0bnTp1wksvvYTJkycXO78rsubM32QyYeXKlSXuk/x9+sMPP+DBBx/EM888Y/VrOyoTHx8ftG7dWjm4WESEw4cPo2vXrnjiiSewe/fuQsceESEnJwe//vor+vXrh169euHYsWPKakpUs2ZNPiOtRJwySEXe2/+sPWOivLvPS5YsgVarRceOHdG/f3+MHTvWXEaPHo3+/fvj0UcfRbNmzRAQEICIiAgMGTIEW7ZsQVJSEjIzM2E0Gs39cLo6IQQaNmyoHFwEESEmJgaNGjXClClTsHLlSnzyySdYsWIFpk2bhqeffhqhoaF46qmncO7cOaf9ualGo0GvXr2sbpckImRkZGDbtm3o1asXPDw8UL9+fTRp0gR16tSBl5cXevbsiV9++QVZWVlW7xMhBKZPn271fQJWAZTvZy5PjnqvPeW9W3vFihVW16csQogSi3JaZZEkiXbu3KlcJTNb3mvfqlUri9tpiS3vtR85cqTNy5FlmSZMmFCkLktFCEGSJJEkSTbt05JKp06dLL5PPF95v9c+3927d8t8zDmqtGvXjoxGo3LViGx8r3379u2t2rdKtrzXXghB8+bNU1ZRKlmWaezYsVYtQ5IkOnHihLKKUsmyTMOHD7d6GSXtc3LW99oj76/ygAEDyvyisIKXWMpSGsrrEcnVCSHQoUMHqNVq5agSUYE3EtiyT51FSEgINm3aVGHvVVLy8PDAtGnT+GV1lYxTfxp169bFpk2bKvygIiJcvnwZsiwrR7mcTp06WX33vqoYOHAgBg0apBxc7oQQGDRoEPr372918wKrGBWbQOWgQ4cOmD9/foW3F125cgVGo1E52OWEhITg/ffft/oHEFWBRqPBggUL0KdPH+WociNJEoYOHYqPPvqIQ7QScvoglSQJM2bMwAcffAA3Nzfl6HJTVYJUCIEXX3wRzz33nMO+wEIIeHp6WnUjq7IKDw/H999/j6FDh9rU9FEWGo0GY8eOxccff8yv1K6knD5IkRemo0ePxrZt2/DYY4857AtfEn9/f0RFRVV4k0Jxyntbkbd/58+fjz59+ti9vJo1a2LmzJk4e/YsxowZY3d994sQAu7u7li7di02bNiAli1bOnxbhBBo27Ytvv32W6xatcrqEHX0erDSVXgSaDQaq4qtf+WFEOjRowd27NiBH3/8EfXq1YNWq7U77NRqNbRaLQICAtCzZ0989dVXiI+Px9dffw0PDw/l5GZqtbrINhVXbN3OgoQQVi/H3qaPevXq4aeffsKsWbPg7e1t9Zc1/+wzPDwc8+fPx7lz57BgwQLUqVMHkZGR8PX1LbKuyvW2dlmSJBWZv6Ri73GRz83NDc8//zxOnjyJDRs2oGHDhnYdd5IkQavVon79+vj2229x6NAhPP7441bvA1Tgsaesr6RS1n2hUqmK1FVSsWX/FOSoZQiqwFuq2dnZ2LVrl1V3cf38/NClSxflYKvk3zn+66+/cPbsWZw/fx6nTp3CzZs3odPpEBcXp5wFGo0GNWvWhFarRa1atRAeHo4WLVogNDQUtWvXRuPGjeHv72/emZZ2qslkwsGDB5GcnKwcVYQ926nT6XDw4EHl4GLVqVMHrVq1srjepSEiGI1GnD17Fr/99ht+/fVX/P3337h9+3ah6WrVqoW6deuiUaNGaNWqFVq3bo3WrVvD09MTokDvT2lpaTh48KDFn5cGBQWhffv2Vq33pUuXrO72LzIyEjVr1lQOLrP8Y1qv1yMmJgZnzpzB8ePHcevWLZw/fx53795FamqqcjaEhoYiODgY4eHhaNasGVq2bInmzZvjwQcfNAeQNdueT6/X4+DBg9Dr9cpRRdiyb5Xu3Llj9Q8IIiIirO6nIB8R4fTp07h69apyVBFCCHTu3Bl+fn7KURblP31jzTPhQgiLf9AqNEhR4ICzRkkrba38ZZX0X6WCyyv4hVeOs0ZJyyiOrXUXZO1y7FmGUsH9mF8Kyl9WwX1Y0vKV8xanpHmLY019sLFOWymPM+V/C1LuH+V/y6K45ZSkIpZTmZdhbf0oZRkVHqSMMeZqytZ4wRhjzIyDlDHG7PR/uSttfTJTVuoAAAAASUVORK5CYII=;" parent="1" vertex="1">
          <mxGeometry x="66.25" y="532.5" width="78" height="75" as="geometry" />
        </mxCell>
        <mxCell id="ECt8iT3MVX6dOdYkUaZF-13" value="&lt;b&gt;Developers&lt;/b&gt;" style="sketch=0;pointerEvents=1;shadow=0;dashed=0;html=1;strokeColor=none;labelPosition=center;verticalLabelPosition=bottom;verticalAlign=top;align=center;fillColor=#515151;shape=mxgraph.mscae.system_center.admin_console" parent="1" vertex="1">
          <mxGeometry x="110" y="160" width="77.5" height="60" as="geometry" />
        </mxCell>
        <mxCell id="GgVsPn2afHot_6HWTfwj-16" style="edgeStyle=orthogonalEdgeStyle;rounded=0;orthogonalLoop=1;jettySize=auto;html=1;" parent="1" source="ECt8iT3MVX6dOdYkUaZF-14" edge="1">
          <mxGeometry relative="1" as="geometry">
            <mxPoint x="109.25" y="610" as="targetPoint" />
          </mxGeometry>
        </mxCell>
        <mxCell id="ECt8iT3MVX6dOdYkUaZF-14" value="&lt;b&gt;DevOps Engineers&lt;/b&gt;" style="points=[[0.35,0,0],[0.98,0.51,0],[1,0.71,0],[0.67,1,0],[0,0.795,0],[0,0.65,0]];verticalLabelPosition=bottom;sketch=0;html=1;verticalAlign=top;aspect=fixed;align=center;pointerEvents=1;shape=mxgraph.cisco19.user;fillColor=#005073;strokeColor=none;" parent="1" vertex="1">
          <mxGeometry x="74.25" y="680.0000000000001" width="70" height="70" as="geometry" />
        </mxCell>
        <mxCell id="GgVsPn2afHot_6HWTfwj-9" style="edgeStyle=orthogonalEdgeStyle;rounded=0;orthogonalLoop=1;jettySize=auto;html=1;" parent="1" source="GgVsPn2afHot_6HWTfwj-12" edge="1">
          <mxGeometry relative="1" as="geometry">
            <mxPoint x="70" y="350" as="targetPoint" />
            <Array as="points">
              <mxPoint x="40" y="350" />
            </Array>
          </mxGeometry>
        </mxCell>
        <mxCell id="GgVsPn2afHot_6HWTfwj-1" value="&lt;b&gt;DevOps&lt;/b&gt;" style="points=[[0.35,0,0],[0.98,0.51,0],[1,0.71,0],[0.67,1,0],[0,0.795,0],[0,0.65,0]];verticalLabelPosition=bottom;sketch=0;html=1;verticalAlign=top;aspect=fixed;align=center;pointerEvents=1;shape=mxgraph.cisco19.user;fillColor=#005073;strokeColor=none;" parent="1" vertex="1">
          <mxGeometry x="15.45" y="160" width="60" height="60" as="geometry" />
        </mxCell>
        <mxCell id="GgVsPn2afHot_6HWTfwj-3" value="" style="shape=actor;whiteSpace=wrap;html=1;" parent="1" vertex="1">
          <mxGeometry x="550" y="10" width="40" height="60" as="geometry" />
        </mxCell>
        <mxCell id="GgVsPn2afHot_6HWTfwj-6" style="edgeStyle=orthogonalEdgeStyle;rounded=0;orthogonalLoop=1;jettySize=auto;html=1;exitX=0.5;exitY=1;exitDx=0;exitDy=0;strokeColor=#00FF00;strokeWidth=2;" parent="1" source="GgVsPn2afHot_6HWTfwj-4" edge="1">
          <mxGeometry relative="1" as="geometry">
            <mxPoint x="595" y="150" as="targetPoint" />
          </mxGeometry>
        </mxCell>
        <mxCell id="GgVsPn2afHot_6HWTfwj-4" value="" style="shape=actor;whiteSpace=wrap;html=1;" parent="1" vertex="1">
          <mxGeometry x="575" y="10" width="40" height="60" as="geometry" />
        </mxCell>
        <mxCell id="GgVsPn2afHot_6HWTfwj-5" value="" style="shape=actor;whiteSpace=wrap;html=1;" parent="1" vertex="1">
          <mxGeometry x="605" y="10" width="40" height="60" as="geometry" />
        </mxCell>
        <mxCell id="GgVsPn2afHot_6HWTfwj-28" style="edgeStyle=orthogonalEdgeStyle;rounded=0;orthogonalLoop=1;jettySize=auto;html=1;exitX=0.75;exitY=1;exitDx=0;exitDy=0;" parent="1" source="GgVsPn2afHot_6HWTfwj-11" target="ECt8iT3MVX6dOdYkUaZF-9" edge="1">
          <mxGeometry relative="1" as="geometry">
            <Array as="points">
              <mxPoint x="175" y="350" />
            </Array>
          </mxGeometry>
        </mxCell>
        <mxCell id="GgVsPn2afHot_6HWTfwj-11" value="&lt;font style=&quot;font-size: 10px;&quot;&gt;Project Code&lt;br&gt;(Front and Back)&lt;/font&gt;" style="text;html=1;whiteSpace=wrap;strokeColor=none;fillColor=none;align=center;verticalAlign=middle;rounded=0;rotation=0;" parent="1" vertex="1">
          <mxGeometry x="100" y="235" width="100" height="40" as="geometry" />
        </mxCell>
        <mxCell id="GgVsPn2afHot_6HWTfwj-17" value="Lambda" style="outlineConnect=0;dashed=0;verticalLabelPosition=bottom;verticalAlign=top;align=center;html=1;shape=mxgraph.aws3.lambda_function;fillColor=#F58534;gradientColor=none;" parent="1" vertex="1">
          <mxGeometry x="470" y="681.5999999999999" width="40" height="40" as="geometry" />
        </mxCell>
        <mxCell id="qeDbLO5Tcm8qtFllbZOF-12" style="edgeStyle=orthogonalEdgeStyle;rounded=0;orthogonalLoop=1;jettySize=auto;html=1;exitX=1;exitY=1;exitDx=0;exitDy=0;exitPerimeter=0;strokeWidth=2;strokeColor=light-dark(#00FF00,#00FF00);" edge="1" parent="1" source="GgVsPn2afHot_6HWTfwj-18" target="F6hma239Z3UVsW2DJXRU-34">
          <mxGeometry relative="1" as="geometry" />
        </mxCell>
        <mxCell id="GgVsPn2afHot_6HWTfwj-18" value="Cloudfront" style="sketch=0;points=[[0,0,0],[0.25,0,0],[0.5,0,0],[0.75,0,0],[1,0,0],[0,1,0],[0.25,1,0],[0.5,1,0],[0.75,1,0],[1,1,0],[0,0.25,0],[0,0.5,0],[0,0.75,0],[1,0.25,0],[1,0.5,0],[1,0.75,0]];outlineConnect=0;fontColor=#232F3E;fillColor=#8C4FFF;strokeColor=#ffffff;dashed=0;verticalLabelPosition=bottom;verticalAlign=top;align=center;html=1;fontSize=12;fontStyle=0;aspect=fixed;shape=mxgraph.aws4.resourceIcon;resIcon=mxgraph.aws4.cloudfront;" parent="1" vertex="1">
          <mxGeometry x="570.01" y="150" width="50" height="50" as="geometry" />
        </mxCell>
        <mxCell id="GgVsPn2afHot_6HWTfwj-23" style="edgeStyle=orthogonalEdgeStyle;rounded=0;orthogonalLoop=1;jettySize=auto;html=1;exitX=1;exitY=0.5;exitDx=0;exitDy=0;exitPerimeter=0;entryX=0;entryY=0.575;entryDx=0;entryDy=0;entryPerimeter=0;strokeWidth=2;strokeColor=#66B2FF;" parent="1" source="F6hma239Z3UVsW2DJXRU-37" target="PYK1HoXps0qIZWL1eZz0-2" edge="1">
          <mxGeometry relative="1" as="geometry" />
        </mxCell>
        <mxCell id="GgVsPn2afHot_6HWTfwj-12" value="&lt;font style=&quot;font-size: 10px;&quot;&gt;(Build/Test/Deploy)&lt;/font&gt;" style="text;html=1;whiteSpace=wrap;strokeColor=none;fillColor=none;align=center;verticalAlign=middle;rounded=0;" parent="1" vertex="1">
          <mxGeometry x="15.450000000000003" y="235" width="60" height="30" as="geometry" />
        </mxCell>
        <mxCell id="GgVsPn2afHot_6HWTfwj-31" style="edgeStyle=orthogonalEdgeStyle;rounded=0;orthogonalLoop=1;jettySize=auto;html=1;entryX=0.516;entryY=1.015;entryDx=0;entryDy=0;entryPerimeter=0;fontColor=#000000;strokeColor=#66B2FF;strokeWidth=2;" parent="1" target="F6hma239Z3UVsW2DJXRU-14" edge="1">
          <mxGeometry relative="1" as="geometry">
            <mxPoint x="594" y="680" as="sourcePoint" />
            <Array as="points">
              <mxPoint x="594" y="662" />
              <mxPoint x="594" y="662" />
            </Array>
          </mxGeometry>
        </mxCell>
        <mxCell id="qeDbLO5Tcm8qtFllbZOF-1" value="" style="sketch=0;outlineConnect=0;fontColor=#232F3E;gradientColor=none;fillColor=#C925D1;strokeColor=none;dashed=0;verticalLabelPosition=bottom;verticalAlign=top;align=center;html=1;fontSize=12;fontStyle=0;aspect=fixed;pointerEvents=1;shape=mxgraph.aws4.rds_instance;" vertex="1" parent="1">
          <mxGeometry x="924.6200000000001" y="583.5" width="50" height="50" as="geometry" />
        </mxCell>
        <mxCell id="qeDbLO5Tcm8qtFllbZOF-4" value="" style="rounded=1;whiteSpace=wrap;html=1;" vertex="1" parent="1">
          <mxGeometry x="390" y="110" width="160" height="60" as="geometry" />
        </mxCell>
        <mxCell id="qeDbLO5Tcm8qtFllbZOF-6" value="" style="rounded=1;whiteSpace=wrap;html=1;" vertex="1" parent="1">
          <mxGeometry x="1280" y="317.5" width="160" height="60" as="geometry" />
        </mxCell>
        <mxCell id="GgVsPn2afHot_6HWTfwj-7" value="meetlyomni.com&lt;br&gt;Producation Account" style="text;html=1;whiteSpace=wrap;strokeColor=none;fillColor=none;align=center;verticalAlign=middle;rounded=0;fontStyle=1;fontSize=14;" parent="1" vertex="1">
          <mxGeometry x="392.5" y="125" width="155" height="30" as="geometry" />
        </mxCell>
        <mxCell id="qeDbLO5Tcm8qtFllbZOF-3" value="uat.meetlyomni.com&lt;br&gt;UAT Account" style="text;html=1;whiteSpace=wrap;strokeColor=none;fillColor=none;align=center;verticalAlign=middle;rounded=0;fontStyle=1;fontSize=14;" vertex="1" parent="1">
          <mxGeometry x="1287.5" y="332.5" width="145" height="30" as="geometry" />
        </mxCell>
        <mxCell id="qeDbLO5Tcm8qtFllbZOF-7" value="" style="shape=image;verticalLabelPosition=bottom;labelBackgroundColor=default;verticalAlign=top;aspect=fixed;imageAspect=0;image=data:image/png,iVBORw0KGgoAAAANSUhEUgAABL4AAAK7CAYAAAD8/0aFAAAAAXNSR0IArs4c6QAAAARnQU1BAACxjwv8YQUAAAAJcEhZcwAADsMAAA7DAcdvqGQAAP+lSURBVHhe7N15XNTV+gfwj6AsgqMooCAquOAC7ruhIGaampqWma1ey5+2eNu7dTOv2c1bWd3rLfNWXkvLXNLrWq4IirihuAAqLqBsyiIyDCAI+PvjOwMzZ74DM8MAM8Pn3WtewTnfWWGYx+f7nOc0uX///n0QERERUb1QZgH5WUBChHRpKApvIDgcCAqXviYiIiKyR02Y+CIiIiJqGMosIDVeutRHEkyT7PILBjoEi7NERERE9qdJ3O9MfBERERFZg7sFQF4GkJdZ9bW5XFoAri0ADx/p+4BB4hFERERE9q/JsilMfBERERHZgjKnu9g8bz48sjoBAFrktcPwPfPEw4iIiIhIzWYTX369AL8gcZSIiIjIfhU1K8BDMxSV33fL64fVv8fpHENEREREVWw28TViJjB8pjhKREREZL8KUAAFqhJf/dAPcWDii4iIiEhOUT7gIA4SERERERERERHZAya+iIiIiIiIiIjILjHxRUREREREREREdomJLyIiIiIiIiIisktMfBERERERERERkV1i4ouIiIiIiIiIiOxSk2VT7t8XB42l8AaCw6Wv/YKBlt7S16nx0v9j1gPKrKrjLWnETGD4THGUiIiIyH4VoAAKKCq/74d+iEOczjFEREREJCnKN7PiS+ENvPiddAlSJ76Orgd2L5cuqfHSMU98LCWoiIiIiIiIiIiI6pvJFV9B4cD4BVKiK2a9OKtL4S0d29Ib2PCBZau/WPFFREREjQ0rvoiIiIiMZ3LFV4dgKZG18YOak16AlOjavRzIz5KuR0REREREREREVF9MSnxpKr00PbyMoUl+dQiWqrQU3lLV2IiZ0hgREREREREREVFdMDrxFRQuJa2MqfQSaZJfQeFSX7ARM6Vm+DM+lr5XqJviExERERERERERWYrRia8OwUBChDhqvNR46XJ0PfD9XGm55Pdzpdt84mPxaCIiIiIiIiIiotoxKfFlyhJHkabqS7tiTJkFxKuTaZrdIYmIiIiIiIiIiCzB6F0d39wqVWnVJvlliGbp48YPxBnDTN/VsQTxMZG4oAQcW/fElCEd4SgeIso4ja3nsnHPoTX6PzgYXR2AC8f2IP6OeKCWJg5o5qKAT4duGNC5NZqJ85UqoMy8jPirt3CzqBjlFephR2e4KVojoEsv9PRsKlzHREWXsS/6Gu62HYBH+nqJs5XK8y7j6PkbyCoqQzmkx6Dw9Megvv5oY3RqVK3iDuLjzuFKbjHuVUivh4ubF7oH9UGgh6k3BhSmJ+D4lQzkFksvkKOjK9p06I5BPdrCTTy4BuY+z7uXorEjuRjevcYitKM4CwDFiD8ajQt32yJkdB/4iNOVypCVdA6x6bkoLKl6Pq18O2NQTz8oqnkMREQ2LWoJuv55P9D9JRzc8AQ6iPMmKkk9hKX/ycWcjx+t9W1ZC2XcBrwR3Qk/vDpMnNJhaFfHkuRj+HntBmw8koSrt1TSpKM7vAICEfbIE3hp5jB0cK66nVopVyHu5yU42OVTvBEiThIRERFZD6N3dazrHlyp8UBL76rm93XDGV09pUCx/M4tJGsSTdW4kp6LewAcPdqiq1GvFID7FbhXfAc3kk5ix/FrKBTnAaAoDTFR+7DnbArSVSWAsxvaeLRCGw83uKEEhXmZiI89iD0Jt3BPvK6x7t3C8RPXcKeG51medQ6/H7+GzKIyODRXoI2HG1zul0B56xIiDp1DZg3X11GRjeOHjuNCdjHuObqilUcrKJyBu6pbOHv8EI5nmXJjQOG149hzPg25xYCLeyu0aekKh4piZKWcwZ5jBl5bA8x/nhVIzisEHFqhvWzSqwzpZ4/jQr7BG1ArxoXjBxF1LRuFpQ5wa1n1fHJTE7DncAIyxasQEZG+jA14/JGF+PlyqThju6I/w4DZKxB5S5wwQoEjVv35UQQ9+i6WbjmNbHTCuGkT8fi0iZg8uA1KUk9j01fvYvSoZ7H0pDohVkuRf5+Ix786hrRycYaIiIjI+lSbzlF4S83nX/zO9N0ca6LZ3REA8rOkXl9+wVK/rxEmVXIZz6Vre3g7SFVJ6ak1JCoqbiA9rwJAU7TroJ/xcPEZgMfHj9O7TBs9FP29pVOq5XlXEXtduJ+ia4g4koD0YsBR4Y+Q0WMwLTQE4UOHInxoCCaMHYtx3VujGSqgTD2DfYnVlZfJK1elIOrwGdy4K84IKjJxND4Td+GANoGjMHXUcIQPDcEjD4agZysH4G4mjp81NgqvwI0z53DjLuDYqhsmjBmFsUOHYlzYGIzr0gqOKMGN+HNIF69mSNElRCfdQTmc0XHAGDwSMhThw0dhang/dHQByu9cRkxSiXgtebV6nmnIUgJQtEGAOFVRiKSTUYjJrPlx5CaeRHxeBeDigxHhYzBhuPr5jAyCjzOA4jTEG/t8iIgaM3tMtpSb+fe/vDlK/88NS6Nuw7nro/hmxz6c3rMC33z4DpZ++A6+XLkGp2N2YdPrw+BVch2r5r2GVanijZjBjnKOREREZP8MJr46BEsJr9R44Iup5u3mKEfhDYxfULW7o+b/qfHSUseY9VJCrEOweE0LcOiI9h4OACqQlZlSbexcnnoLuRUAnL0Q0E6cNczRuRW6DhiKQHfI3E8Jks5fRW454NiyM8aN6A4fZ/FH4ABFwGCMDZAW8hXeuID4mhJYGveUuHI2GtuiLyHLiKD07pUUZJYCUPhjRGfXqgkHNwT380crAPeyb+BKDTlCAMDdq7iUVQZAgcB+nbWWITpA0a0fAhUASrNxRUwEGpB+KQ1KAM3a9sRQb63XqFlbDO3RFs0A3Mm8glztKxlQq+eZkYO8CkDh0V5raWwZ7lw/hz0HonE2t0zncFkVNxCfVgzAFV379UF77fWvzf0wyFd6tQryWfNFRETGc1nWByWJAHq9hO0bXsO4Dk7iIYCjO/o/9ylWzfEByi9j6fJDMDPNRkRERGSTxKxLpeHqZNTu5eKM6RTqZYya6jFllrSj4/dzpUSXwhuY8bGUEFNmSWP5WeKtWEbXDl5S36072UiSS3QAAEpwIf02ygG4eXespmeTIa7o1FqdYClWofKp3LmCK3kVAFzRsWe3antUuXXvAh8nB7g0B+4ZWfSVmXgacZmFKIcDFD5BGORTfTOPG3lKAICiTUe4iJMuHeHtrq6OSxMnZWTexh0AcG+Nrno35oyubdwAVCA3y5gbu43M/DIATeHZtq04CbRrC89mAIpzcUN6CtWqzfPMzFbiHlzhrf1aZifi8IVMKMsBR3cfDAry0b9dbWnqJGorP/RpJU4CLt1DpGrBwf7iFBGRXUv96QV07ReKN6IAZdz/8MazExHULxRd+4ViwKOvY2nEbZ3jIz8IRddHViARAC6twOh+oejabwkitQ8qycSeZa9jXNhYdO0Xiq4DJ2L4s0vwc5zMMr/UDZjcLxRdPziE7Ih/YvJIzX1/hj05pj8+bdLxj2LAQOn4oLBn8cyyQ0jVyTplYtUToVL/MwDY+a70mJ/YgBoLs275os2vTgDK8d6nT6BLDY1Le814AsNbdMLwpgW4Kk6WZCLypyV4fELV85N93dSv1ws7pW+3/1k6dvJPuiduSlIPYem8ZzFgqPq2Rj6Kxz/4H+J04pnb2PRiKLr2m4i/xWmPA8BlfDlBuu4zW8TXWP2a9ZuJLxOrRktSj2HVBy8hTPNzN3S/5afxt5Hq61/SGtdS8sdC6Wf8yWlxioiIiGyQbOJLU3FlSrN5QzQJr6BwaTmjpnpMqc4GJURI9/P9XGlshnqpY3Bd7fLYrr20tAx3kHbFwDnPuzeQqQQAN7TvIpOpMEJpZbf6KpnXs6W+VM290LXGm/VBSPhYPDJqOPobW3Hm4ACX1v4YGjIG4/r6VZ+MQTbyigDAGa085BJkzvBo3lRqwp+XLU7qyVQWAwBcWrSWvV+XFs3RDEC56o4RvazuQHkXAJqjlexzb40WzgBQjLwccU5Um+epxM38EsC5FdpV9REG4AhHl9YI7BuCKSF9ECD3hLVk5hWiHGLVGBERaVzZ+C7Gzf4n9uQFYty0iZg8zAclyaex6o1HMfnnqk8N7wET8fjYblJr9xbd1L2sBqCyPWjBMbwxcSZe/vk00qCeD/VBScJ+/G32o3j85+uVt6Xj2FeY/Mb/kN3jQTz+8AAonFqjg2fVtLGPT+PqTy9gwOx/YntCKbwGP4jHpz2IAS0ycfTnhRg9+TNEFmiOdEaXMRPx+DD1KbYOA/D4tIl4fEwn2c9SbU13t5OOGVyKycZ0+G/7KNYeXoO1Syeil/Z4wTG8N3kmXvhqPxKLOiFs2kQ8Pu1BDPctRfa5/fjb7GfwRpQ6+eXaCeOnTcRw9f35DZN6iY3vUvX5qoxagrBHFmLVsUyg+yg8Pm0ixnUoRdzOf+LxcS9hVbLmyNYYMKwTABVOnxNew4zTiMyQvjx6Okl3Luc0Ii8BaDEMo9VPRBn1GcKmvoulOy9D2XGY9Bo+PAB+pbel+31sSdVr7jgAUya5A8jE9gOXtW9ZrRSREYcAuGPywwPESSIiIrJBsokvqBvO15Zm58Xdy6uquzTjL34n7RQ5foGUZNNUen0/V0qGDZ9ZR8sd4YWu3lI11p2cG5BbRXj3+i2peknRFt1rijxl3UF6npRUc3Rvpa4Yq0BukTTWzL0Vasx7mcGn9yg8MqQ7Orob/LFqKUChOu/naGDzyGaOUprm7t2a28jfKVbfmIOB1E6zplLSp6QYlfG+IdkqdeN6BzjJPhVnOKkfc2GheCZYVIvneTcTWUVAs5ZeulV/XkGYEDYYfX3cjEpkaV6bZk7OuJdzGdGHDmDL7j3YtHsPtkQcQnTSbfM3MSAisgOJR47B69U1OL3jK3z54Tv4cuV6HP3yQSgAJP5nAzQFQb2mvYOlC8bCDwB8x+IvH76DpR9qEjmZWPV/72J7DtBrzgocjVT3uvryB5z+fSHGeZYibtlrMtVFAHJuw3nODzj6/UIsXfoVIje8oJMcMvbxAUBJ9Gd4+qvLgOcofPn7LuxZuRBLP1yItTv+h01zugG3duGFN3ZBOtXSGmFz38HSJ4OkK/d9Aks/fAdL5w6D4b2YAcABLmfdpa+GlddwbPXiVnyKTbcAr0mfVr1mHy7E2h27sOelbgBuY/uKXVIFmucwvPThO5jTV7rugCelXmIvhbSWBlI34Ok39iPbsRteWvM/nF6zBEs/fAffrNuFo0tHwaskAUtf/Cfi1D0gugwYIL2G0afVr4ek5Gy8VNUHAKe1vgaAhNM4CgChw9AfAMoT8OWSXcgub43J/6q6z6VLv0LkoTV4ozuAnP34cktVcq3/Q2OhAJD2R5TubQNA0TFsjwDQYiym9BcniYiIyBbJphVaeldVZNVWaryUyNIsd3xzq1T9pUmsaaq8NL2+NAmwutSmg5e0zFCZgyt6mS8lLtwqBOAA7/ZdajzjqqsMhbczcfb4KVwpgtAYPxeF6vtycqlukWN9c4WbOl4VeTdXn8G9r1+9ZoiboRtr41r5WlbXW02HsytaiGNqrVzVj63C2Fsz/XmWZ9yBEg7w8DR9sWuV2+qfuzOclMexI/YaMu86ws2jFdq4OwOlxci8Vs0OoEREjUGHZ/CPOZ2gXZerCJ+GyS0AFMTjdI3r/gCc3IBvEgF0fwnfvBokVYVptH0QS98cBeA2fl4n1+OqG56Z2k0crGL047uNTat2IRvumLxwISbrrNZ3R/+X3sVLHQCcXIu1BpbZGccFzW5IXzl2Nf4zWt9lHD3rDIVzEF5+dZjuawYndJn2KIYDwKUk/eWRMo6uXYPEcqDXgiV4o4+UmNPwevhdvBcOIOd/+CFC3Yi0zzCEOQI4fRoJWh/niedOAwhC//4AMhKQoFXdHXfsGABg3APqaqxLp3HayR3O/Z/Fe6G69wnnTnj8Cem4xMta1X79J+JpXwCpx3BU+N0qObIPe8oBvxkTpcQaERER2TzZxBfUfbksSbPc8ahWVRegW+UVFC4lweqcojM6KgBAifTrQvh7JxWZRQAcWqF9B4MvD+5mnsYmddVO1eUAfj9xDkl5UsNzF58+GCqzVM/FRTe0tFaOjoafv8kcHI2qjmoIhp5ncq4SgALefuKMKcpRfh8ASpCZeQcObXpiwkNhGDd0KMJDwjAlpDPaOALleZcRfUlaLkpE1OgMDtZdfgcAaI0OvuKYYXER+6AE0OWhYZBb+acYPExK4kQckyqGtDkGoovclTSMfXw5R7EnDgCGYVyIXKP5bhgdIi2zizypv0TSeC5wuiKOmaMbXlq3HqePr8DTMi014dnGhGqyBOz5QwWgE8aPkjth5I7hIVISas9Rde8sxwEICwVQfgyR5zTHXcfRkyqg63C8PKYbgNM4Wjl3GQejVAAGIGyw+vXt9Qy2/74LCasflX2sXm3kznp1w/iHfQBcxrYI7Z9DKSL3HgLgg8ljqkmEEhERkU2R/Rd/arxU9WVpG9S7Noo0VV5yc3XDGT3bSYsNldkpOssdc9NzUQigmVdHdJV9dWrg2BRu7m0R2DcEE/p6ySZ7al6eZx3KZfqUma2i3PhKr3om/zwzcVNZAbi3QoA5vwdynLwwYGBHnU0NHN27YUQnKRGqvJUiLbElImpkenXqJA6Z6DauXJH6UJWc3ID3PvpM/7Jiv7RcrzwJV8UKsq6d0EUY0mb040u9jAQAaHEd2/8u8xg++gw/nJUOTbxooN+YUUpxT0y6CSI/UDd4l7m8ESUeLSm5cxtXTx7Cnp0bsPS91zEubCG2iwcZkpOCqwUAUIqja/Wf93sffYYv96qTTAnX1c37ndTJMK0+XznxOHoFUAwegLCgYCgARJ5MkOZS1b2/ug7AAK0ebJXKS6HMuY6j+w5h+08r8Ma8ZzHgHfXGAYJeDz0IPwCJvx+q2khAs8yxw4MYr5/pJCIiIhsl+096zY6KI2aKM/bD0d8H3g4AVNm4VJn5ysaVrGIATeHtI3fqs4qLzwA8Pn6c/mXsGEwI6SfT/8kLCvVGj+X39BdZNJxiGMrDZal7kqGJ7K+JLINJvdziygSjXDJQVjX9wGrsKabHxOeZnY28e4Bb6xp2bKyRAi7NpK+atfJBR5mX0qVja2l5SZHSiMb/RESkrwRK9S6/acd2YdMWuctpyGzea1nKAigBoOAy9ujdv3TZkyizu6TJSlHWXvqqPFXmg8UU5SpErngdYUNDERT2KMa9uBAvf7ACq/6IR3ZHH6mfmjGKVcgHAGTiqMzz3rRlFzYd0/+U8xo8DL20+3xdTMBRAMP7dAP6DEAYAOXpeKQCyD55DImQkmI6ico7x/DlvJkIGjgWAx58Fs+8vRBvfLUB2+Ny0aWDXPUZgO6h0qYAl/ZhrzrzVbnM8eFQmQo/IiIislWy0ZIyS2pIr9nd0S45dESAZ1MAhUi/po6Wb6YjswSAazt0l1miWFs+6szXPdUdoyp7rpw6gC1R0YhOEncbtIQWcFM3KymXVmbquVcu1Wi5GNGTrMaeW/fKpIqvavp2VfJyV1dFVaBUrhgLJShVP2aDPcUqmfc872TfwV04o41XbZelOsNVnfhyNNRd36UZ1IcQEZG51OdBJv8rClfOVHf5AXOqW9ZYG47qD5zuL+Gg3v0Kl4+Hidc2QSlK+kunkypOO8r0LAPCPhbvcz3e6y4epULkomfwwnenkQYfDJ/2Er78/Cvs2b8LCaf24fSal2D0voaV56EexA/icxUvG56oWo7aYQDCfKv6fCXGnQbQDQOCnQDHYAwfDOBSPOKKgITT0hLJsGHqzQCg3snzsXex4limtCvm6wvxzfdrcDRyH64c34VNr2odq6NquePuo7e5zJGIiMiOySa+oNWUfsbH0s6LmiSYMRdb0dG3DZoBKMxJxx0A6Zm5uAfAzasD2ogHW0ArP3VT/aJsXKkp81VxA+m5ZSgvLkSx0G7WMrzg0RwASnBHvQOlrhLkFUmZIjeFXNcMXZqk3t2C2/I7ZRYUSTsXNlfo7pAoqxUULgBQhDs3xTkAuI2CEgBwhqLG7THNeZ4luH67GGimgE/NT71G3i3Ur03RHfnlnsoS06vhiIhIiw+69JC+upKiX1VUbzp3kiqFriThquwffMspmZ4mfXZEOGHTLXHWSKm78OXO24DjKHy5fz3WfvgEJo8dgC6e7nB2BJBxHUa3EvPthCBHALiuv5S0Wt0wOtRd3ecrE0ePZgItgjGgAwC0RlAfHwCncfpSAiKjAGAUwgZXXTt1yw/YngMgfCGO7vgKS597EOMGd4JXK6kHWGqq4SWlvR55FL0AxO07iuzy09gTAaD7o3hcL0FIREREtsxg4gtajeeBqsbzxlws3Ri/zrRrDx9nKRGVrMxE8u0yAAp07FwXiSYAiu4IbOMAoBg3LlyuZhe/CmSev4asCgCOrRHQVXsfKcvp6KHuLZV7Qz9ZVZSCmyoAaAUfY1qb+LRGKwBQ3ZbZKbMYl7KlZ9vGS7PLZXVaw6dlUwBlyLmlH82XZ2Qi5x4A59ZoX1PBlznPsyIduSrAUeEJYx5tTVr5tpESnvm3EF8kzgKFmVJfOShaW+T+iIgao+HDRwEAEn/bhUS5pNOlHxA2cCKGP/pPRMqdB7EE3wEI6wCgfD827ZVb0liKPW+HIihsJp75tZYJurYZyH2yFIAj/vb6BvMSbdeSkAgAXYPRX6YcW3k2Xpo3ygCEhQPAZazdelmcBAAkrpiJriMfxbhPj+lUqfUfNgyACkcj/4fTiQBCBlTuqNirv9QD7OgPaxBZAGDwMAxvXnXdq5el++rVV9jJEwCgQtxp+ccCAOgwClO6Azh5DEejjyGyHOg1YZTs5ghERERku6pNfEFr2ePGD4Avphp3Uap7hFk/L3T1dgVQjKxLaVIypVVb9KxdU6dqOKBrUBdpF7/8a9gTnYAbJeJavjKkJ8TgaGYJAAe06RJsXpN9I7h0bQ9vRwDKFMRcLqyqRqooRPy5G1ACaObdEYHG3L9LFwS0cQCgRNKZy1BWPq0KKC+fw1WV1Ny9q78xNwa0D/CFG4B7ty7g+E2tNYr3biE2KRv3ACh8uxlRPWbG80zLxR0ArdoY3dmkeq26oquHA4BCXD1zCblaP/LyvEuIuVEIwAHefl1q2U+MiKgR8PVBVwDIyESO1rBz+LN4qQOA1LV4fdkxKLUTQSXXsWLxWqSVq4BhYxFWN+eTAHTDCy9JCbg9XyzBz1dKdWaVEZ/ib/uAkgIfTA7X+gTr6C/1rLqVK/W5MtLdt87BuReAxBUY99hn2JOse38aJTmXsemTd/HlJWGinbqH16V92JGsO1VyZS2e/uCQ7qBahwDpTFF2rnbzTCeMm/0M/ACk/bgEf4vWTfyVXFmLv6zKBAqA4Q8Ng86PYPBwjANw9ecN2ANg+GCt5QMDBkhzR44hDUCvkAE6uzd6+0qvY+Lv+4XkXymurnoNb6h3EZfng8nTgwAcwpfLjkGJIMwYb0xkQURERLbEuCxEA9E02a9Lbbq0hQKAMvc27sEB3j7+dbvcrHlnhA7vDm8noFyVhuMH92FLVDQijh9HxNFD2Lr3AGJSC1EOB7QKGIzQzuqO+HXBoSNC+vrABRXIvRqNbZHRiDgejR37o3HhTgXg4oOh/XyE1yMbxw/uwabdexBxTXvcAV0H9kNHF6D8zjXs2R+JPcePY0/kAey5egflcEbH4H56zd0zz0Zi0+492HRM58aAVj0RGtgKjijBjTMHsPXQUen1iTiDG3cBx1bdENJdeG2uHZdu6+A53SbxJj7PGzlKlMMNbXwt9fZwRuDgfghwBcqVKYjYdwC/Hz2OiOhIbDuegjvlgItPP4SILw4REelz9IFfBwAF/8NLLy7Bex/tkqqSHLvhjeXvIMwTuPrruxgQ9gJe/ugzvPfe6wgb9Sy+TATQ6yX8/Jahnk+WoXj4Xax9shOQcwx/e2wiwuYtwXsffYaXZ03EgDf2IxutMfnLJXhcew+dtp3Q1RHAyX/i6Tc+w3vfHTMuAeZYBKe1BfhmRic4J+/Cy4+ORVDYs3jmPfVOim+8hLCwsQh68AW8t/E6Spw7YfL7K/C3EPX1u8/Ee2OdAFzGl49NxOQ3PsN7Hy3BM49ORNBjPyB72KOY3BV6yxf9OkqJr6OfvoaXP/oMK6LVCbBeL2DVh8PgVX4dP78yEQNmLcR7H32GN+bNxIDHfkBiOdDr9X/ib5pyLo3mA6Tli+UA4IP+PbTKuZsHYUDl0kMfhA3WTUz1euYljHOWKvrGaf3Mx40ci3H/zkXYkw9KScXLmp0kdXmFjkV/AGmpmUD/sRhX/d5GREREZIPq9F/aqfFAS61lj9pfG6LMquelki7+aK+pjW/WBgGd6vQlAQA4uvsjNCwMIZ3bQuHaFLhbiNy8O8jNL0ZFE2e4efljaMgYjO3eqm6TcAAcvftg/KDO8GmueRyFuNvEGYq23RE+qg98THk5HLww9IHB6OnlimYogTLvDpQlgIt7W/QdOgpDvU25McCt82A8GOSHNq4OuFeklF4fB1d4+/fDuGGd1Q3wjWP888xGZn4Z0LwNOlmy/MrBC4NGhmBQh1Zwc6hAYf4d5KpKANdWCAgKwYS+XnX+syYisg/d8MLfX8K4Dk7IPrkfm7b8D0cz1FMBE/HDrvX45ukB6OJ4XdpZ8Y/TULYKwuT3V+D02ifQpc7/2Lpj+LtrcHr1a5jcxx3Kk/ul3RyvAl2GPYFvdmzAl6HuuldpPgp/+/xR9GpRiqsRu7DpP4eQoHuEYY73Me79NTi9/wcsnTsKvZrn4vQf6l0UIy5D2dwHwx9+Bn/7fg0SYtbgyxlBUFS+Bu4Y948N0uvVXIXEiF3YtO0YrrQYhve+Xo/Ib17DM4PdtRrAS5zDX8c3M7pBUSa9xl9GJFXOdZn2KSJ3LMGcYZ2Aq4ewacsubD9ZAEWfB/G31buw/Tm5/gmtMWCYetxxAAbobKnogwED1K9Xi2EYLW632GIUvtku3Z+iSL2bZnQKFKEv4YcdG/DDu9MwvAWAS1GI0u+eALQNxRR1Iq7/w6E61WRERERkH5osm3L/vjhoKR2Cpcb438+Ven9plk1q5mZ8LC2N1JjxsdRQH5Cupz0nGjETGD5THCUiIiKyXwUogEKrm1U/9EMc4nSOIVPcxqYXH8V7Jwdg6f6v8LinOE9ERES2rCi/Hiq+8rOkJNfR9dL/DVVzaXaNTI2X/q9JgBERERER1YlbUdh4EsDYRzGZSS8iIiK7VKeJL0BKYI1fICW0EiKAJz6WklwaCm+pemv8AqmBfktvaZ6JLyIiIiKyuJJSaVfJkkxsWrYGcXDH0zNG6TbcJyIiIrtR54mv1Hjp/+MXADHrqxJhMz6Wxl/8Tkp0bfxAOnb4TOkYzfWIiIiIiCwmYwMm9wtF16Ez8d6+20CvZzFnsHgQERER2Ys67fGlofCWElyp8VKPL00D+5beVQkuTc8vZZbUE6wmxvb4enHTeWSpSnTGFM5NsXZWP50xADidno/Fey+Lw5jZzxdP9vcVh/H3A1dw4sYdcRg/zuwLD9dmOmO5haX408ZzOmMAMLyTB/4S3kUcxs+n0rHpnM7ehACAj8YFoq9vVW8PjVm/xKGwVGcfb/i0cMbKx3rrjAHA4eTbWBYp7KIIYM6QDpgcpL+d0ft/XELCzQJxGNtmDxKHcCOvGK9u1W/J+2A3T7wa4i8O4z9Hb+D3i/rbd37xSE909dRvXz9ldaw4hK6ebvjikZ7iMHZfysa3MdfFYSwI8ceYbvrrGf68LQEpt4t1xpwcHbDp2QE6YwCQeEuF936/KA5jSlBb/GlIB3EYX0ZdQ9Q17W3fJSun94aPQvccc2FpOWb9ot+vpa+vAh+NCxSHsfncTaw5lSYO473wLhjWyUMcxgsbzyG7UHfLew/XZvhxZl+dMQA4mZqPj/frvydm9W+PJ/rpb/m+ZN9lxKbli8NY+2Q/KFya6oxlqUrw4qbzOmMAMMLfA++O1n9PrIlNw+bzN8VhfDy+O3r7tBCH8eTPcSi6p/ue8Gvpgm+mBeuMAUDk1Vx8dShZHMaLQztiUi/99dl/2XURF7JU4rDseyL5dhFe25YoDmNsoCdeeUD/PfFtzHXsvqS/n9tXk3uhc5vm4rDse6K7lxs+m6T/nth1IQvfHbshDuO1UQEY3aWNOIxX/5eAG3d03xMuTR2w4Rn990T8zQL89Y9L4jCmBrfD7MF+4jCWRV7D4WT998R3j/VG2xa67wlVSRmeWndGZwwABrRviUUPdROHsfFsJn45nS4O44MHu2Jwh1biMGZvOIvbRfd0xto0d8J/n+ijMwYAx2/cwScHrojDeGpAe8zoq/+eWLz3Mk6n678nfpnVD+7Ouu+JWwUlmPub/ntiZEBrvBXWWRzG6pNp2Bqv/55YOqE7erXVf0/MWHsaJWUVOmMdPVzx76l1u8shWRZ7fFlAxv/wzBP/xNECJ/iFv4CvFj+B/vpvGYtinKb/mcQ4jXEa4zRdjNMYpxkbp0VcycG/DqeIw5g7rCMm9tR/T7yz8wIuZReKw7LviWu5RXh9u/57Ynx3L8wfob9BzddHUrAvKUccxvKpQejk4SoOy74nerV1x9IJPcRhi6nzHl8ammRWWry01PHF76TElSbZ9eJ30v+Prjcu6WWKU2l3EJOSp3M5nqqfrAKAO8X39I6NScnT+4OicfGWSu/YmJQ83CvX/YUFgJLyCr3jYlLycEnmjzIAXL9TrHdsTEoe7twtEw8F1G9y8dhTMm9iAMhRleodG5OShwzlXfFQAEB8ZoHesTEpeXpvTAAovFeud1xMSh6u5Oq/0QDg2u0ivWNjUvKgEoJDDfG4mJQ8nM1QiocBAG4qS/SOjUnJQ5ZKN5jQOJOu1Ds28mqueBgAoKCkTO/YmJQ8pOTJ/64kZRfqHRuTkoe7ZfrPs6zivt5xMSl5skEtAKTly/+u5AofEBqn0vL1jj1h4D2RVyz/u5KWL/88Ew28J8oq9PPrd8vk3xMXDb0n8uSfZ/5d+ecp9544nS7/u5Jt4D1xs0A3aa5xzsB7Qk5hqYH3RE6ReCgA4Gqu/HtC/AeThnhcTEoezmXK/65kGnhPZBt4T8Sl6/+uHJNJ9gNA/l0D74nb8s/zkoH3hNzfFYPviVvyzzPNwN9PMWjSiE3Vf56xafLPM7dQ/nclzcDnRMIt+d8VufdEiYH3hFygAgApBv5+Kg18Thy7rv+eOCPznjiSkocpq2Nl/0FKZBd8H8Xaw1G4cmYfIr+s+6QXDHwmMU6T/0xinKb/mcQ4Tf55Mk7T/11hnCb/u2JPcRoA3CqQf56Zyrp7T1zNlf9duZIj/zxr+57Ym5SNKatjsSZW/8SBOeql4kubpsG95v9p6gb4qfFSgsxYxlZ8xabl671Bmzk0wZCO+tnkvOJ7SLyl/8e8QysXdGyln628kKWSfYM+4K9/9gbqf0yI2jRvhh7ewrbm6jNyqfn6AU5QW3e0EqrJoP7wEN+gLk0dMNCvpc4YAOQUlsq+QQNau8JX4SIOI/5mAfJl3qByz7OotBxxMgFOW3cn2TOD13KLkCnzodXXp4Velh0GXkN3J0fZKribBSWyb9Buns3h7a7fyeNMhlLvDerQRKrKEynvluG8TIDTXuEC/9b6vytJ2YV6Z+8AYGD7lnBppp9/lnuerVyaIqidfnSeln8X12UCuZ7e7mjdXP93Re494eTYRPYMy+2ie7JnzDq2ckWHVvq/K4m3VMgrNu49UVJWIXvW0dB74npeMdJk3hPB7VqgpXCWEgbeE67NHDCgvf57IltViqQc/fdE59bN9c70AsD5zAIoS4x7TxSWluOMCe+Jq7lFsoFcP18F3JwcxWHZ35UWzo7o46P/nshUluCaTIAT6OkGL3cncRhx6Uq9s7GOTSB7hjr/bhniTXhPXMouRI7Me2KQX0s4NzXuPeHh2lT2jFnqnbuyJywMvSdOpuajVDhh4eTogMEd9H9XTH9PFCCv2LjfFUPvCU83J3T30v9dSbldjHSZfwj3btdC78w9ABy7nody4RO/eTNH9G+v+7uyPeEW5mw8h+cG+WGZTJUGNSxWfNkmuc8kxmmM0+Q+kxin6b8nGKcxTmOcpitLVYLLMslZQ++Jc5lKFJToJ6Lknqeh90S7Fs7oIlPVeCWnELdkkrP9fRVobuR7QuHcVK8ydO2pdLyxPRELQvyxcKx+5aApivIbIPFlKcYkvkb8OwaXcwqR8PYo2Q9QIiIi0rU1/iZe3HSeiS8rxcSX7Qn6PApZqlKkLRwj+w9GIiIi0vVTbBre2nHBYokvfvoSEREREREREZFdYuKLiIiIiIiIiIjsEhNfRERERERERERkl5j4IiIiokpTg9she/FY9vciIiIiogbx3CA/ZC8eW+v+XhpMfBERERERERERkV2y610diYiIiOwJd3UkIiIiMl5RPtDkuxdtM/EVHM7EFxERETUuTHwRERERGa8oH2hy/75tJr6IiIiIGhsmvoiIiIiMV5TPHl9ERESkJbewFEdS8nA1t0icIiIiIiKqc7cKSnAkJQ/X84rFKbMw8UVERESVDiffxtTVsfg25ro4RURERERU53ZfysbU1bFYE5smTpnFrhNfcelKHEnJE4eJiIjIAIcmTcQhIqqFk6n5jEeJiIhMYOl41K4TXy9vicfU1bHIUpWIU0RERCSjgq0/iSzq+fVnMHV1LErKKsQpIiIikmHpeNSuE19ERERERERERNR4MfFFRERERERERER2qcn9+xauIbMiD3wdg6TsQiS8PQre7s7iNFE1svDJF2fxlRKAwhtH3uyLQPGQepOMeYuuYDNa4tfFQ/CgenT/un148hIw/bGxWNlbuIoJzLkduevIjd3YH4WBh0sROLI/jjzoWXn9kpwreHdvKd6Y1QsdK0ctRfN6Gal7V2TPChBHbdvN83jg25vobcLPlEjjYpYK2xNuoV97BR4K9BKnqYEVoAAKKCq/74d+iEOczjFkXYKXHcKtghKkLRwD56Y850ymYDxqmPGPh/FofSnDjVPn8dqh2zh8R72028kBvQN88OnkHhjszr9/ZLyzGUrsuZSNoZ08ENq5tThtkqJ8O6/4st+UHtW5y6lYoVTXRCpv4zfLbCZBAJCTiIf/nYxfssvFGbIE1RXMW30TSeI4kZF6eLvjndFdmPQishA7PsdMdY3xaN1hPGpZFTn45fsoDNyeg8MqoHdASzwV1AIjnSpw/lI6JnwVgxU32eeQjNfXV4F3RnepddJLw64TX3OGdsDbYZ3h5tRUnCKqRgUOn72DEjTFnN4tAJRhxbFU8aB6FICVi8ciW+tsVkN7cNZYZC+u+YxcxwdDkb14rM7ZNVSUo263m9C8XoYvVx5riZYAAAdM791OvAGbVZKWiGn/Tsbmu+IMERE1lJcf8MfbYZ1Z7UUmYjxaPeMfD+PRupd19CJeS6sAPD3x+5tjEPH8EPxzxjBseXs0jjzgBJQVY9Ev53lilhqMXX8CzxnSAe+M7gI3J0dxisiwiuv4JaECcHDDg+M9MckBKElIZzLBXtw8j0e35CMfQO+RfbGyt6t4hO0pzcHOjVHw+z4dh+/a+192IiLb8tKITnhndBdxmKh6jEftm13Fozn4LbYYQFO8NKkvBjfXnmuKwId64nUFAGUO/ntZe46o/vCfR0SCkrhb2FwBIKA1RjbvgEkBACoK8MupAvFQJP1+EF6L9iFo501xSlKRjHmL98FrUYxuoFJ2G/v3n0D45wfgtWifdFl8AEHfnMCqy4VaB0LdI2AfvBadwH5hRlZFIc4fj8O0rw7Ab7H6thftQ9evorHo1O1qzm6V4capUwhfqr7OkgMIX5eIkyr9suT966Rj5p0XZ3Td2B8Fr0X78MD+HEBzvW/Uy/Bu38RAzfOqSMVf/r4PXosO4hMDZfwlJ2PgtWgf/H6rxdnOomTMW30T5ysABHTC/7TP/FUqw43z5zHvG62fzdIoTNt6BTfKxGM1r0UUVmSV4capOEz7oup6Xb85gVXJxeJVJBWFOBl1AuGfah1f489I3v7f4jA7oRRo6oSnJg/E6m7iEURERGRLbD4eNem2tRkbjxr/eOw/HlW/Fv86jxtlt7FzazQG/l14/YrE66hZJB4txK1SBwBuGBkgl17wxhAfAKjAHSZuqYHI/WYSNWIF+C1WCigmBXWAM5wxvb9UhHz4XCqyhKMD+7RGRwBZFzIhmwNKyJaCli7emOSiHitKxmtfnMKTh/NxvswZDwap18A3r0BWVj7+8vMxzDtvIFlSk4ocrPg2BuG/5+BwkQOGdGmJp4Ja4kFPB+TfKcaK7afwsPpDX3Ry72EM3H4bSe5u0uNxsfya/LYBLfFUFyc4A4CTEyYFtcRTQQq0deiA6T0dAJRh8znxVQaAEuy8UAjAAU/37SBOGikfv6y9IgV8Li3x64xAdXm5tmLsXx+Fgb/dxOYcTX8CN/SuKMXhuGQM/OIE9ssGDhXYv+0wBm7PwQkn16rXPCsff/kxBq8lCKFDRQ5WfBODCRH5OF/mgJHdWuKpbq5wVkk/owHrk5Gve43qNW2KSUO74tR7ofjnwNbQ/KoRERGRLbLxeLQWt814FObHo6X5eO1fpzD7bAlatldfx0H9+v3rBPaLSSeLxaOdsPjtMdUsO81BUrb0lQuzD9RA+KtHpO1OKn7JAODUGn/qr94JNMgHc5wA3LyFH8SzP37tMac1ANUd7LghzKEC+89LHxdS0CKNndx9Db8UAS27d8WV90Lw6wytNfBDnQBUYHPEFejdnBGyjl7EoiwAnu1w5L3R2PL0EPxzxhD8+upoXJncAs4Azh+5hv0yccMNZRl6j+yPtFdHqB9PCH4frF6Tvy1JL8gyR+/hQ/DP8a3RCQDcW2PxjCH454we6A1gcO9WcAZw40Km/vr/u6nYmQzAqRWmm1XNVIGk/WfwWgYABycsnj0ID+qUYUtuRJzAkxcqAJeWWP3maHV/ghGIeG8Efu3dFCjKx5OrEmV+NmU4nFaB6VNHqF8/6TU/8oD08/wlOlnr9SvB/o1nsSgHaNmlExI0P6enQ5DwZi+87glkXbiC2UeMCzUA4MEZo7F6QgA6sp0hWcCRlDxMWR2Lb2Oui1NERFQfbDoerd1tMx6tRTyqKsbhUvE6/fF+awB387FCp1rQ8vGoQZev48vbABxaYCRXfZOR9iZlY8rqWKyJFf/gmYeJLyItN2KzcRKAc3dvjNS8OxzaY2J36eyPflNRTzzWzxVAGX45J5SXV1zHb5elP/KTgtRBC7IQne6Alk1d8d6EAOEMT1MEhrTFSAC4Xaz/YVujQhxOvgdvJwfMeSgIgTrvbge0HNgeTzsBqChGklzRl16ptSsGT+gurcnPyNQPsiytW3u85A5AeQf7haimJCEHOysA777tMVh3yij552Mx4XCp1Dx08hC81E7uT18qVhwtBdAUrz81CJO0t1x2cMOD09T9CXIyseKSTOawSyf8q7+b1oADAoepf54ZSpzTDN+5ii8vVABOLbFyRiC8tR9K8/Z4f4onOgI4fCzFjN8BotrLVpUgJiUPV3PlTicTEVFds+14tJa3zXi0VvHopIf6CtfxxFODpP5hh69r/QOgvuLRomTM++028gF0HOiP6VyWQEbKVErx6PU8+epQU8m92+zGq/9LwJTVscgrvidOEcnIws9npQ8j3fJlB4wc0hrekG8q6t23NQYDyLp0S/eDQVNW3q2t1h/5dnj91dG4sjAEc1ppH6ymcIa3OGY0N0x/ejQS/joG/+gu99Z2RUd3cazKg0Gd9EutHdrhke5NAZRhf9JtcdbC2uGRnk0BlOKXc9qZuRLsTCgA0BRP9TFjx5uiJMxTNw9t2b0zPu1voHnojRzsKAXg3gqPdJR5/Rza4bHe0lnKnxPSxVn09mutPouqRebnmZVwGycBoFNrPCj34d/RE2Od1AGXXIKSqI45NGkiDhFRLczecBZTVseKw0QG2Ho8WrvbZjxam3jUCYM76UWj8FY4iUP1E4+WZeGrVeplnZ7t8OsEM143arQsHY/KvJvsx6m0fMSk5OFeuX42nEjPjXT8opRKnp8Sy5c7tsdTCgAVBdgp9mtq1R7T2wFQ3sZvlWehKnD4klROPL13J+2jtVSgRFWApEtXsPP4eSz6ORoPLL2CzeJhZiopKsCN5OvYGZeITzbGIPzTs1hkMFZoit5t9T8oAaCtRzMAwPmbFih1rkHvflKPiqSEzKrybU1ZuaI1Huuoe3yNKnKwYtV1aWmnZzv8PlM886gl/55UPu/TAr3FObVAHylIKVEW6zX8DPRqLYzIu35LuqZzXg5e23hC5pKOEwCAUpzLFK5MVA8q7t8Xh4ioFk7cuIOYlDyUlDEeJSPYVTxq6m0zHq1dPOqKQLk++TLqPB4tSscn357FJzkAPD3x+5zewmoUoupZOh7lrx8RIAUGJ25LHzSqHIRrdk+pvJzFV0rpyJ0nrgr9BVrikT5Sefmui+pTIhXp2HWpAnBqjaeChLdZRSH2/x6NoCUH4Pf5MTywLhmzf7+JFZeLcUvhBFM/S3WVIenoCYT/fR/8Pj2GgT8mYfbWdHyVUIikpk3RUf+Ej5oDWsmd7TFwlqjO+PlgugLA7dvYqX6RNWXlHXv6IFA8vlrF2L9e6l0Al5b41dgPXAdHcURffgluiWNGyr8r/cOnJKcAvyTky1wKcL5UvBYRERHZPzuJR82+bcajlWw5Hr2dhNn/TsRXOeq+w/P7Y7BMLzOi+mTM247I/mkCAwAt3ZvCW/aifrvINBX17u2Jkdpnhi5n4edSoTcDoP7wO4YnjxcjC00xMqgdVk7tgSNvjkDaorG48nJHs3oGSCqQtP8IHtgt7czSO8Ab/5gaiIhXh+HKwrFIezMIc6pZ6lhi4ER0llL9qedQH38uvPGYurx854V8nbLy6X2qK4zXlx93Fs9fqgDggKcm95VtHiqrolwc0dfGtZqgrQbqlzFwZH9kLx5b7WWloVN9REREZH/sIh6t3W0zHlWz0Xi0JO08JnxzHTuL1E3zX+6NQG6+RFagPv5yNBgHyy4LJTtWEpeOVaUAFN74/e3RSJC9DMI/2kG+qagiAE8FaM4MVeDw+TsogQOe7t1e97isK1h0qQJwcMPKN0djy4zemN6/AwIVbnB2AJBjoNGnMSqu48sj6maYs0cj4vm+mNO/E3p7tkDLpgBQiKQ74pU0SnEpUz7S0JRC9/ZuIU7VicBBnggEcPJiJrIqMrAvGUBrTzztJx5ZjZvn8ej2ApQA6D2yL/5Z2cy1Gi2bST0nMgvktwIHkJQpNVd0bm7E7RkQ6C2dsUzK0t5Zh8h6jAxoja2zB2H+CEPLYojIFJbuU0L2yy7i0VrdNuNRm45Hb57Hw6tu4mQZ0LFvD5x6VmiaT2SC8d29sHX2IDw7yJQ3nWF2/atYYdlloWS3NGdxgMC+7aspX26JpwdJu/aVXMrCYZ3PZWdMCnIDUIr9l6+py8pbYbrYZP6W+sO+VQvZkt/85DsGP+RqlKPC+QoAcMMQuWaYN24Lj1nXzgvX9fpWoSIVmy9UAGiKBwON62FVa94+eKo1gIzbOJxwGzsrgMAgH+PPaBUlY97qmzhfIW2jrbszUDU6euIRJ81W4DIvVMVN/Kau+Z7UTQggTdAxsJX0XC5nYrPcpnl3r2D24n3o+nk0Vlliz24iE7Vxc8ID/h7o0kbmjxQRmczSfUrIXtlJPFrL22Y8aqPx6J2LmPYf6fn2fqAvYqZ1MNzHjMgIbVs44wF/D3TyMLARhIlk/nVsP2JeHYHsxWPh7W5+NpwaAWUyfrkKAK7406DqP5Sce3tjkgOA0tv4b5zux7Jm7nBMKnaUAs49vfVLuT2cpQ+Z27ex+abuh1lJ2nk8+nuhzphJFK7qngEF+C1O2PZVdQXzfsmpatApo+TSNfw5Tuv+Kwqxc30SVpUCzt064GXLJNsBT1epWaeq1EBfAs2W3IX4ZK8SJUb8XKoUY//Wa5W7x1TbPFRPB7w03AlAGb76JRY7VVo/n4pC7N96Qeqr0bod3hD7ZJjCLxDvB0i3+e4viUgq05qrKMTOLdexswLIV3jiEdOq6YmIyAolvB2K7MVj4dy0Fp8dZP/sJR6t5W0zHrXFeDQfv2xIxWFNku8hb/2dzokaWC3eLUT2ISsuB4cBoF1rPCK37bI2l86VO+zoNRV16YBJAQBUZchCU7w0SHsLajW/QLzfBQBK8cl/DiL8xxN4beMxTPviAPy+v4kbvq0xvRUAFCPJmLMr2lw6443BTQFUYPPWaAT95xhe23gCT35zAF6fJ2OzU2vM8YO0O4veJ3xT9PYENm+NQdC3x9SPKQazL1UAitb4dVpXEz6wa+CgQEeFFKw9/+0xvLbxot6ZP82W3DeUZcb9XCrdxG/q3hjIuYkHFotNYeUuJ7Bffe2O4UPwa08H4G4+Zn+h+fnEIHxpDJ48Wwa4tMDKZ4KMa0pqkCumz+iBOQogPy0dDyw9iGk/V93P7EsVUvPTZ3pUu903ERER2Q+7iUdrdduMR2GL8WhaCr7MkL7Mv3QFXfWeW9VlnvgiE9WTWr1diGxfFn6IlaqjBvdqX/MfdjjgwYGtpbMYek1FnTG9v/rj2L0VHpGthXbF9KeHYHV/V3RsWoHzyfn45UIhLrm0wOLHBiLhxYGY08lBq5mmKRzQe8Iw/B7eEr1dgKwMaZeWk6XOeGlCb1x5fSDe6CWViu68JPSEgAMee2IEfh/pBpfbBfgloQCHS5tiZP8AnPrzQIyUKVU3nzdentYOk9yBrJsF+CXhFg6rNx+qpNmS2+ifi6W44sGZoTg12RMjFZB+PgmFOO/giukju+LU28MwvbUF/mw274B/vD5C+lk5VeDwZc39OEmv+dtDjG9+SkRERDbOnuLR2tw241GJbcWjN5LuVLuqhMgaNLl/n40HiMjaFOCX/xzDaxmu+OebIXhKIc4TETVOBSiAAlV/FPuhH+IQp3MMERFZAuNRIntQlM+KLyKyRndS8UsGgC7t8BiDDKJ6tTX+JrwW7cNbOy6IU0RERI0H41GiBvNTbBq8Fu3Dkn2XxSmz2HXiKy5diSMpeeIwEVmjsjJpF5+y2/hleyZOwgFzhnZmc0yieubQpIk4RES1cDI1n/Eoka1gPEpkFSwdj9p14uvlLfGYujoWWSq9TXGJyNrkXED4on3wWnIKr12tADx98JK4/TYR1bkKdkAgsqjn15/B1NWxKCnT3eGOiKwQ41Eiq2DpeJTvYiKyDk2boa2T9KV3QDv8PqeXtB02EREREVF9YDxKZJeY+CIi6+DZA1v+OhbZi8ci4fneGGzELjJERERERBbDeJTILtl14svBsstCiYiI7J6XuzNG+HugSxtG+0SWYOk+JURERPbORyHFo508XMUps9h14qvCsstCiYiI7N4D/h7YNnsQ5o/oJE4RkRks3aeEiIjI3j0U6IVtswfh2UF+4pRZ7DrxNdCvJUb4e6CZo10/TSIiIiKyUkM6tsIIfw84N2U8SkRE1BCa3L/P01BEREREtqAABVBAUfl9P/RDHOJ0jiEiIiIiSVG+nVd8ERERERERERFR48XEFxERERERERER2SUmvoiIiKjSxSwVPjt4FXuTssUpIiIiIqI6dzZDic8OXkXUtdvilFmY+CIiIqJKF7NU+DzyGvZeyhGniIiIiIjq3JkMJT6PvIZDV3PFKbPYdeJr1YlUfHbwKgpLy8UpIiIiktEETcQhIqqFFTHX8dnBq+IwERERGWDpaNS+E1/HU/F55DUUlpaJU0RERCTjPrjZM5ElfXMkBZ9HXkNJWYU4RURERDIsHY3adeKLiIiIiIiIiIgaLya+iIiIiIiIiIjILtl14svB0gtDiYiI7NzIgNbYOnsQ5o/oJE4RkRkcmjAgJSIiMsX47l7YOnsQnh3kJ06Zxa4TXxWWXhhKRERk59q4OeEBfw90adNcnCIiM1TcZ0BKRERkirYtnPGAvwc6ebiKU2Zpcv++/X4ax6UrUXSvHA/4e4hTRERERDanAAVQQFH5fT/0QxzidI4h63IyNR+l5RWMR4mIiBpAUb6dJ76IiIiI7AkTX0RERETGK8q386WORERERERERETUeDHxRUREREREREREdomJLyIiIqq0Nf4mvBbtw1s7LohTRERERER17qfYNHgt2ocl+y6LU2Zh4ouIiIiIiIiIiOySXSe+Rvw7Bl6L9iFLVSJOERERERHVuaDPo+C1aB9KyirEKSIiIqoHdp34IiIiIiIiIiKixouJLyIiIiIiIiIisktMfBERERERERERkV1i4ouIiIgqTQ1uh+zFY7HskZ7iFBERERFRnXtukB+yF4/FwrHdxCmz2HXia6BfS4zw90AzR7t+mkRERERkpYZ0bIUR/h5wbsp4lIiIqCE0uX///n1xkIiIiIisTwEKoICi8vt+6Ic4xOkcQ0RERESSonw7r/giIiIiIiIiIqLGi4kvIiIiIiIiIiKyS0x8ERERUaXcwlIcScnD1dwicYqIiIiIqM7dKijBkZQ8XM8rFqfMwsQXERERVTqcfBtTV8fi25jr4hQRERERUZ3bfSkbU1fHYk1smjhlFrtOfMWlK3EkJU8cJiIiIgMcmjQRh4ioFk6m5jMeJSIiMoGl41G7Tny9vCUeU1fHIktVIk4RERGRjApu9kxkUc+vP4Opq2NRUlYhThEREZEMS8ejdp34IiIiIiIiIiKixouJLyIiIiIiIiIiskt2nfiy8LJQIiIiu9fD2x1vh3XGQ909xSkiMkMTBqREREQm6eerwNthnTGqSxtxyix2nfiy8LJQIiIiu9fD2x3vjO6ChwK9xCkiMsN9BqREREQm6eurwDujuyC0c2txyixN7tvxp/GqE6nILSzFyw/4w83JUZw2WVLafpxJ3iIO24xWbu0R2nuBOExERHbA0aEZmjq6iMNkZwpQAAUUld/3Qz/EIU7nGLIuK2KuQ1VShndGdxGnzHIi6Uek3DohDtsM/7ZD0DdgujhMRER2wNHBGU0dncThBlWUb+eJL0vbe/oTRMX/Sxy2GR29B2FW6H/FYSIisgOuTi2Z+GoEmPiijYdfwtnkzeKwzejtPwUTBy8Rh4mIyA64OnlYZeLLrpc6EhERERERERFR48XEFxERERERERER2SUmvoiIiKjSkZQ8TFkdi29jrotTRERERER1bm9SNqasjsWa2DRxyixMfBEREVGlbFUJYlLycDW3SJwiIiIiIqpzmUopHr2eVyxOmcWuE1+v/i8BU1bHIq/4njhldVq6+aK3/xR09B4kThEREdUbhyZNxCEiqoXZG85iyupYcdgqMR4lIiJrYOl41K4TX6fS8hGTkod75RXilFVo6eaLiYOX4C+Pn8P8CbsxcfASzAr9L+ZP2I35E3YjpNd88SpERER1qoKbPRNZ1IkbdxCTkoeSMuuNR2eFrjIYjzIJRkRE9c3S8ahdJ76sWUiv+VIw4TUY0QnfYl3Un/Dt7+Px7e/jEZ34LW5kn0RI0HyE9JqPlm6+4tWJiIiIiMzW0s23Mh4FYDAenRX6X56MJSIim8bEVwOYFboKvf2nIDrh26rAIisW+YUZyC/MwPmUbdh1ciHWRf0Jvf2nYFbof8WbICIiIiIy28RBS9Dbf4o65pxjMB7ddXIhevtPqUyQERER2RomvuqZ1DdhMHbFfoDoxG/FaR03smKxLupPlUsiiYiI6trU4HbIXjwWyx7pKU4RkZ0I6TW/Mh49n7JNnNZxPmVbZTzKyi8iIqoPzw3yQ/bisVg4tps4ZRYmvurZxMFLEJ0gnVEzRn5hRuWZNvZYICIiIqLaCgmaz3iUiIgaDbtOfMW8OgLZi8fC291ZnGoQvf2nAECNlV6i8ynbkF+YgY6eg8UpIiIiIrJiCW+HInvxWDg3tY6wuzbxaEs3X8ajRERkc6zjE7iR6Og1CDeyTorDRskvTEdHL55hIyIiIiLzdfQaVOPyRkNuZJ1kPEpERDaHia96ll+UIQ4Z5UZ2LFq6tReHiYiIiIiM1rK5+buFMx4lIiJbxMRXPapNoEFEREREZAn5headiCUiIrJFTHwRERFRpa3xN+G1aB/e2nFBnCIiIiIiqnM/xabBa9E+LNl3WZwyi10nvuLSlTiSkicOExERkQEOTZqIQ0RUCydT8xmPEhERmcDS8ahdJ75e3hKPqatjkaUqEafIJOlY+2MwBiyv5rIiDNN/XoatN5Tilc1wGO8vD8aA5e8iWpwySP460Vukx/f+ea1BSytNR/TBd/H8dyMwXPN6fD0Ck9bMx4oTF1BQIV7BTDd/xKzlwRjw44+wxgUKBZd/xII9h8Xh+lG0D++vCMasg+niDBGZqOL+fXGIiGrh+fVnMHV1LErKLBUQNFa2Go/KjdWBeopHMw5OxoDl1htz1W88WoqMuGWY91+t13xFGJ7f8ivOWeJXkKgRs3Q8ateJr4bU238KJg5eonPp6D0YHb0G640bc9FsPS2OTxy8RLzrhlGWg+TbP+KjrSPwfNQ1cdZ+ZfyI578bhwXnd+HcXSUqU6wVSmTcOYwfjj2O0O8+RHSR7tXsTuKHCP1jGaILxYl6UHoNP2x8HbvLxAkiIqLGLaTXfL24UYpHB+mNG3MxFI+G9Jov3nXDYDzKeLS+4tGKa9i6LgyTDv+IE0VAd+9pmNppIoY0zcG5tL/j+TVPY601nqkmaqSY+KojIb3mo6PXYLRs7lt5uZF1EvmF6Tpjxl7yC9P1rtvRa3BlAFJfxo+Ox+kF+pejL2zHh+0UAIBzZz/EhtviNRtGyDTp8X3SW5yxgLuH8dH2ZThXAXh6zsXyaTE4qnlN5sVg85i5CHECULoFC7ZsQY54fXtS3kBVlcrD+HTNZKzgWTUiIiI9vf2nyMajUG+6ZOrFUDwaElS/iS/bikdH4pMF8Ti94FOEiFOWwHi0Sj3GoznH/o6PcpSAYi5+/FMMfpz5ET6c8ilWzj2NzUE9gYoz+Or35bgoXpGIGoRdJ74cLLss1GTnU7ZhXdScOrtEJ34r3mWDcW7eGVMfW4UXmgPAGWw7a53lz5ZUcn4dtpYCUCzAf2YuQIifAs6aSScFAoIWYPmMjzDEAcDtj7Hqku71qRZKc3Di4Hw8tGY+NhTZ+18yovrl5e6MEf4e6NKmuThFRGawdJ8SU0UnfqsXQ1rywni0YTEebQjp+CPpOABPPDNyAfrofFw6IWDMp9LvYNGP2MbXm8gsPgopHu3k4SpOmcWu/7lYYdlloVQTh54I8XECAFzMqyovr77PVg19D0rTEbHtcYR+Ld3G8JWP4/0jZ4zuU1DdfRdc/hXvr6lakz985WTM+2MfMkrFI+XlqtTBlKInAgy9k1pPw4x2ABxckJ2ndY6thn5dNfVPKFGewdqN4ypfl9Af5uCruPSq0nY1ze28f17/+Yb+MAdfnTV83q8kax+++nly5X3I9yxQ99s4uEv6Nm2+dKyB52UpGUf+hHnnDyMHngjp/TN+7NlZPISIzPSAvwe2zR6E+SM6iVNEZAZL9ymhGlhdPFr9bYvxme3EoyUouPwj3vphgBT7fT0A039ehogs/Qduf/FoGnJKFXDGUAzuIs4BQGf0aQ0ApcjXfzmIyAgPBXph2+xBeHaQnzhlFkN/Hu3CnKEd8HZYZ7g5NRWnqI4oyyz51/0MvlozDm+lXkV7z2mY6jcUbcouYPepp/HQzz8i2ahgQ44S0dvCEPrH37FbeRcB3tMwtdNIBFRcw4nLr2PSmuW4aMRtt3FvL31xO67a48Mfi8fpV2KwbJinOGWeol/x1rqn8VVWCXr6TsNU757A3eNYe3gcHtl2GAXi8QBSzs/B9D/+joN3e2J0p2kY39oTpUXHsTYqDLOi9IOZgvPv4pH1r2Pt7WuAYiSmdpqG8OZKmZ4Fzgjwm4aprdWvhctQTO00DVP9ukAKOeuIgwI9On2Edc9GYvnofvC0679kRERky15+wB9vh3WGc1N+WNUXxqP6LB2Ppl+dj+l/LMORiv4Y32kawt2B5Ns/4q2ND+Gj8/I9KOwnHh2K1+fG4KjB5avpSFa/BC6O4hwRNQS7/gSeM6QD3hndBW5O/ItTLyrO4Eim9OWQdj3FWTOkI/luT7w+7TTWzfwIH05bhZ1/+hkvKICSO8vw6THDZ4eqU3JqERZczwGcJmLZs+rbnvIt1s2LxIfeTkDRd3grouaGqM4D/w9POAEo+g6zvnsaHx08jGSlJQMtA8rSkYyJWP6nSKyc9hE+nLkJUU9+inAnIOf6u1ghU1J9Mec4PIO2I3LuKnwy5SN88nQk9oZORAsAFxN+xDntg2/+iP+L2oUch554YWIMop79Fh9O+QjLnj+NvcPHwrPiDL7a/necqwAAT4Q8+BE+7NtPuq7n8/hwykf48MGRsExYJc839GesmzINPaQ2HkRERFbrpRGd8M5o2bIQqguMR+slHi0oSgf8vsVedWxZFSfmYOuRf6vjRF32Fo8adOlHrFUCcBiLEC5KILIKdp34shUdvQdhVugqzJ+wG/Mn7LaenXGMVVGKgrTDWLH+JWwolf7IzxhgmY+Z8KGr8Iyv1kDzfnhp9Fz4AjiRuM6MhpE52HphHwAnPBH2KcK1EycOnpg64nn4OiiAm4eQrDUly6Ef3n38U4x3AlB6BlvPz8f0HwdgwNcjMP3nd7HiyHEkF9VF4NEeLzz8KUK0+wm0mYhFA0cCUGLD2V16Sx7RfC4+HNO5qucDgBZ9n8SEpgDKjuPszarxEyelM4w9gv6Jl7roZpY8By/GG94ASn/Fmri6eG5ERETUELTj0VmhqxiPamE8KqP5XCyfOhIttIZqjBMbQzxadBjvH/wVOQB8A+ci3EU8gIgaAhNfDUwKMv6L/KIMnE/ZhvzCdIQEzbfaYGP3QfX6eu3L1wMQumU+fshRAlBgfOhiC/2RH4kHe8uU9HQaiwku0gfLSVNPst09jpO3pWDogUBxEkDHBdj5Sgx2Pv08AsQ5OW0m4pO5p7F5zFuY2ro9WjhIW0cn396FH07NwfQfBuCh9T8KfQhqyWUiwmVa77ToPQnhAJB1HNJ+TVq8+qOHOAYv+Or1rj6Dg6mlADojvLu6XFyHAoM6DgUARKQdFyeJiIjIBoX0mo9Zof/FjexYnE/ZJo0xHlVjPCrHt+NY9ND7l6QCo7uMBAzFifYej5Zeww8b52N3KQDFW/j3g5aoOCQiS9D7c0X1a1bofxGd8C12nVxYuetOdMK30vbT3oPEw61WC6fOGNLpLSyfGYlP5IIDc7j0hL9swKL5gLyAC+pSdqPdyZaaXLr3RGdL/fY7OCEg6Hl8+PQeRL1yGlGzNmH5wLkIbyXtqpOTtQzPr3sX0UXiFc2k6CIfBLm0h1dTqcQ/WeuMGQD0UBhZZ33nGpLLAKAEsSc/xEfb9C8rrqVJx+ZdraOGoUTUkC5mqfDZwavYm5QtThGRnQoJmo91UX9CdOK3lfHo+ZRt6O0/RTzUqjEerb94tIeH/PJdZ4WfVAUmEyfadTxadAYr1k3GCiUAxVz8OON5w5sNEFGNzmYo8dnBq4i6dlucMgvfjg1Ik9gSt4E+f30bWrpp11Nbj/Gj43F6gf4lat52rJzyPEK8LdhC0kkB+ZDFE556Z4aMlH3BjHJ0UzihhWdPhDywAMuejUHk09/iieYASndhwU6ZJYjmcNLaplqH3BkzE91VQjoZmI4T17dgq9zltn7zUVNpdvfRu9TZ7jtEZKyLWSp8HnkNey+ZWsJARLZIE4/eyIrVGY9O/BYt3Xyt8kQs49Ga1H086uRi4DVu2R5yNVomsbV4NHcX3l/zNH5QAlAswOZZC9DH3N8NIgIAnMlQ4vPIazh0NVecMotdJ75WnUjFZwevorC0XJyyCvmF0p9UMaDo6DUYANCyea0/NmxbRamBD+Yc5KjPVpm8U4pXT5kSazPkbsFbKwdgwPJ3ESHTvFPDufVIvDv6efgCQM4ZyPSdN13FXXFELRsZRQDgDJi7kWnl9SZiuUxAqXN5Xv28yGZkJDohKcoVSVGuOPWbGyJXKnDqNzckRbkiI9EJqmxHqLJNfVORvWmCJuIQEdXCipjr+OzgVXHYqmhiUm2aeFRurlFhPCrP0P3lp6PWKSkbikdL0n7E87++i92lgGe7T7H32bkIMJATJMvSxK2a+PbUb26V8a0m3tXEt2R7LB2N2nfi63gqPo+8hsLSMnHKKuQXZuBG1kn07lRVRt7SzRe9O00GgMoeC3bt5lWkiGMaqqsGtohOwyUlAPREgLc4VwMX9Vk71TXI75NzBp+uHICHvvsQ0dX1ymzjBUVZKYB9OJkkTgrcPKX7rChRn72q2bU8+UcHAFAmyzc61ZSFO/REgLm9XD27qPs1XNBbLmlJvqO36wcuVhC82JOkKFfsXOKBdQs88d2TbfHdk22xc4kHIlcqpITXZncpSNjsjsiVispjNcevW+CJnUs8kBTlyoChkbmP++IQEdXCN0dS8HnkNZSUyQY1DS6/MEPqMavVz0sTj0pzjSDxxXhUVnXx6KUc+bmc3GsoAACPLubHdLYSj2b8iNlbl+FcBRDQZRU2z5gIT7v+13XDUWU7Via1tGNVTbyqiW018a0m3tWOhTXHn/rNDRmJzE5aO0tHo3xrNrBdsQvR0Wtw5Q468yfsRkfvwVgX9SfxUNul/jfz7QL9ZTMl6WerKfXeh/0JMp/2F3fh9zIAzUdisKkJnlZD8YACQMVOHJG74+uHcLi0FDlOndG52r+HIzG+kxOAUmw49h2SZR6mRnLCFuk5eg6FdO5U60xWUTr0X5VrOFfdUmbVTkTLBAE5CVtwAgC8te7HZEMR4g0A17Dh3AVxEgBwcf84DFgRhuk7Dhs4A0oNQfMhr/lwj1ypqNVZLs0ZNM1t7lzigVO/uZl9e0REZJ3yCzOwK3YhQoLm68Wju2I/EA+3XYxHLRqPJqceklkOmIMD16Rm8+F+UvN589hAPHp7C+ZtWabeeXI71k0cqrPDJdWeJtmlSV5pklrmxqKaCrFTm90rb1MTL5P9Y+KrgeUXZmBd1J9wPmUbOnoPxvmUbfj29/F6fRZs2WBfaXeXE0lbdD+Qlfuw+OQ+rQFRKXYfWYgI7dNSyn14P/JXFMAJ4wc/b0aZeHvM6D1WChAi39W97dJr+OHgd8gAEB40rcYzPUPGLEG4AwDlckz/79P46sQFZFRuF12KgpwL2LptMmYlXAOgwBP9J1b15vIcihAXAGWbsT5O50Eg+cC7+KHaxqPX8NVu3eCmJO07LIg7A6AzXgrRuh+TOSF8qLQ9d0bSa/g0UfecYEnad/joYjpQVoohgSOr7qeNuuF+UbZM4ER1SZOY0pR1mxsM1CQj0QmnNruzEoyIyA7lF2bg29/HMx6VxXhUlnIZ3jpwTSvpVIrkA/Px6W2pz9XL/WuTTLD2eDQHW3//ECcqAE+/b/GfMZ1rEXuT6NRvblXVWZvdTUpMuXsZ3+JIle2os0IicqWCsa0da3L//n1LV5FZjZCvY3ApuxAJb4+Ct3vt/xztPf0JouL/JQ7Lmj9hN86nbNNrXG9ISzdfzJ+wG+ui/mR0kNHbfwomDl6Cf2zqI07J6ug9CLNC/ysOGyEda38ch6+UUjPRT3qL8zWoOINPv3saG0oBNO2J8PY9oSi+gAM5F1DgPhHjK3Zht2oili/4FCEAgMN4f/l87HbpiR4VF3CxzBNDfEfBF+k4kXEcGepy4h91zqyorwPt2wGitwRjQZr4uJU4setxzLuaDjg4oYfnJPRwzcbF9MO4WCZ9gG2eNtKoszYlaT/i/9QlzgY5eGL80N/wiXA6MCdmDh6Klc6K+baeiCEtgIxbu3DirgLj/fpid9ph9Oi9B+tGq3u93fwRszYuw0VFT/RQXcBFdEZ4h35Vr2WFAiGDfsbyEVU75mQcnIxJ56/p3k4lzc+1M16fsR3PtKuaSY6Zg/+LPY4cAC0UIzHGwwt3Cw7h4O0clADo0Xs71o3W2pnn7i689YPUXyLAexr6eo7FSw+OhKknQM1V/fO0T6d+c8Opze7isJ7A0GK08CxHCy/pl9S3lxQMawcGqmxHKNUf9JmJzaT/X3CC0oieX2HzlPDtVWpSoEF1w9WpJZo6ym49ZpLcwlJczC5EuxbO6NKG3Xnr02IsxiIsEod1FKAA2q22+6Ef4hCnc4woRf1fGMLEKaoHvZcdws2CEqQtHAPnprU/57zx8Es4m7xZHJY1f8JuRCd+a3T7jPqIRzXHm85W41G5MdhsPFoZcyl64qLyApzdR+LhNl5Q5u1EhLIUcBqKDyevwlStjF31cZoNxqM3lmPSVik5WROzflcbKWNiW3evcvj2KkULTynubOFVAXevcii8yvViWwCVsWxBtgMKcqp6ghni7lWO7qOK0T30LmNbM7k6eaCpo+HX2Fi3CkpwJbcIfi1d0MnDVZw2SVG+nVd8VdhtSs/GOPTDu89ux4edeqJFxQVEXN+CrbeVGNxjFfY+uwA9Df0WOk3Esmd/xuvezriQsQVb046jwGUonhm5p5blxAoMmbgHex98C+MVLkjO2oKt1w8j3aEnnhi5BzuMDDIAwNnvefw4NxIrB07DEHdPtNB6Li2cOmNIt4+w7tlIvSADADxHrMLeB+civLkTMm7vwtbru3DBZRo+nLYbn3ST3z8IkM6irXvyKzyhyMGR61uwNesCoJiIdx/erZP0qo2AEauwY+ZXeKZ1Z0B1GFuvb8HuO0q0aDUR7z4coxtkAIDLRPxl5DT0aArp9by4r5olA1QbSVGu+O7JtgYDA3evcgSGFmPW8hzM/fUWwuYpMfCxQgSGFiMwtBjuQmCguY5vr1L49irFwMcKMfCxQkxamIdZy3MwaWFe5fXkRK5UYDsrwOxKGzcnPODvwaRXA0hBCgIQgMVYLE6ZJQUpWIzFCJBqIKiBVNjvOWbbwnjUovGo/8BN2Bs6Dd1LpTgxQuWCPn5/xY+zdJNetWGt8WhG8mGjkl5knIxEp8rqLjnuXuUYOF1VGZtqYltNfCt3AlYT7/r2KkVgaDEGPlaIsHnKytsYOF1VeTJYm2Yp5HZ1iw9qOG1bOOMBf49aJ7007LriKy5diaJ75XjA30OcMkvjrfgiooaWFOWK2M3yPbZ8e5UicNRd2Q9+S8pIdEJmYjNcOiSf5PLtVYoB0wtlAwmqe5aq+KKGo0l8AYA//PE8nterADOm4isFKfgJP+Fv+BsAIAxhOIiDOsdQ/TmZmo/S8gqLxaONt+KLiOyJKtvRYI8tTeWVT697dRpXairAkg65VPs4Bj5WKE6RAZaq+LIku6/46t9eYbEgg4iooWh2qxGTTe5e5ZVnr6qryrIUTUWY5mybeH8ZiU5sgk9UC5pkF9TJq7/hbyZVgGlXeGmSXgD0kmdUvwZ3aMl4lIhIi6aPl1yyaeB0lVSV9Vjdn0zVrJSYtDBPNrbVVICtW+DJ2NbG2XXii4jIlqmyHbFziYdsUBA2T4lZy3MQGFosTtULzXJKuYTbqc3usok6IqqZmKQyJgFmKOEFdbUXe3sREZG12LnEQ3ZZ48DpKsz99VaDVVcFhhZjcjUJsO1LPBjb2jAmvqxEfmEG/rGpj9Fl5URk3zT9DsSkV2BoMeb+eqvBEl6isHlKTJapOMtIdGKAQGQG7aovbZoEWDCCdcZv4qZswktDTKQRVYfxKBHVFUMndH17lVZWeDU0TQXY5IV5GDhdpTOnSX6x95dtYuKLiMjKaJYManP3Kq8sw7Y2miWX4hkyVbYj1i3wRFKUZZpSUv3YGn8TXov24a0dF8QpqifVJatu4IbO9zdxU+d7baz2IiIia2DohK6mZYdYYdXQ3L3KK9t7iLHtqc3uTH7Vg59i0+C1aB+W7LssTpmFiS8iIisSuVKhl/TSnAmr6z4HteXbqxSTZYKXyJUKBghEJjBU9WWq6hJoRERE9SEpylUvttWc0LWWFQyGuHuVy1Z/adp6kO2w610dR/w7BpdzCpHw9ih4uzuL0yYzdVfHutbSTdor2NhddLirI5F1O/Wbm17PA99epZi0ME9nzBbIlbIPnK6yijJ2e2WpXR23xt/Ei5vO47lBflj2SE9xmuqJ9g6P5uBOjtYj6PMoZKlKkbZwDJyb1v6cs6m7OtY1U+NR7upI1HgYWsUgd6LUmqmyHXEpykUvTg8MLbbK1RgNyVK7Ov4Um4a3dlzAghB/LBzbTZw2SVE+E18mMSXx1dLNF707TRGHLe5Gzkmj+zAw8UVkveQCA1tPFEWuVOgtcxRLxslymPiyP7MxGz/iR3HYKAdxkMscrURDJr46eg9CR8/B4rDFmRKPMvFF1DhoWl5os9UTuhpyJ6ltPV63NCa+GkBDJr6sERNfRNZJLjAIm6fUKf9OinJFxoVm8O15z+rLwrWJAYItnuWzFUx82R9zq75Y7WVdGjLxZY2Y+CJqHMTqfzHplZHohNOb3eDTs9SmEkfiyWp3r3IMml5oU/F5XbLWxFftP32tmEMTcYSIyLrIJb0GTlfpfHiqsh0rq6c0/bJsZbfEgY/pBgLcDtr6ebk7Y4S/B7q0aS5OUT0zt9cXe3tZF4cmDEiJqHGpKekF9cqAjEQnnNrsjnULPG0mNvTtVaqzvFGV7YjYzbYTm9sKH4UUj3bysMwmWXad+Kqw21o2IrIXYmNM3176Z72UwgeppqGmrXzAyu32eCmq9pVJVDce8PfAttmDMH9EJ3GKGoCpSSzu5Gh9Kux3cQURkZ5Tv7npJL00jexF2nGs5sSo2CLDWgWGFus0vOeJXct7KNAL22YPwrOD/MQps9h14mugX0uM8PdAM0e7fppEZKOMDQzkZCQ6YbtMA3lrJS5v5FbQRMYxterL1EQZ1b0hHVthhL+HRZY5EhFZM00FlzZjm79rKqdsJT7sHnpXZ8d1zQoNsk52/Qn870eDsG32IHi4NhOniIgalCrbUbb3lSlU2Y7YucTDJgIEud5epza788wYkRGMTWax2ss6rX6iL7bNHiQOExHZHTHxM2lhnk5yqCaa+NhWYltxVUNGopPNnJRubOy6ub2lnUj6CXHXNorDNqOj52CEBM0Xh4moAYg7HlYXGIhNNOUMnK5C99C7Vt80Xmx2z51wLMdSze3JOhmzwyN3cmwc9p7+O5KzYsRhm8F4lMg+aXrRatQU4333ZNvKr929yvVOhsqdNLVGKqFfr7tXOWYtz9E5pjGxVHN7S7L7XR0treSeCqVlht+8RETGMPUDUkx8TVqYh6RDLnp9EDTNNt29yit3gTSVb8978O1VWqdBhtjAdNbynDq9v8aCiS/7VtMOj9zJsfG4e0+Je2XcPYyIrIt2IgsA5v56S+d7kfbxmn5Z4jJJTVWVb6/SyqWQpmrhWV7nJ4fFE9ri7uyNibUmvhz/9re//U2cIHnlFaUor7gnDhMRmWTvl61QoJX4eewft+HkZvgcREG2I5IOVX2YBobeRe+Hi6S5HEeUFkmr1guyHeHUvAK+ve4hJdYZ8X+4Ifd6M5MuKbHOlbdRV5yb30dKrHPl93V9f41FM0cXODg0FYdNlltYirgMJe6V30fr5qYnT6lutEIrXMd1nMEZcQoAsBqr4Q9/cZjsUFlFCSoqysRhIqIGc+o3N2ReqEp2hM1Too1/9X+ntJNcms2duofeRXKsc2VsW1rkgIwLTuj9cBFyrjfD0TUt9GLXmi6ZF5yQHOtcGTvXBc9OZTj/R9Vu2DnXm9bp/VmzZo6ucHCofSuTWwUlOJtZgPv3gVa1bF11r8TOe3wREVkbce1/YGix2WegfHrd0ysLv6SVIDOXduBSF8TnzF5f1uVw8m1MXR2Lb2Oui1PUwAz1+mJvLyIiaihyfWtrU+2kEOJiS8SIlriN6mgq0zRU2Y420afMmu2+lI2pq2OxJjZNnDKLXSe+Vp1IxWcHr6Kw1Lx/VBIRWZrY9HPQdPOWT4vLHzW0P3TdvcpNutQncYcf8XWhhtMETcQhshKGdng0lBAj67Ai5jo+O3hVHCYisgvi8kMxxjNWRqIT1i3w1GsOb25sW9/EViGWOBndmFk6GrXrHl8j/h2DyzmFSHh7FLzdq5bVmIs9voioNsRkVU1NPzXE67kbaACq6YFgjp1LPCoDDd9epZhk4g6T5hD7IbDXV+1YqsfX1vibeHHTeTw3yA/LHukpTlMDE3t9sbeX9Qv6PApZqlKkLRwD56a1P+fMHl9EZE20e3WZEkOK1xMTXqhh86eaiBsq1dRzzBJMbfBvjyzV4+un2DS8teMCFoT4Y+HYbuK0SYry7bzii4jImmQm6q5PN/eDUEx6+fYqxazlOWYHBg0lcNRdne8vRdU+aUNk78SqL1Z7ERFRQxE3WhJjO2OJSS93r/JaJb0aivh467p9CBmPiS8ionoi9j+whIHTVUafWbM2Ykk4gwMi42iSXeztRUREDUncQbw2vb00bPWELmT6mynruLcYGc+uE19NLL0wlIjITGKVVvdRtQ8MJi3MM7tqzFpoBzUZiU56rxPVvx7e7ng7rDMe6u4pTpGV0FR9sdrLNjRhQEpEdkq74ssSSS9bPqGroV31psp21KtmI+P081Xg7bDOGNWljThlFrtOfNlv9zIisjXiMr7aJKxstfxbjlgSz+Cg4fXwdsc7o7vgoUAvcYqsyCIsYrWXjbDjdrpE1IiJyxx9e97T+d5U9nBCFzK7Up4Wmv+Tcfr6KvDO6C4I7dxanDKLXSe+vpkWjK2zB1mksT0RUW1o7+xi6jJH316lCAwtriyfttXybznicsekQ+zzRSRSZgEJEdLl6HrpcnG5P3YvB3Yvrxo7ul46JjVeug5Zhx9n9sPW2YMs0tieiMhaiMscTY1NB05XAXZ2Qhfq56P9XLjc0TrY9a6OlsZdHYnIHKpsR6xbULVszBp3eGmIXR01uLujZVhqV0dqWAkRUtIqP8syCawOwdL/g8KlrxXe4hFka7irIxFZg3ULPCtbVASGFiNsnlI8pEE1xK6OGuKO7PaU2KuJpXZ1tCTu6khEVA/EZY7dQ83b8cbaqbIdEblSgZ1LPEzq1SWWxnO5IzU2CRFS5dYXU6X/x6grt2qb9AKk5FlqvHS738+VLhs/sExSjYiIGidVtqNOrCfGcvYkcqUC6xZ46i3trI643FHc2Z3qHxNfRET1zNxqJmtv/h672Q1JUa7ISHTCdhOSX43lDBiRtoQIKQGlSXYlRIhH1A2lupJs4wdSEmz3cul7IiIiY4knKe01tk2KckVSlCtU2Y6I3eyGU78Z16/L3aucO5dbGSa+iIjqWEFO1Qe6OYGBKtsR3z3ZFjuXeJiUUKpv2o9Lle1o9GMVX5OCbH40NaQjKXmYsjoW38ZcF6fIArQru2qTcFJ4Vy1drM3yRU0CbuMHlqsyIyKixkWscDLGziUelbGtsQml+qYdk6qyHXHpkKvRj9Wc14Sq7E3KxpTVsVgTmyZOmYX/uiAiqmPGJH+qo90UU6XuF2ZKuXVDMTf5pZ0opPqXrSpBTEoeruYWiVNkJmVWVcLL2MquDsFSX64RM4HxC6TLi99Jlze3Sv+f8bH82IyPpeuNmGl8Xy/NcsgNTIAREVENxJOU4klMY2iqxlTZjji12d3ohFJDMjX5pcEG96bLVErx6PU8y/S0tOvE16v/S8CU1bHIK7bfNcdEZFssdfYncqUCp35zMyqp1JBMSX5pmHIsWZ5DkybiENWCpreWMQmvoPCqBNeMj6Wvh8+UxoPCa67u0lSBdQiWrjd8ZlVyTJMMq+760ErSaRJgVHuzN5zFlNWx4jARkc2qi5OUpza76zTMt1bGJr98erKVR21YOh6168TXqbR8xKTk4V55hThFRFRvtPsgWPJD8NRmd0SuVNhEgFBT8stSCUGqvQpu9mwRCRHGVXhpJ7vGL6hKcFmaJhmmnQTT7PgoR5MA2/gBq79q68SNO4hJyUNJGeNRIrI/5lR7GaKJGa19ZYOxyS+N6mJgkmfpeNSuE19ERPbO1Eby9UVs6llT8kv7WJaDky1TZknJot3LxZkqCm8pyfXm1rpNdhmiSYLN+Fh6DNXdf2q8VLF2dD0TYEREJNGO5yx98lJlYiP5+jRwuqry65qSXz69uGu5NWHii4ioDomJnhZetT/jHxharJdUEvt+qbIdkZHoZPRFTDaJ88ZctG9D4VWOyQvz9B6noeRXC0/d44hskSZJVF3Tek11V1C4ONNwxi8Anvi4+gRYzHopmcfkFxERacd8lqj4kottxb5fpsa24nJMcd6Yi3gb3UPvmpT8IuvR5P59C9eQWZER/47B5ZxCJLw9Ct7uzuK0yUruqVBaVigOExEZpElKaYTNUyIw1LQmjRmJTti5xKPy+0kL86DwKpdNImluf+cSD2Q04Jkl316lmLQwTzbZ5S6TFDv1mxtObXav/H7ur7cqvybjuDq1RFNHF3GY6snGD6pPeI1Q99yydqnxUnVXdc9FU6VGxgn6PApZqlKkLRwD56a1P+d8954S98pM+xwhIrIk7V5cgaHFCJunFA+p0XdPtq38euB0FbqH3sWlKBedeBBaty/Gig1h7q+3pGSX8DjdvcoRNk8J315VLU3k4nfteXvl6uSBpo4N928QOUX5rPgiIqpTljgLJsfdqxyzlufo3X7SIetKfGiSXNo0Z+wMEZ8TkTXTLG00lCgKCpcqvGwh6QX1MkjNzpCGqr92L+fSRyKixkx7eaN4EtZc7l7lGPhYoV5yKCPRyWL3YQnuXuXoHnpXr0ItM7GZznHiY7b0klAyjV0nvmJeHYHsxWMtUu1FRGQu7Q/GjAu6H4rmUmU7YqdMxZclm+dbSuRKhc737l7lelVvmRcMJ8KIrJUyy/DSRoV31c6MhhJI1qxDsJSwM7QTZMx66cLkV80S3g5F9uKxFqn2IiKyNmK7jNo49Zub3slR316lVndSNHaz/s7qYk8vsi52vdTR0rjUkYjMUdtycLFUeuB0FS4dctX7wB04XYWBj0l/o8SgoSanN1cFGppybVNp34ZmqaPckku5Um/t4zTXJdNwqWP9So2XKr3kaKqm7EVqvOH+Xh2CbTe5Z6u41JGIGlrkSkVlb1nNKgRTaS91DAwtll0RoB0TqrIdTUqyJR1y0el/a05sKd7G3F9v6Tx3DblWJuJxjaWNh7UudWTiywRMfBGROWqb1BETX3LkkkmmqO1jhMxtQCYBZ+hxisGPOYm3xo6Jr/pTXdIrKFxKBNkbZRaw4QP55JfCW2qOz+RX/WDii4gamthvy5ykjnbsJ0f7hK45LPEYxdsIDC02KukFCyUHbZG1Jr5Yc01EVMe0y7NNOVNlDHevcoPJpIaUod4NR5uxj1N7h0eqf7mFpTiSkoeruUXiFNWQ9Bq/wPSkV2p8w13kkliGKLwN70ZZXVKMiIjsj7hLubgKobYmLcyrVdKrrhib9ILwmrC/l+luFZTgSEoerufJv76mYsWXCVjxRUTmqG2ps6GKL3Mrs+SI1Vrm3K7cskaN6pJeKmHny9qe4WusLFXxtTX+Jl7cdB7PDfLDskd6itONmqanl5wZH0vL/oxlLckicyrUjqr7e4mCwg33BCPLYcUXETU0MTatLs4zRK7iS9Nuw9TbkiNWa5kaf0PmNrRVl/SCBVqd2CpLVXz9FJuGt3ZcwIIQfywc202cNondV3zFpStxJMX0f7wREVmSb0/dZpeWOCs2cLrKrORUQ6gpGBKr4NgctGE5NGkiDlE1SS9NE3tTkl4AkBDR8EkvmPk4hs+UT3AlRJh3e/buZGo+41EisitiBZO4o6E5fHuVYtbynGpjRmtRU9ILFor3GzNLx6N2nfh6eUs8pq6ORZaqRJwiIqo34k40l6JMq8rxFXazsdbybzk1Jb0gEyzVdDzVrQoWgsvavVwckYxfYHrSC+oljtbCnMcyfCYQLLPsMWa9lPyiKs+vP4Opq2NRUqa7NIiIyF6Yszu3drxnSyd0jUl6iUsixZPgVDNLx6N2nfgiIrIGYuLKnOBg8sI8hM1T2syZMBiZ9AKgU0IuJgmJrMHR9fLJIXMqveyJpvJLFLOeVV9ERPbM3atcJ/kjVu8bI2yesjK2tZUTusYkvQAg44LuSV1jrkN1i4kvIqJ6oJ0Aykh0ssvy57B5Srh7lVf2CDMm6SW+Dt1HMTAg65IaL9/PasRMyya9gsKl5vH1cbGk4TJLHgHr6F9GRER1J3DU3cqvVdmOBvu8GqI52WlO0qy+dA+9W3kC29ikF4SKL2OvQ3XLrhNfFl4WSkRkNu3gAOrkl7E0zd8jVyqwboGnXvm0tdBs1Wxs0gsyyz67h+q+TlT/eni74+2wznioe9WGA42VMkt+B8egcCnhY2kK7/q5WNoTH+vfrjJLPmHYGDVhQEpEdkjs83V6s5vO9zXZucQDkSsV2LnEA6d+M+269UWze/qs5TlGJ7DEOJ3LHM3Tz1eBt8M6Y1SXNuKUWew68WXhZaFERGYTlzsmHTK+z5d4JixypQKnfnPTq5ayRZcOVQUH7l7lXOpoBXp4u+Od0V3wUKCXONXoyPX16hBs+i6I9k7hLZ/80jS7b+y4gToR2SNNlb+GGK/WRPsk8KnN7rI7mNsicZmjsSeDSVdfXwXeGd0FoZ1bi1NmsevE15yhHfB2WGe4OTUVp4iI6p0llzue2uyOyJWKWt1GQ1NlO+o8fi5zJGuSGq/f10uh3sGR9Cm8pWb3YvKL/b6Alx/wx9thneHc1K7DbiJqhAZMr+rNZc5yR20ZiU5Yt8DTpmNbCAm9wNBintS1Enb9CTxnSAe8M7oL3Jxs+81DRPZBLHUWl/mZKiPRCduXeNhsgBArlMRzmSNZE7lqL1Z6VU9up0dlFqu+XhrRCe+M7iIOExHZPHG5Y+RKhc73plJlO2K7FS99rElSlKtOXC7G/tRw7DrxRURkTcSzPqc2u9c6aaXp/yX2E7B2qmxHncfMZY5kTY7KVCl1CLZsM3t7FcSqLyKiRkPc3bG2VV9Q38apze42mfwST+pymaP1YOKLiKgeicv5zKn6GjhdpZck0vT9shXiGcGweUqd74kaiqGm7Kz2Mo5myaNI7jUlIiLbN0hruSNkYjxjiCeHYYN9v8T+u3LxOjUcJr6IiOrRwMcKa1315dPrHiYvzNP7MLWVs2MZiU46ZwN9e5XyjJgVuZilwmcHr2JvUrY41SjILcsbMVO/iokMGy7zeiVEsOqLiMgeyVV9mboSoYVnOSYvzMPA6Sqd8YxEJ5tJfp3a7K7z/cDHdBOCZJqzGUp8dvAqoq7dFqfMwsQXEVE9E6ubxLJoY7h7lWPW8hxxGJkXpIRSUpQrdi7xMPpS27J0U4hnAsXXgxrWxSwVPo+8hr2X9H+/7J2haq/hM8URqgmrvoiIGg+x6svc2FY8QQytDaFU2Y568Wt1F+2dw+saY1vLO5OhxOeR13Doaq44ZRa7Tny9+r8ETFkdi7xiNpUjIuvh26tU50NdbIRpDM2Hv8inp1Q5VZDtUFlZZcylvrAM3Po5NGkiDjUahqq9yHSs+qoye8NZTFkdKw4TEdkNd69ynWSPKttRLxlkjJ0ymzZplkEq1f3DjL2It1NXxAo3sQKOzGPpeNSuE1+n0vIRk5KHe+UV4hQRUYMSzwSZsjtjZmIzrFvgqZewCpuntEhZtSZ5ZmmaZqXaLPF4ybIq7t8XhxqNeCHxpfBmtVdtyCUN5ZKL9u7EjTuISclDSRnjUSKyX+KJ3YxEJ6OXPBbkSCd0xdg2MLRYL2Y2R1221BATfJZ4vGT5eNSuE19ERNbKt1epTh8DlXr7ZmOSX2LyyN2rHJMW5umcXWrhVVHZO8uUS2BocZ0ko1Tq3Se1iX0ciBqSMku/GkluuR4ZT26Hx/hGWvVFRGTv3L3KdZY8qrIdEbtZt9LfkKQoV72k18DpKr0kkhi3GnOxVPJMjpis09wnWZ8m9+9bOJVmRUb8OwaXcwqR8PYoeLs7i9MmK7mnQmmZ5f9BSESN17oFnnpL/8TEU0Y1jT19e5UibJ7S6pcLygUGkxbm6RxDtePq1BJNHU3fJVS0Nf4mXtx0Hs8N8sOyR3qK03br6Hr9HlRvbtX93pI2fgCkxld9HxRefztHfjFV9/vxC6T7rwsJEcDu5bpjdXl/1ijo8yhkqUqRtnAMnJvW/pzz3XtK3CvjMhoisk6nfnPTOUnr7iU1rhdj1e+ebKvzvYZm2aS1J5AiVyr0ljjK9d9tbFydPNDUsfZtVH6KTcNbOy5gQYg/Fo7tJk6bpCjfzhNfIV/H4FI2E19EZL3kKr3E5JehxJetJI8YGNQPSyW+cgtLcTG7EO1aOKNLm+bitN0Sk0EKb+DF73THLElMfDWkukxEKbOA7+fqjtVnks8a9F52CDcLSpj4IqJGQdPfS/uEp1zsJ5f4kjvOGsnF5pMW5ll9sq4+WCrxdaugBFdyi+DX0gWdPIxbMmtIUb6dL3WssNuUHhHZC7mzYKc2u9fYEyFsntImkl6nfnPTS3pNtoHH3Zi1cXPCA/4ejSrpJZeA4jJHy1B46y93bGxN7i3dp4SIyJppKra0Y1tjmt0HhhYz6UWV2rZwxgP+HrVOemnYdeLrm2nB2Dp7kEWqvYiI6oq7Vzm6j9I9ex+5UoFTv0lbQftqNQt1l+nnZa3EUneoE3ZiqTtRQ0uTSXzVVQWUhpgMakh1/Vjkkoj5jSjx9ePMftg6e5BFqr2IiGyB3InOpCjXytgWQsN5uX5e1kgu6TVwuopJLxtg10sdLY1LHYmoLskligZOV6F76F0AgDLb0WY+WMWeXlAnvWwhYWerLLXUsTH6fq5uBVJdL3OEusps9/KGr3yqr+e68QPdsREzuWOmubjUkYhsRVKUq16ll3ZSLCPRyWZiQ7k43VbajtQnSy11tCS77/FlaUx8EVFdE/thwYYa2MNAXwfI9C0jy2PiyzxyPajqMymTGm968is1XlouqM2cnlkKb6BDsDhaN8TkYodgYMbH2keQsZj4IiJbIpcwkmv1Yc3kTugy6SWPiS87wMQXEdWHU7+54dIhV52G97YQIMiVf4N9D+oNE1/mkdt1cMbH9ZcQMofcY67LHSgtYfdy/WTdi9/V/TJLe8TEFxHZGrnNnDStPqz5xKihE7qBocU2sTSzIVhr4ovNBoiIrMzAxwr1KrxU2Y5Yt8ATSVG6CTFrEblSoZf00vQjY9LLtmyNvwmvRfvw1o4L4pRdEqut6rMKqjGR65nWmPp8ERE1ZnIncFXZjji12R2RKxVWGdue+s0N6xZ46iW9wuYpmfSqBz/FpsFr0T4s2XdZnDILE19ERFbIt1epXoAAdYJp+xIPq0mAnfrNDd892VZ2eeas5TlMepHVE3d0bMkKpDohl0wUk45ERGS/NMmvgdNVOuNJUa7YvsRDp/F9Q8pIdMK6BZ6yyzNtZYMp0mfXia8R/46B16J9yFKViFNERFbP3atcNnmkKbuWK72uL0lRrrJBAdjzgGyMWHXEpXd1R3xtxaSjvQr6PApei/ahpKxCnCIialTcvcrRPfSuXvJLU/21boFngyXAVNmO2LnEAzuFJZmoJiYn22HXPb5G/DsGl3MKkfD2KHi7O4vTJmOPLyJqKElRrojd7Kb3QQx1oilw1F349irVqxCztKQoVyQdcpFNuLl7lSNsnpJBQQOxVI+vrfE38eKm83hukB+WPdJTnLY7X0zV/b4+G9tD3a/LVLbY3B4yDe6Dws173LYm6PMoZKlKkbZwDJyb1v6cM3t8EZE9MNQ/C1r9v3x63avTuFKV7YhLUS7IvOBU7eOw5j5k1sZSPb5+ik3DWzsuYEGIPxaO7SZOm8Tum9sz8UVE9kau8b02316l8OlZiu6hdy2SBEuKckXGhWbISHQyeJ9Q9ztg6XfDYuLLdA25o6PcfTeE+kw+bfxAt8qrsezsyMQXEZFh1Z3chTr5pH2St7ZqSnZpcEdy8zDx1QBCvo7BpWwmvojIvqiyHRG72a3GZJQmCQYALbwq4O5VDoU6GSYmxVTZjpUf/gXZDijIkb6v7vbBoMCqWCrxdSQlD58dvIrx3b0wf0QncdqupMZLyRht4xfIN2K3tKPrgZj14mjDqK9dLMWdHRXe0s6O9q73skO4WVDCxBcRkQGaZFR1J3ehlQRr4VleGdsCgMKrXCe21dyGMtsRqmxHFGRLf3trun2oY1tLnUBujCyV+NqblI1vjlzH9N7t8OwgP3HaJHaf+GLFFxHZs4xEp8plhzV9iMtx9yo363pQb+M8aHohgwIrYqnEV2Mil/iqrySQWP3UkOor2ScmvgDgza2639sjVnwRERnH2GosQ8yNbTUJNca2tWepxJclFeXbeXP7gX4tMcLfA80c7fppElEj5durFGHzlJi1PKdylxlTPqxNDQwCQ4sxaWEe5v56C2HzlCbdF5E1kttVkLs61p3G+toO6dgKI/w9LJL0IiKyZ+5e5Rj4WCEmLczDrOU5GDhdZdLyRlNiW3evcgycrqq8L8a29s2uK74sjRVfRGQLMhKdkJnYDJcOuQImBgHaAkOL4dtTairKQMD6seLLdAkRUhWStvqqQBIrvuqz15bY0L++Kr7kXu8Xv9Pf7ZGqx4ovImpsNC05DG2wZCz3emqa35hZa8UXE18mYOKLiGyVKttRr89BQY5jZY8EqIMBsUcC2Q4mvkwnl4hh4qvuyC0tZeLLdEx8EVFjJ/bwglaP2haeUhyr3d+WsW39YeLLDjDxRURE1oqJL9PJJb7qKxHTGBNfDfl62xMmvoiIyFpZa+KLzQaIiIio0sUsFT47eBV7k7LFKaJakeupxqQXERERic5mKPHZwauIunZbnDILE19ERERU6WKWCp9HXsPeSznilN2RS7rkyyRniIiIiKj+nMlQ4vPIazh0NVecMotdL3VcdSIVuYWlePkBf7g5mdfcWRuXOhIRkbWy1FLHbfG38MKmc3hukB+WPdJTnLYrcj2nLLnsLzVeWt4nV+mkvcwR6iScuOvh8JlAh2DdMVMlREj3pf0YxPs2dB8dgqXXQi5BaI7dy6XHo6HwlpY62rsVMdehKinDO6O7iFNm4VJHIiKyVpZa6rgmNg1v7riABSH+WDi2mzhtErtf6rjqeCo+j7yGwtIycYqIiIhk3Ifdng+rV8osKammSTyJF5EyS/+YjR/IJ82MdXR9VbKpuvsW71dziVFf31Jq81xs2TdHUvB55DWUlEkbiRAREVH1LB2N2nXii4iIiMgQuUonucSQOazhdmpzXY1UoVqsNsRlpGKFGxEREVFdYOKLiIiIGi1LLeOrK5ZKOlkD8bnIJR6JiIiILM2uE18OTcQRIiIiqs7IgNbYOnsQ5o/oJE7ZJbHqSEzOWFJQeM2XuqTw1r8/8VJXyai6fF2tnUMTBqRERESmGN/dC1tnD8Kzg/zEKbPYdeKrwtILQ4mIiOxcGzcnPODvgS5tmotTdkms+BKX41nS+AU1X+pSh2D9+xMvw2eK16o7fnWUZLM2Ffa7jxQREVGdaNvCGQ/4e6CTh6s4ZRa7Tnx9My0YW2cPgre7szhFREREpFfhpMxq3NVJdUV7N0cN8bW3Vz/O7IetswfBualdh91ERERWy64/gfu3V+ABfw9xmIiIiAiQqfiCgSQN1Y7YaF/udbdXgzu0ZDxKRETUgOw68UVERERUnQ7B+kkYMUlDtaPM0n9Ng+u4nxkRERGRBhNfRERE1KiJS+5S481b7qhZJmlouaShcQ1DczXdrjbt4+T6lVV3G8bMGZqvDivoiIiIqCE1uX+fHTeNVXJPhdKyQnGYiIiowbk6tURTRxdx2GRHUvLw2cGrGN/dq9Hs7JgQAexerjs2foHxuyymxkvXNzYppGkyr/CWrrN7uX5FVHVGzNRvQr/xA9Nuo0MwMONj6Wu5518d7cdvDLnH9uZW3e/JeHfvKXGvrFgcJiIianCuTh5o6ugkDptsb1I2vjlyHdN7t6v1zo5F+az4IiIiIi3ZqhLEpOTham6ROGW3gsL1kzimVCkdXW980gvqRFnMeunrhAj9pFBNYoT7U8osJaxJanxVZZspSS+or2vs6yP32MTXmoiIiEhbplKKR6/nWeZEj10nvkb8OwZei/YhS1UiThERERFVqs1yRzGxYwzNdcy5LqC7jNHYJJQoLV5+OaQxjL2e3PNrbP29gj6PgteifSgpqxCniIiIqB7YdeKLiIiIyBhi4gsGkjZkGrnkobhMk4iIiKgu2XWPrxH/jsHlnEIkvD0K3u7O4rTJ2OOLqOGl//IuJn2dDDgG4I31n+KZapZ8a47t8crX+PUpw2trSiK+wLC/HgcAjPn7L1gW3kz3gLQdePLxtbioO1qDEPz76AKEiMOGlN9D8ondWLM+AtGJ6chRqcfdWyGg1wA8OnMaZgz3Ru3/kqmVF+Lc+uU43Pk9vDxcnKTqFeLAolfwVvI07FzzCNqL0w3EUj2+tsbfxIubzuO5QX5Y9khPcdqufT9XN1FjbC+rL6bqfh8Urt8fLCFCtzJL4Q28+J1+/6sOwfqJIbnliDM+rkrWHV1ftXQS6tsev6Dqew2xD9mImYBfsPQYtMk956PrdR9nULj8fWhTZkmvqTa5/mT2LujzKGSpSpG2cAycm9b+nDN7fBHZgejl6P92NIBWmPrlN1g0XIg9tWmOffg9xH3YX5ytUnQcbz30BQ6UAwh/E8f+PlQ3bmQ8S4aUZOHAypX45o9LSM6/BwBo4R2IkOeexXtTAtHCUbyCYZbq8fVTbBre2nEBC0L8sXBsN3HaJOzxRUS2qzwZXy7cgXRx3GR38MeW44D6D/qBA6dR34ujC+J34NVpT2HaG2ux9dQdwH8opk4Ox9TJIRjifQ8ZJyLw5RuvIPSptTihCSBqKfqz2Xju6zikl4szVL17SP7pI7y1lydB7JFY9aXpg2WqDsH6l5Y1JM80FN761xUflzHE65tyG+L1TLmuNu1knIaYUCMiatzuYOvfVyHaAm01c/bvkZJejgCioi1ym6ZgPGujUiLw6vRX8Nb6eGQgAGMmh2PqQ8FokZ+EPz7/AGNf3oFkO3h9mfgiItt1cS0+2n5HHDVN1nH87xSAkEek6rGIHdgqLs3xewS/Ht2IOOHy74el6R6vfK03F2fs2bGUHZg7by2is5ohYNqb2HlgNfZ9/yYWvTcPi95bgP/8shrHdn+MN4a1Qsm1Hfi/Vy2R7AMgncwhU5QXIvrLdzBtZbI4Y1emBrdD9uKxja7aC+pqJDExIzaSJ+Mos/R7jym89SvhiIgavdwILF6ZJI6a6A4O/B4PYCieedwbKD+ONbuFGJnxLOm5g63LViI6F+jx3MfYt/tjLHtvHhYt/hC79nyFl3sAJWfX4pX/1n/s+9wgP2QvHlvrai8NJr6IyDapK7ROfLZcP1FlgvR9ETgHoEfvcZjwkDeAJKzZVk9/3MuT8I9X1uJiOdDjlc+w5e2haC9X+90yEM8sew8v+EnJvq8i+Clfv+4h59QOvDptNl7dlF75u0f2R1NtpU0ugUM1E5dmQp1YJCIiLeqYImfTMvzjrDhpgrTD2HoWQLdAPDEhBL4Azv2628RljWZiPGu70g5jwykAPo/gvRcD0UJ7zrk9Xnh/GnwBZGyU/r1ky+w68RXz6ghkLx5rkf5eRGRlHpqDRQMBlMdj8ZfRKBDnjZKMrVuTAXgjZIg3eoRJgUJ9/XHP2bYGG3IBdHsGy56qoVOUYwCeeDIYLfyD4aRKE2dRkhaHtR99gInjn0L/4TOky9i5eO6jPTiXr3Vg2g48OXwGXv1D+vaPt6Vjn/xFN3tYcHYP3n9xLkaFSPPDxr+O//vXcaTrrANNwj/GzkD/4R9ha672OICiaLw1fAb6D5+tH8iVx+H9kBnoP/wL/KFVhm/0cyiPV9/vK/jmsta4lpK9X6D/8BkY9bkZ69REabvx6itrEZ0FeIY8g5++mYke4jFkN+SSM6z6Mo3cEtHGXO2V8HYoshePtUh/LyKyM51nYtHjrQDcwYaP1+OimUvKLv6xBxcB+I4MRvtuQzHBD0DaHikZVsesOZ4tSTuOL//8OkaFVXNbjSWelZNxB8qWzYB+wegjd2K3W3f0BQBVIZTinI3hJzAR2ShvTP1wHoY4AohajsXm9Fw6G4ENaQD8QjCmG4Bu4ZjZDYAqGr+fEg+2tCz8sVUqax/y2EijGqR7TvsQh379EJ9MDtAZL4heiUkzl+LLP5JR0GGA1E/hoWD43ruDc3+swnNPLUe0ppeCqx/GTA7HEPWmAL5DwjF1cjjGdK5qQpn8y7sYNW8V/rhwD54DQzB1cgj6tsjCifVfYNKMlVW3hUAMHgEA8ThxofLqkrPxOAAAKMTZeCFjEH8a0eUABvbH4ObSkEnPwTEYEx52A5CF3yPlqvPuITrqOAA3THjIzOZEAkWPcVi0ZjX2ff4I+rSppgEt2TxDCRpTqr4SIqSKJ+2LmAgyJDVe/7pyvbKqo2mGL16MTd7FrNe/br6R14WBaq9gmdeUiIiaYfCf38ITbQCkbcGb38vFNTVJwtaNWQC8MSEsAEAApk4NAFCI3/ca+eFjNuuNZwuil2PS419g7YksoJvUb2yM3z3ptqZ8gLUpmiMbTzyrZ8gz2LX7F8ObJqSlIRkALNCsvqEx8UVEtss7HB++In1oHvh8FQ6Y2CjzxF6pUqzPk+PVFTzeeHhqIIBCbNhyvG6b3Bcl4exlAGiPwX1aibPGK0/CN/+IQE55Kzz8+Xc4pOmnoFmb3w1AbjS+2ab+sG7THy+8Nw/P9Ja+7fv4PCx6bx5eGC49hpKjKzH362SgzVB8smU1tvxrgdSbYdN3+Om5ACArAq/+JQI56rvvO1D6II4+odub4uLZqkDr4vkkndcyPT4JBQB6DA+GJ8x4DgD6jAlBCwAZe4/rl/EXncYfUQDcQzChrzhpBr9H8J/VczC1m5s4Q3aqtr2+UuOrdnHUXIxNfGmWVooXU4nXN+U2xOslRBj/3I/KvE4K78a3kyMRkdEcA/H6X8PhCSDjp5X4oTIhY6RTh/G7CkDfR/CEuh1S+7Hh6AOgYNseHKjLJvdWGs8ibQfm/iUaOY4BeOH7qttbtno19i0eCs+SJHz5yiqcU1fYNYp41gznNu6QHldofwwWJ20ME19EZNPaP74Ab/SQqrQWf37c+CWP5XHYuq0QQCAmhFR9UHuGjEQfGGhyb0lZWbgGAAhAD39x0gSX43HWyQ3OfafjjRAhMePcHlMfkz7IL141poXoHWz9KQI5cMPDf1mAh3X+4e+GPi/Ok/oynNqCDeqSbM8B/dEDQMGZS1pNSu/gYnwW4B6IPp0BnLqES1pzJ4+ql5cOVN+BOc+hbzie8AGQFoeTQqV8ybFoHCgHfKdLQR+ZJrewFEdS8nA1ty4jZeum8JavUDKUABKTZPWtoe9fQ5klX532xMfiCBERaXMe/gwWPdwKQDK++XCLSbvoRe/aI53IfWiolIABAO+hUrJErsm9JVllPAuc+HWL1HNs/pt4OVj39jwfmoc3QgHk7sGaKKnPGONZfQXRy/HmpjsAvPHCM0NR382jbhWU4EhKHq7nFYtTZmHii4hsm2N7PLNI6rlUsHcVlkYbt+SxJCoCf5QDGBiOMdr/aPQOx8xQ1H2Te03pcG31mIZft6zGsZXjqoIdLZ6tTTj7lnsaEWcBoD/GDJdZzucYgJHDpZLs6FPqf/37BSPEB8DlOJzU9EUov4QTpwCMeAQvBgNQxeOE5uxlUTyiTwFw74+RmkZZZj2HAIx5yBtAMn6P0s5E3EP0geNa5f5kqsPJtzF1dSy+jbkuTjUqww1UfclVTokN8Y2hSayZc12xCb/4OI0VFC7djjnXl3vccksc5arniIhI5IaQN+bgYXcAl9fj/fXGJXhQdBxb9wJAMB4N1Y6XWmHqtKFAXTe5t8Z4FkmI2FsIoD3GPCD3AeSGwSOkD7EDx9UVXYxndZRc2yJVzAHo8cp7eLkBmtvuvpSNqatjsSZWvxecOew68RWXrsSRlDxxmIjsjf80fDIvAMAd/PGPtYiusVDlHiL2HgcAjJk8Uvhwaobwh6RAQbbs2FI8veErjumIw/uahph6l+WIFg8HgPJ7KMhNx4mI4/jjl7V4/8+vY9QHskfKS0vGBQBwT8cfn63E4qX6lzXnpUMvJmkCsgCMDHHT7YsQH49oAEMGdkePoGAA6Th5Tn228fRpqVfCiGD5s1cmPIceY6TNCC7uOV51dk5TFu4XgjEN8CFtDxyaNBGHGq3xC8QRKfl1VKhqGjFTunQIrvkSFC7drmbp3/CZ0vficYYuQeH6FVQdgoEZH+sfa+gSFC4dr0lIjV9QlQSr6aJ5/GIftI0f6C/n5BJHycnUfMajRFQz96F47wNp6dvFb5djrRH/3i+JlqqCEBqOh9vozjmHhGCMI4C0aBww0Dy91qwxns1NQ7IKAO7h5K/6sezipSvxzQF1kulCmjqGZDyrURC/Hs8/K2200OO5j/FdTRsW1BFLx6N2nfh6eUs8pq6ORZaqTjv1EJEVCHhavQwvNwKL/xVXfX+urAisj5K+PLBIa8cV9WXYX6WkGNL2YGtdNbn38obUjzMdyZnipIny4/DNn1/BsJCnMGrS6/i/v36B97/egT/O3kFAe7kzXQYUFEpLRVXJOLA9AltlLgcu6lfU9RkiNcTU9EVIv5CEAnijT2ArePYJRgCAE2ek84HnTsQB6iBChznPQbNr0eVoRKiDw8qy8IeGGrHzYhbWPisGYdJF3BWoMam4f18carQ6BBu3y6MmwTPj45ovckkjTSLKmMv4BfIVVB3UyS9jLppEm/Z1xy/QP07uIvf4j67XT3rBQOKwMXp+/RlMXR2LkrIKcYqISEeL0Dl4LxRAeTK+XLhDa9mdnDvYukUds0YtxzAxnhnzhZQUQxY2bJX5I20J1hjPFmt2IMzCCZlYduv2CGw9oR/nMZ4FcvYux7R56mWi877Cj/MC0UI8qJ5YOh6168QXETUijgF4eck0+ALI2f4tvhK3HNaSE30Y5wDAvRV8fbxlL57uqNsm920C0McPAJJx9rzUX0BXf3xydCPitC+bntH/8FPF4f2nluKHE1mAXzCmvrIAy77+Cvt2/4K4yNX4aX6geA3DNDu2dHsGO8X7Fi/au78MGIAxlX0R7uHcmWTAMRB9uwHwD8YQdwBnLuEisnD2TCGAAIQM0Cr3Nvs5VJWH7z9xp8HLwsk+yS15BIANH8j3+2psUuPl+3ppKuCIiMgUbnj4gwVSpdbFtfhoezX9ubKO4/ezABzd4CkTy/r6eMPXW+o1VWdN7q0yntV8EYJ/i/ctXtY8UrUTZaOOZ+8h+ZcPMGlRNHLKW2HM4u/w63Pt672vV11i4ouI7EePmVj6eCsAd7Dhr6twskw8AACSseFX6UzOmPe+wa4tX8te9v1jnHSGo86a3AfgiSelD8ADW6p2STRV+rb1+CMXQOgC7Nv0IRY9FYIxA9vDs6XUoys9rfpzhTr820uByLVkk5qqonkwQgZq+iLE40Q0gH7B6OEIAAHoOxBAZhIuXo5H9GUAPv0xWL39NGr5HHo8PA49AJyLOI2c8ngciALQbRymqnc1qp43nlkjEwQd3Yhfn5LJdFCj9YTWskANZRaTX8osaYmjqEMwlzgSEZnNPQR/eUc6c3Dis+UG49CL23ZIJ3JD52GnTCwrXd7EE+512eTeCuNZHz91DJqOZCOWi1ZqxPFs8i8fYNrXSShxbI8nvv4Kyx6S60dm2+w68WXhZaFEZAP6/PktPNFG2qll8fcy7TYvH8fvaQAcQzA1VKaBu8ZA9S4rSMLv0XURKACeU56VHuvZVXj1F8MfhtVJvio9xx695UqRC6WzVcbyCUaIH4DyaGw9oL+kEbiHA3+dgWHjX8H/bdKOwlph8PAAqS/Cr/E4UQ4EDO6u7p3WDH36SXMHVhzHCQAtQgbonOmr1XPwG4oJ3QCcisPJo6cRXQ70GDe06uwdmayHtzveDuuMh7rLtWZtnBTe8k3alVmGd3q0d8os4Pu54qj0Gs3gLo46mjAgJSITeU5egEUDAZTHY/GXcr2hknFgr/Th8/DD1ey45xiMqdOlD69ze4+bnZiqjtXFswhGSCgAJGP9TvnrXfz+FfQfOxfTvtRuj9I449mc7R9h2tfJ0uqZNZ/hLwOFHSkbSD9fBd4O64xRXYTmdWay68SXhZeFEpEtcAzE638Nlz6kZKqWzu3YgwwALaaEI6SyFFpOAMY8rA4U6mo3HMdA/OXrZ9DDEbj49euYtvQ4kmXL0O8h52IE/vHuer3H4ekjPcaLe6KFKq17SP7pI7yv7mUmat9J+ijNva2d1AvAsy9Kjf0PLF+ODdd0S9YLor7FPyKAEpU3Hg7VzQC0H9gfvgD+WL8DGXDDkH5VH9Xt+0lz0cekfgghQ3RLvc19DhJvPDw1EMBxfP2vOBQgEFPHGnd2i+T18HbHO6O74KFAL3GqUQsKr9qJUVvMemk3w8aU/EqNN5z0EhvvE3CfASkRmawVpv5FihHl4lmcjcCGNADu4zB1uDipS9M8HWd3YENdNLm3uni2GcY8I7U/yfh5Of5xVPdkbsm1LVj8UxagAoaM6a+TNGx08WxWBP76WTyAVnj4Hx/ihc7VFAXUs76+CrwzugtCO7cWp8xi14mvOUM74O2wznBzaipOEZEdcx4+B4smy5Tolsfj9z8KAbhhQnjNzWc0Zcd12uTe/xH8uuVNPNG5GZK3f4FpY57CqKc+wvvqXWfeevEVjAp7CmNnr8SGa/fg3DkEf1k5ByHqq/d48hmMcZa2vp42/l28tXQlFi/6CNPGPoVpK/MQ8ngIAgDgimbXGolvB6k2+8SXi/HW0pX44agUMLR4aB7+83h7IDcO/3jqeUz883LpccyejVF/iUbO/7N353FRV+sfwD/sboCguCsoogiWipq4AS6IS6FYbl0t/YmVcMukzLxqamZWbplBm17Xm1tJWi64ggtiKqgJYgiCmBuKAoKy//6YhZkzMzADwzZ83q/X997mnDPznQWZw/N9znPQGCO++ABjxO9iZzcMbCSbnHWV1EOQceqMbvIgYx8MdFPoq8BrkGk6YCBeBHDn9gOg20AMEZ8bkZ70le7eKEq9WneWPaZeVb+8EdJi9mJWHAGB/R0wx6sDLEwNetpNRPrW5hWs/Lf6Gk9/Hj6NLACWw/rgpVIv5AJwGoyJTqjcIvc1bD4L54n4dl4PNC38BzuDpsFj2iosWf49/jPr3/D8l3THwn8vwsfdFB4MdW8+G793D/4sBIAnODhnmkpx/JJDww6ctYhBfwNPf6ktPhrkiIbmZf02ICLDYoYB785U2dY5NyIMO59KaicM7q7cp1abgRjTDZVb5B4AmvXBx//bhCMb34G/Z3tYPrqOg7JdFBOyYdm6K0b833T8sP1/iPrfe5jQTSEFuVEfrNz1Aaa81BqWz6S7MUbehuXAKVi3OxjrgoZLinEmnMNphT/KLTynY+XY9rAs+AfH9h1HcLgs/bohXgpag5PfT8eIrg2RdfG05HncBNq/9ApW7g7G5wPUpUB3Qu9+0v907oQXGyh0mbTHS7L3u2cP9FbsQ/lfg1yzPhgpnbi8OKyPNCWdqHJoCn7Jlv7FHhd7DMfZHZqDXuM/YzF7TQL62eOjQY5iMxFRmVqPew9BYiX4nHPYtVf7C7kl2USVWOQeNW0+C7T3nYc/dkseEzfP4bd9x3HwYjYsuw7Ax99vxPZ/qVtIWJfmsw9wPlLdEzFMRsXMv9Zabv5T5BWoq3tDRETV5wl++/dbWHKxKxb98QnG6KcUQK1T39wapib1xGaqJGd3qN/NENIdDQ2tuPuuBZJsL3UY9Kpaz/MzkV/wTGwmIqJazTDms/XNbWAq2ym+hsjJMPCMLyIiqgMenEPoRQCDfVSy/IgqiyzzS93SvsgdksCYISx9lO3cqC7oJStkz6AXERFRBXE+W6kY+CIiotonN1+y9DT3AX5b+yuuoCEmjC1lVyPS2pnkxxi98QK+i0wRu0jQd6Kk4L2m4Nehb9QHjGqLszskyzfVvQZZIXsGvYiIiMqJ81mNDv+dhtEbL2DLhdtiV7kw8EVERLXP3d8xqe949PD6N5YcfwI4j8WUnuIgKo+0p7mITH6MxEeVVQTEsPSdqLmou6wQvKaMqZoq9rgk4KVpKWfbrsCMH9W/ZiIiItIS57Ma3c2UzEdTHutnab9BB77eDY3F6I0X8PhZvthFRES1mUVD2DUCADO08pyCzetegboSpaQ7YyMjsYnKIAsEuQ4WeyQUA2A1efmjLOB16BvNz3P8Z5KDtDdt52WM3nhBbCYiorqO81mN9D0fNejA18XbGYhMfoz8wiKxi4iIarOWPvjhyC7EnP0f9n/xCl5sJA6g8irinjflNvw9zXW/IA2AlRVYqg6ywFxpz4v1vMrvz1tPEJn8GLkFnI8SEZECzmc10vd81KADX0RERERVqe9ESe0rTdlfUMiski2B1BRsqmyxx7VbitlvoiSjjUEvIiIiqo0Y+CIiIiLSI6tmkuyv8Z9pzv6CQqaVLAgWe7xyg2CxxyVZXT+9BawaU3bxfdkSzr4TxR4iIiKi2sOouFjPOWQ1yIBvI3E9LRuxczzQrFHF90bIzX+KvIJssZmIiKja1Te3hqlJPbFZZ4+y8xCflo0WlhZwbNJA7KZyiD0uKRSvbVCrbVfJ0UaaYWXdrPQAmjqZD4CMB5L/T72qW2ZZ266SYBczvPTjhZUncS8rF7cXDoGFacWvOT/Pz0R+gX6K/RIREelTfXMbmJqYi806u5+VixuPctDGuh7sbeqL3TrJyTDwwFe/dZFIeMjAFxERGT59Bb6o8ugaABNZNZMEwcT/lgW4MqSPW97Hdx0sORjw0i/XFRF48DSPgS8iIjJ4+gp86ZPBB770jYEvIiKqqRj4qj1SrwJnd5QErKqb6+DSi/JTzcLAFxER1VQMfBkABr6IiKimYuCrdoo9LjmqOgjG7K7ai4EvIiKqqRj4MgAMfBERUU3FwFftl3oVuC2tx6XvQJgsyNW2KzO7ajsGvoiIqKZi4MsA5OY/RX4hJxpERFTz1DOzZODLwMh2XLwtBMJktbwUKdb+grRAvawOGANdhuV5fiYKCnPFZiIiompXz8yagS8iIiKq2X67eg8zdv+FN3u1wcpXuojdRERERESVavOF2/jw92t4b4ADFno7id06yckAKr61TA0W808mziQ/FpuJiIhIA2MjI7GJiCrgfGoG56NEREQ60Pd81KADX4F7rmLMxgt48JTp4ERERNooYiI4kV5N3XEJYzZeQG5BkdhFREREauh7PmrQgS8iIiIiIiIiIqq7GPgiIiIiIiIiIiKDZNCBL2P9LgslIiIyeHaNLNDPwQaOTRqIXURUDvquU0JERGToWlpJ5qP2NvXFrnIx6MBXkX6XhRIRERm8/g422DutF2b2sxe7iKgc9F2nhIiIyNAN62SHvdN64Y1ebcSucjHowFfPNtbo52ADMxODfplEREREVEO91K4x+jnYwMKU81EiIqLqYFRczMtQRERERERERERkWHIyDDzji4iIiIiIiIiI6i4GvoiIiIiIiIiIyCAx8EVERERy8Q+e4qsTiTj8d5rYRURERERU6S7fycRXJxIRkZQudpULA19EREQkF//gKVaEJ+Hw9YdiFxERERFRpbt0JxMrwpNwMvGR2FUuBh342vBnKr46kYjsvEKxi4iIiNQwgpHYREQVEBKZgq9OJIrNREREpIG+Z6OGHfg6l4oV4UnIzisQu4iIiEiNYnCzZyJ9Cj6TjBXhScgtKBK7iIiISA19z0YNOvBFRERERERERER1FwNfREREpFnqTvh290THUo+lCBfvV4eEL9DxPbgfinHdPdGx+0Ssvi52ytzFhglaPm4pn5Gr1xuYsvIk0vRZ9aEwAatf8UTHCTuRKvaJso4isKcnOi6IEnsAPEXMrqXwHSh9vgPLeq4JWD3SE76b70pv63J/1bGBm2ORqW5sViy2LfCHW0/JWDe/hdgQ81QcJXH/JJa/MxGu3T3Rsbs33N74GmGpeeIoIiIiqkYGHfgy1vfCUCIiIgM3sL0tfpvWCzP72St3tHXDuLGjNBxuaKY8usrkpkZh9az1ZQeHapC4X3cixtIWdiZ3se9YgthdfiqfkQdccBdnty1E3ylaBKm0FLPyI4Ro9WDp2B20FGHqgkvIQ/inUzDu86NIc5uC1SuWYvHoRrhR2nNNjUb4HSeMHtxS5/snbn5fYexCzPMEwtcEwGdRFDIVBxamYMPbAVh88BHcpi9E8GcB8DKJwvJpUxAUIQS/sqIQ9K+F2BBjjnH/WYrg//jB9X4oAscEYMPNkmHGRpyQEhER6WJ4Zzv8Nq0X3ujVRuwqn2ID1vebM8VNPzlcfD/rudhFRERE2ri1o/iVbh7FjvPPij01won5HsWO3T4tPiF2VCHdnsPfxate9ih2nL2neNeHHsWOA9YURxaIY4qLi4vvFK8fr+XjlvoZZRUf+nhksWO3kcWL/hT7yiF6TbF7N49iRzePYsfxO4pvif0KHvz6vmScuucW/1OxZzeP4h4fRxRnKDTf2jS92LGbR/HscIVGqQe/vl/sOOKn4thiHe9/b0/xa2rG3lg/vdix25jiRdElbQ92zix27DayePaxrJLGguTi4PEexY5D1hRHK3xWkctGFjt2m14cnFTSVpwZUTx7gEexo/8fxQ+kTS5fhRc3/eRw8fP8QoWBREREVBWynxQXG3TGV/DYrvhtWi80a2QhdhERERFVvfP7sS0V8PEeBd9hHkBWKLYdr8ylcY3gM9wdwFNEx8mWCJZTThTmzQkFxgYgoKPYKUjdienLouEyOwC+Yh+AtNgU5Fq2xOQpHrBSaG872BsuAG4ki881D2dPR8PKsy9cdLx/6qH9iIHqWMdJE+GDdOw7HCttuYt9v8YCrfzgP7hRyUATe0yf6gE8PIK9V6RthVHY/etTYPBETG9fMhSWHvAf3xI4fxThDyVNmyZ2x2/TesHC1KCn3URERDWWQX8D92hthf4ONmIzERERVQppXaoFJ5G4bbakRlKfUQg6KF0iViipszTOy1tSZ6nnKPi8E6JSEyl1sz86dvfHhhsp2L0gAG591NVakpzL/w8AOAr/7kIdqcJ0hK2cDR9ZTac+ozDu85NIzS0ZIn++E3Yi8cZ+BL0xSlKrqeco+ATtRMwTxbEAkIfUI1+XPH9pnag0cVgpzh45gkwTD/h6msNisB8mWwJhP+/X6TF0Jl1q2LZZE4XGKATpVJ/tKcI//xK74YeQ+R6wFrsVFaZgw9wQxLl9hA2ThSWzUnZjl+LsqR0IchE6kv5GHABrS+GiZWE0wiMAL3dXQMf7x8UnAHCFmzi2gRNcOwKZ0VclSyMLExB7HYBbV4hDLZw7wRFPEX1FGlC7lYDYQsClmyvEy6surq4AonFWGk/r3daa81EiIqJqZNCBLyIiIqoGUWsweZM5Ji9ZisXjRsHLrZEkGOLvh3GfH8VtJz8sXrEUq99zB2J2InCMP5bHiFlPd7H+nTewOL4lAhcuxerZQ2F35ySWT3sfG1IBoAm8Zi/F9B4A4IrpK5Yi+PVOkrsWpmDDFD8EbotGpvMELF6xFIvHdcLtXxdi0LSdSBRrTt3ZgckTvkZsuzewfMVCzBvRBLePh2Dc28q1ohI3B2DQnFDENfXAvM+WYrW/E26EBGDeQYVBpck5iW2/PgVGjIJPAwAmbhj9ciMg5gjC7ouD9SEPmTf2I/Dzo0BTP/gPMxcHaC0zYg3m/QFMXvE+epiIvcoSty3F8utuWP7ZKNiJnZoU5iHt/E74Lz0KNB2F6cNtlfuvRCG80ANevZWb5TTe/y5uJwHo6IC2wl0Ac1iYALiRgkQAuHMXNwA4tm8pDgRMzWEBIC4lRXL7VjISAXRsq2as9P25kSpmrREREVF1YOCLiIiIyvbHXJUdAyWHmoyhh3nwWf4lgl72wOQPA+DbHMg9vh7LY/Lg8u4WnP0pAJO9PeD75kKEHV0K3wYp2PDJFsQpPchT5PZeirO/LMT0l6Vjv/WDFRKw9/hdAOZwdPdA39YA0BJ9vT3g4yIJdqT9+iWWx0HpXJM/XIOw1UNhFxeC6T8IBeWz8tB3RSjCPpsAX++hmP7ZFqwf3wi4fgSHZZGvnJNY/U0C4BKAfTsVntOOAJXsIE1yzxxBWGEjTB7tLm/rMcYPbRCL9b/qoci9ymfkDbfXvkIYhiJ4hxiwcsfqSxG4cWkhvBSb1ck6icULjgKTPsPiHmKn4OZWzF6TgL7zF2Jcc7FTg9NfoWNPb/SdEYLwHDfM+/59eDVQHhJ3OgqZvd3RV2gHtLs/TMyhGvZrCUcnAIVKaYCwMFUdibb26AgAYnxWXRCwQyfJz4QYYCUiIqJqwcAXERERyf129R7sFh3Bh79fU+5Q2TGwtB0d3YXMnDyEHTwJwAP+k4Slb7KaSKlHcUg58gUvb+WaTGjvBFfFrBu17mLfb7Fqz2Xl6Q//zsDtPyKEIJs7fDwVajoB6OjcCUACbshOFRWBsELA138CHBWDHe0nIHCYwm2N0rH755NAKz+MV3xvOnvCty1we/t+nK1ooETNZ+TzYiNYPDyKwIlzsVthp0HtPcW+RQuxr/EUbPhQssxQo8IErH5vPeIGL0TwWCFjqzR2HpIMwNmj0NcyGssnTMA8pR0U7+Ls6btwGeCmPoOszPsTERFRbbL5wm3YLTqCpUf0cGGQgS8iIiLSSrcJWP7JR2qOUaoZTyrLyh4h7R8Anbuih5iJA8DlRVfJkjSx0JWYTdO0iSTwIWbdKEnBjesAWpkj88xJhB1RPBLwoIFkSVuqEGSyEM5l10QSuMmVjktNTQHgBFcn5XEA4OKsplF0PwJ7YwDc2Qpfpawsf4SkQj9F7tV8RsFb9iP6F3+4PIzCvPfWCwG/sqXtWYig4y0R8KU/XMTPQxCz8iOE3PHA6iVDlQOWZensLs0A/Ahbf1kK3wbp2L1gfUkg8GE0wq+3hFdvNcsKocX9NbqLxAQAJmKVLjVSU3ADgJq0MVXSOmMqP79ERERULQw68NVvXSTsFh3Bg6fKKexERERUidQuKytFmQEK3eQWArhzFIvnLESgcGyIAYAU3L4j3qtyxf26EzFoiXH/WYrgFeIxAT0AhB08icqYsVh0nAD/wQBSo3BWp9d9F/t2RgO4i5DXFYN1E7H8OoDrIRjUXbapQBS2bk8HCk8iSLahQHdPdOw+F/tQsgzTd3MZda8sPTDl5UZA1lXESZ9r7vkonLV0xyCVCKsaKvdviTYdAFz/W1LHS0me5Geloz0cAaBVS3QEEJegJqOwIA+5AFzspVmE7RzgqHb3yZKfZ1n9L9cVEbBbdAS5BUXK44iIiKhKGHTgi4iIiGqCJrBrDeD6VcTkiH1AXGysJEChdh2bruzh6gKgoz/CLkXghtpjPaarVjovVVsHewAJiL6qmpWVmFBWGn4CDh28C7QdiinjPeDjLR7+mDIYwPE92F0pRe7LS7KBgGqg7n34tgLQaigWyzcV6AR/lXElQT30mIDgFUsxz0Oys+TZlX5w6zkbux+K5wQycqXLFKUZU2fPnAQ83SWPI6XL/SUZebGIFtPdchIQewOwcusqyVA0cYJrZwDRV1Uy43Lj/0YiGsHtRWnWWTsnuJoAcZdjVYKVkp9nN/QtY2UoERERVQ0GvoiIiKiSmcNnhAeAk1i/XcimyTqJ9bvuAk09tMvoEUlTy2RLEoGW6DugJXBjD4LFOk9ZUQga6glXv60qgY0y9faEjwkQtknYFTLrKHaXtatjzH5sSwXajPBUXRYKKLw/eipyL7q5E+uPA2jrjr6txM7SSDYQUA3UucPVEoBlJ3jKNxWwhYvKOA/4eLtJgkqt3eDj7YG+7SUfmFu3rsgsjMbWvcLPw82dWL1X8bnGIjwC8OnvpjRM+/sDbYePQg/cxe6fo5CpMDRx+w6EwRa+w2QRqpbwfdUVuLMf6xV/dgpTsGHTSaCpN0a/KG0zcce4VxsBETuwTbF2muznufdQeDVVaCciIqJqw8AXERERVTqLwf6Y18McceveQN8ZIdh25CT2bV4Kn6ELsS/HFuMWvqGU0aMtR3snAFHYFnIUYVEpkuVob3+JeS7p2DfLDz4LdmLfkZPYt/krTHltLvY9tIXP+34aAlClaOCB5auHwu76evi8thQb/pA9/6UIE8cKzh48gky0hO8QzbXALPp7w8dEXZH7WGz49CvMU3fsEYJkl3eqjAl6ZyJc/dYjDrbw/XCiwuuOQpCmXTmrgIV3ABZLfx585kk+o20hC+EzMQRxcMK8b/wlzzXuLMKz3ODVW3nxrNb3B4DmfvjPZFuk/TEXPjNCsO3IUWxY8AZ81yXA7uW5CFL4wbN7NRDTm6djX9AUTFkZirA/diJogj9WX7eF70J/pZ0x+04PgJdpApZPfANBm48ibFcIpry2EPtynDDvP6PUF+InIiKiKsfAFxEREcmN6doCaUu8sfKVLmJXxZjYY/r6UOz+z1C0SQjF4jkLEfRNlGQJ3G87sVzYVVFbbccGYLoLcHbDUgR+ekRSx8nEHtM37kDw5K7A6fUImrMQQd9E4EbzoVi8cStWl/NcVp4LEbYxAD6IwvIFCxEUEgWr0UuxNUBzQAs5J7Ht16dAq6EY3lnsVNDAHb6D1RW5v4uze/Zjt7oj+pHCOACp0Spj9sVkoY37BCz/pfyvu3K0xOT1odg92wM4HYKgOQuxeHM00D8Au4+tx/T2klGp56Nwu7M73FWyp7S7v0yPD7di93+Gwi5+JxbPWYrlEYDbW18ibIm7ciF+E1fM+yUEi0c0Qez2rxG4IAThhV0R8K2a96/5KKzftxTTe+QhbM1SBH4eitjmQ7F8Z4jK+YmIiEh7b/Zqg7Ql3ljoXcocSwdGxcXFxWKjoXg3NBa3njzDpondYFPfTOwmIiIiIqpU03ZeRnpOPvZO6yV2ERERUSXLyTDwwBcREREREREREdVNORlc6khERERERERERAaKgS8iIiIiIiIiIjJIDHwRERGR3KPsPJxJfozERzliFxERERFRpbuflYszyY+R8viZ2FUuDHwRERGR3Kmb6Riz8QK+i0wRu4iIiIiIKt2h62kYs/ECtly4LXaVi0EHvjb8mYqvTiQiO69Q7CIiIiI1jGAkNhFRBYREpuCrE4liMxEREWmg79moYQe+zqViRXgSsvMKxC4iIiJSoxjc7JlIn4LPJGNFeBJyC4rELiIiIlJD37NRgw58ERERERERERFR3cXAFxEREVVMxFJ07O6p9nDzCUDQrlhkivfRt9Sd8O3uCd/Nd8WeahW+wBMduy9FuNihyf1QjOvuiY7dJ2L1dbFTSvpaOy6IEntUVfVnU5iA1a94ouOEnUgV+0RZRxHYU9PreIqYXUvhO1D6fAe+gSkrTyJNY/WKBKweqfj55yH1yNcY5+UtuX+fURi3IBQxWcLdALXnCtwci0yN5yIiIqLaxKADX0b6XhhKRERk4JybNcIcrw4Y1rmp2FUmKxcPjBs7quQY4Qa7nFjs+zwAPp9GIVe8A6mI+3UnYixtYWdyF/uOJYjd5VZVn03Myo8QUmbECwDSsTtoKcLUBpfyEP7pFIz7/CjS3KZg9YqlWDy6EW5sW4i+UzQE1FKjEX7HCaMHt5Tc3BaAQXNCEdd0FBavWIrF4zrh9sGvMc7va8QI50zc/L7CuRZinicQviYAPoui9BIUNOKElIiISCfdW1lhjlcHeDg2EbvKxaADX8X6XhhKRERk4JybNcJHgxwxrJOd2FWmNj4BWP7JRyXH8jUIC9+CoM5A2p4t2H1fvAcpS8Chg3eB3m8gaDBwe/t+nFUbGNJdlXw2MV8jYHs6YCJ2qErbsxTzosVWqetbsHhPOqxGLEXYWn/4entg8och2DXbCYgLwZoI8Q5A2vkoxLVyR9+2AAqjsGZNAtDZH/t2vo/J3h6Y/OEahH3mATwMxeq96SV3vB+Kj9ckKJxrKKZ/tgX73nVC2h9fYnWM4lnKp5gTUiIiIp10a2WFjwY5wrODrdhVLgYd+Jrepy3meHVAQ3NTsYuIiIiqgok9XhnpBCAW0fFiJyk5vx/bUgEf71HwHeYBZIVi2/E8cZT+6POzyYnCvDmhwNgABHQUOwWpOzF9WTRcZgfAV+wDkBabglzLlpg8xQNWCu1tB3vDBcCNZHE5ax7Ono6GlWdfuADAnRTcKAQch3nAUSEIZzXMG74Azkb/LW9LPbQfMVA9l+OkifBBOvYdjlVoLZ/A/g6Y49UBFqYGPe0mIiKqsQz6G3j6S23x0SBHNDTX4tIjERERVYq8gjwALdFGSCLLTT2J5e+8gb6y2krdveH22mwsP66QkSOMdespGevqJa1PVVpG1M398B/qiY5DlyLsiUJ7YTrCVs6Gj+y8fUZh3Ocnkaq03u8uNkyQ1KpKvLEfQW+Mgmt3T3TsOQo+QTsRo/h4gGpNKWmdqDRxWCnOHjmCTBMP+Hqaw2KwHyZbAmE/79fpMXSl/rOJQlB3XWqTPUX4519iN/wQMt8D1mK3osIUbJgbgji3j7Bhsr3YCwCwG7sUZ0/tQJCL0JH0N+IAWFtaKLcXRiM8AvByd5Xcrt8I1gASbwoBsjt3cQOAlaWlvCkuPgGAK9zEczVwgmtHIDP6qvqllToI6GePjwY5is1ERERURQw68EVERETVqDAPaefXY3ZICtB7CqYoBhdSd2LcmIXYcLMJvPwXInjFUix+yx12qdHYEDQdy68ojL0pHRsDeL23EMEr3sdkp7uS+lTLNNSnun8UgTO+QjiGIviXhfBpLG0vTMGGKX4I3BaNTOcJJfWffl2IQdN2IlEMpN3ZgckTvkZsuzewfMVCzBvRBLePh2Dc28q1phI3y2pKeWDeZ0ux2t8JN0ICMO+gwqDS5JzEtl+fAiNGwacBABM3jH65ERBzBGH6WIYoKu2z0VFmxBrM+wOYvOJ99CjjWmPitqVYft0Nyz8bBa0X0xbmIe38TvgvPQo0HYXpw4VlD1eiEF7oAa/e0ttNvTF9rC3wx5cI3HtX8vPxJBar54YgzsQJga9LA2S4i9tJADo6oG3Jo0mZw8IEwI0UJIpdREREVKsw8EVERER6EbdmovLOgT290XfGVsR19kfYt8qBjriD+3Ebrli8ZQ2WvzkUPt4emBywFGHf+sEK6TgbI8vWSce2T0MQBw+sProFq98cCh9vP8z7aSuCR9gi98wR5WwuAHhyEkH/WoowDMX6UIWgF4C0X7/E8jjA5d0tOPtTQEn9p9VDYRcXguk/CAXls/LQd0Uowj6bIK//tH58I+D6ERyWRb5yTmL1NwmASwD27VyI6S97wPfNhQjbESBZeqeF3DNHEFbYCJNHu8vbeozxQxvEYv2vFS9yr8tnA7hj9aUI3Li0EF5K7WpkncTiBUeBSZ9hcQ+xU3BzK2avSUDf+QsxrrnYqcHpr6TPNQThOW6Y9/378GqgPCTudBQye7ujr7zdHF7zN2D9WEuELZooydTzCkBIshvm7QzBdDHKZWIOc6EJaAlHJwCFasOqREREVIsw8EVERERyZ5IfY/TGC/guMkXsKpPKzoFjh6Jv+0ZA3Hr4TPwaZ7NKxrq8tQXRF0MwWQyAtGiJNoq3H55FWAxgNX4ifEtWqAFoBJ/loYgOWwhfhcAW0k8i6LWF2Jc7FMGhC+GldJ+72PdbLAAP+E9SXmZn5ekP/87A7T8iEKfU4w4fz0ZKLR2dOwFIwA3ZWxQVgbBCwNd/glJNKbSfgMBhCrc1Ssfun08CrfwwXpa1BACdPeHbVj9F7nX5bLT3FPsWLcS+xlOw4UNZFpUGhQlY/d56xA1eiOCxOhSqtfPA4hVLsXr2KPS1jMbyCRMwL+KpwoC7OHv6LlwGuJUE7wpTsDtoOvz33IXj4CnS+w+Fi0k0lv/rfWy4qXB3IiIiqnEO/52G0RsvYMuF22JXuTDwRURERHJpT3MRmfwYiY9yxK4yqewc+MlCbA3dj+gVQ2F1MxRTPj2psiwxNysdiedPIuyPnVg+bzZ8pqxXDjw9e4oMAG1aaBcsidscgn0PAWRFI/yyWBg+BTeuA2hljswzJxF2RPFIwIMGkjpQqUKQyUJYvmfXRPJccqXjUlNTADjB1Ul5HAC4OKtpFN2PwN4YAHe2wlcxK6u7P0JSoZci9+X5bMqStmchgo63RMCX/nApY4ljzMqPEHLHA6uXDFUqIl+mzu6Y7O0B3zc/wtZflsK3QTp2L1hfEgh8GI3w6y3h1bul/C5pe7/GvIh0uMxej7DV/tL7L8S+A1/C1zIWy2eEoOzNGu8iMQGAiVBPjIiIiCrd3UzJfDTl8TOxq1wMOvD1bmgsRm+8gMfP8sUuIiIiUsPYyEhsqjAr74mY3ArA8SiclTU+icLy17zhOtAPPjMWInDRFuxLAFw9uypnfOmq+Sis//1L+DZNx+7FXyNciN/lFgK4cxSL5yxEoHBsiAGAFNy+o3yfyhb3607EoCXG/WcpgleIxwT0ABB2UPfAlDbUfjZauYt9O6MB3EXI64rBuolYfh3A9RAM6u6JjguiAERh6/Z0oPAkguQbGXiiY/e52AcAf8xFx+6e8N0s7tYosPTAlJcbAVlXESf9jHLPR+GspTsGKawpjY2OBjAUgWLxfEt3BE6yBx5GIzoVkqL+HQBc/1tNHa88yc9KR3tUtCz9tJ2XMXrjBbGZiIiINND3fNSgA18Xb2cgMvkx8guLxC4iIiJSo6i4WGyqBOnYPWcuNty0R8BPOxB9LgI3Lu7H2V/WYLW/u3JGkHSHvtv31Oz0eHAhOg58AyEKKWIur0+BV1t3LP7PUFg93I95KxWL39vD1QVAR3+EXYrADbXHetUaUGVo62APIAHRV1WzshITyqrPlYBDB+8CbYdiyngP+HiLhz+mDAZwfA92V0aR+3JrAq/ZYpBuKYJXvA/fVgBaDcXiFUsR/HonAJ3grzKuJKiHHhMQvGIp5nk0AQCcXekHt56zsfuheE4gI1e6zFGaYXb2zEnA013yOErykKtFpFCSkReLaOX1rUBOAmJvAFZuXdUUvtfNn7eeIDL5MXILOB8lIiLShr7nowYd+CIiIqLql3l8B7bdATDYHX0BAH/j7HkA7T0xundLWMlXk+Uh8eARxCkGupr2hU8PIPOPPQhTrENVmIINm04CcEOPzgrtUlaDZ2PxYCBtz5dYLl/X1hJ9B7QEbuxBsFKdKABZUQga6glXv61CjS8t9PaEjwkQtknYFTLrKHaXtatjzH5sSwXajPDUUAjfHD4jPAA9FbkXqX422jKHo7sYpPOAj7c7XC0BWHaCp7cHfFxsAdjCRWWcB3y83SRBpdZu8PH2QN/2khLzbt26IrMwGlv3CnXmbu7E6r0A2rqjbysAiEV4BODT301pmOuLrgBOYv1u4f5ZUQjengJYdoVLK0lT2+Gj0AN3sfvnKGQqDE3cvgNhsIXvsDJqlxEREVGNx8AXERER6cXtsBDM+/QrpSPw9VFwCzqKTBMnzAvwgCTG5QYfbwA31iMgcD22HTmJsF3rEfi6H3ykuypmZsmiXLaY/EkAXHKOInDoGwjafBRhf+xE0AR/rL5uDq8P30BftfWlGsF37kfoa5KObXO+Row0IOXy9peY55KOfbP84LNgJ/YdOYl9m7/ClNfmYt9DW/i876chAFWKBh5Yvnoo7K6vh89rS7Hhj5PYt3kpfIYuRZg4VnD24BFkoiV8h2iuBWbR3xs+JmqK3F/eqfJ+y47d1xXG6fTZAEAUgrp7omP3pQhXepSqYeEdgMU9zBG37g34zJN8RttCFsJnYgji4IR53/hLPqO4swjPcoNXb+U9Ge1enYt5LkDcGn94vROCbcJn7PuZf8nPTHM//GeyLdL+mAufGSHYduQoNix4A77rEmD38lwEqaaSERERUS3DwBcRERHJjenaAmlLvLHylS5iV5ky405i9579SkdYqjl6vByArQfWY3p72Uhz+Hy2BctfdkXaha2Selvr9uNB1wDsO7YF8zoDuHy1JPOq/QTs/m0ppvcAwr9ZisAFIQgv7IqAb0OxfnQpRe+bj8Lns52Ah6EIWBkraTOxx/SNOxA8uStwej2C5ixE0DcRuNF8KBZv3IrVwg6O2rLyXIiwjQHwQRSWL1iIoJAoWI1eiq0BmgNayDmJbb8+BVoNxXA1WWtyDdzhO1hNkfvUaJX3W3acvaf4ALp8NjVBS0xeH4rdsz2A0yEImrMQizdHA/0DsPtYyXNNPR+F253d4d5UuLuJPaZvDcXWt9xhER+KxfLP2A/Lf1H9jHt8uBW7/zMUdvE7sXjOUiyPANze+hJhS4Rlt0RERFQl3uzVBmlLvLHQu5R5lA6Miov1vHiyBum3LhIJD7MRO8cDzRpxVx4iIiIiqlquKyLw4Gkebi8cAgtTXnMmIiKqSjkZBh74IiIiIiIiIiKiuikng0sdiYiIiIiIiIjIQDHwRUREREREREREBolLHXWQ+FTY+rwWcmjYUGwiIiIDYWJkJDbp7FF2HuLTstHC0gKOTRqI3URUzWr7fJRzUSIiw6aP+ej9rFzceJSDNtb1YG9TX+zWCWt86eg/l65geax0V6haqJ9dU/wycKDYTEREBsDG3Az1TEzEZp39dvUeZuz+C2/2alOunR2JqHL960wkfk5OEZtrjQn27bCmZ0+xmYiIDICtuTksTCq+sHDzhdv48PdreG+AQ4V3djT4Gl8x/2TiTPJjsZmIiIg0MNbDVToiKnE+NYPzUSIiIh3oez5q0IGvwD1XMWbjBTx4mit2ERERkRpFTAQn0qupOy5hzMYLyC0oEruIiIhIDX3PRw068EVERERERERERHUXA19ERERERERERGSQDDrwZazfZaFEREQGz66RBfo52HBHRyI90XedEiIiIkPX0koyH63ojo4yBh34KtLvstBK0c+uKT7o0gW/DByIc8N98MvAgVjT0w0T7NuJQ4mIiCpdfwcb7J3WCzP72YtdRFQO+q5TUhkm2LfjfJSIiGqMYZ3ssHdaL7zRq43YVS4GHfia3qct5nh1QENzU7Gr2rVt0AC/DByIXwYOxHj7dkjNycaulFtIzclG2wYNsaZnT5wb7oN+dk3FuxIRERFRLRHY3wFzvDrAwrTmTbtl89E1PXuWOh9t24AZoEREVHsZFRfXgstQNcR/Ll3B8thYsVln/eya4peBA5Gak4PZFy8iMu2hOARtGzTAmp490bZhA+xKuYVV166JQ3QmOy8RERkeG3Mz1DMxEZuJyMD860wkfk5OEZt1Vl3z0Qn27bCmZ0+xmYiIDICtuTksTGrWhZ6cDAPP+KqJZFfWdqakoM+hMLWTDABIzcnBa6dOYVfKLYy3b8fMLyIiIiLSC1nQi/NRIiKqCxj4qmJrevZEZNpDzL4YLXapteraNUSmpfHKGBERERHpRZBzF53no6nZOZyPEhFRrcTAVxXqZ9cU/eyaYvbFi2JXqVZfi0fbBg1YYJSIiCpd/IOn+OpEIg7/nSZ2EZEBmCDN3NJ1Pjr74kW0bdCAWV9ERFTpLt/JxFcnEhGRlC52lQsDX1VIVhg0NSdH7CpVak4OItMewr0pJxpERFS54h88xYrwJBy+rn7pExHVbm0aNAQqMB/t29RO7CIiItKrS3cysSI8CScTH4ld5WLQga8Nf6biqxOJyM4rFLuqhXvTptiZUr5ipGcfPkQ/O040iIiochnBSGwiogoIiUzBVycSxeZq06ZB/XLPRwGgLy/EEhFRJdP3bNSwA1/nUrEiPAnZeQViV7VoK73CRkREVFMVg5s9E+lT8JlkrAhPQm5BkdhVLdo2aIjbOc/EZq2cffgQbRtKVjAQERFVFn3PRg068EVERERERERERHUXA19ERERERERERGSQjIqLi/WdRVZjDPg2EtfTshE7xwPNGlmI3Tr7z6UrWB4bKzZr7ZeBA5Gak6311tGKPujSBePt26HPoTCxS2v97Jril4EDxWYtpGPzD7FY9VhsV2BujA62jfHmsPbwa6VLCnwqPv4iGQdgieCPu6M8z6688h4lY9mJfLz1mhNai536VvAEp84kY92VbMRnS5c6mBqjaeN68OvRDlN72MFSH2Hoh/EYsz4NSTZ2OPi2c+W/Lp0UISvpb3x83RLBI6rhmT1LxsffpSK+pyt+87QVe4lqPRtzM9QzMRGbdfYoOw/xadloYWkBxya6/D4nInVeWHkS97JycXvhEFiYVvzL/l9nIvFzcvlrdP0ycCDOPnyIVdeuiV1l0sd8dIJ9O6zp2VNs1gLnoxXG+WjlzUcLnuDo4QR8e/05knIlTeb162For7aY37eFft5XolrA1twcFiYV/4G/n5WLG49y0Ma6Huxt6ovdOsnJMPCMr6JqDOnJtntWPNo2bIC2DRqqtGtztGkg+bDF9n41ZUvpvCIk3UvHoi0XMeWUfrYcrVSPEjD5p1SEPqqCjQ8eJGDK138h8GxWySQDAAqK8PBhDn46Eo/+6y7hVPnKbdQe8VfQf1caTim+B1Wl4BF+2paKA3liBxGJmjQ0R38HGwa9iPSkqBqvMWuaj7ZpUF+lXZtD03xUtnN5teN8VDPORyUqYz76IBEz1v2FoCvPkYR6GOhsCb8O9WCV/xwHTiWg/38TkKTH0xHVBc0tLdDfwabCQS8Zg874ivknEzn5hejvYCN2lYsuGV/nhvtUySQgNSdH66tu/fSQ8TXSdyC+cBH7gbxnj7B/XzwW3SwCUA/zZvbGJGtxVA1SVVeicv/BopAkhOYClq2a4IthHdCnRT2YA0DBcyT9nYRVRx5JJhktWuH4VEdUKJRZVa+rPOIu4cV9WUBHB1x5ra3YW3my/8HyTUnYniW52aEvM77IMOkr44uI9Ot8agbyCov0Nh/VJeOrJs5H9ZHxxfmojjgfLaH3+WgWQjddwqJ7gHMPJ2zwaQFLWVfBI/y0MQ7rHgGte7rgoHcT5bsSGSB9ZXzpU06GgQe+9E3XwFdkWhpWX4sXu/Smn11TrOnZE632hIpdalVm4AsAUJSGdd/F46esWhBcqKIv5LyYi+gVlgPY2OG3Gc7ooO53QEYiZvxwB+eKjDFpfH/M6yAO0EEVva5y0ftEowwF2Th3Jh7zzuXgYZG0omFRLfjZJConBr6I6gZdA1+7Um5hV4p248tD1/loZQa+AM5H1eF8VIG+56Oy19rQFlsDXdFNfG/vxGHElkf4x7wxtga9gG5CN5GhqamBr5r1jAzM7ZxnSM3JqbSjxjG2g4e95EcqKS1b3nzql1N48YsobE65h83bI/HiF6fw4sozGH/ikbSmwim8+MUlnAKA3GQEfXUKL35xEQek6+NF/0RE4cUvTmFwWJpCaxGy7iRh1aYoDF59SnKOL07hxTVRmHEgGf8UlIw89cspvLg+DUkA8DgNIxTPL1OUg8tnLmH82jPyx+r/3XmsuvwEuqyWS8vMl/xHk4bqJxkAYN0eExwAmAK3H0nTkiD9Iv3iFF78IR7/KI6Xkr0PYyLUp/LnZkve715fSZ5/r2D1z1/2OB/HFSErKQEfry95zb2Cz2PVFYXnJMh7lIxVm6LQf6X0/V59BuN/ScBlpfTxdGz+4ZRkkgEAN5IlYzW8Ln3558xfmHE2Bw9hjIF9nbC1t5k4hIiIyODdzslWmUPq86hxqnM+WpSD+IuxmPHdGfn8S9MckvNRZbV2PppeiEwLAC2tVINeANDKUhLsyitEpthHRFVG3T9PonLLzNO0gL0QP+5JwKp/jDHQ2RIDrYE2tvJE4BIWrTDUHgBysD9O/EoEgHQcjc8HYAK/F+ykbUVIOnUR/bf8g80PCmFh2xB+zpbwszeDeX4+zl1JxYiN8fK19Xb2lvBrbyZJ7zY3w1BnS/g5W0L2aChKx+YNFzHlVBbiC43Qp4Nknb5F9nNsPvgXhu9JheavXmV2VtJgy/1MxGt6a2CMoeMH4sqH/RHcW817Uh7Z6Qj8MQGr/gF6OEjeC5Tx/OMvxGD4rns48MwcI50tMbKFCfKynmPzgUsYr6ZORlbcJQz6KRWb7+UDjRvAz9kSAy2B+Bv3MOW7i9j8QPaCLdChoyX8WkkzUSwlY/06WqLiW06UwtgEzs6tsSuwL4I9W6Apf9sRERHVCdUyHy1Kx+b/XsT4I+k498xIMv9ytsTAJsbIypDMwSYrBIc4H1X//GvdfLSTK47PHqg5e+xhNuLBv7qJqhv/CZL+FN3BaWkmfZ+2Ylp5EbLyG+CLQHcEj+mO4Bn9sbqbuTAGAMwx8gXJl+2p+NsqV4Pw8AFCHwOwbIxRraRtGTex/OxzwNgMH0zti4NT3bBkTHcsmeSOC4FtMdIcwKM0/Cj9pnfu3R1LhjRGGwBo2BgfjOmOJWMc4QwAyMOp365h1SPAsn1rHH+/H34a3x1LxvfG8UAnzGgCPPw7GUHn1H1VqzLv1hKTLABkpWP8uvNYFJGKpGyVV6V/eYX4B5YIDpQ+/0nuuDCjNYZaAA//voVv1VTYTLqTg9Z9XHDh3d74Ykx3fDG1H86MbAhzAPHn/8FlxcEPEzD9jyxkGZthxqTeOOPfE0vGdEfwjL447tMQlgXPsep/sbhcBAANMXBIdyzpJa0x0ryZ5PMZ0rpi9SPK0Hpgb+wa0wHODflrjkgXv129B7tFR/Dh77rv+EZEVO2qaT768HwiVj0E0MQOv8nmj9K50ZkR0vnUuVs4JZ2CcT5aF+ajRbgc9UiS1WffGH3EbiLSaPOF27BbdARLjySIXeXCvwhriAn27fBBly6YYN9O7Kr5ivKQdS8V67bdxPZcAMYN4de9oTgK6NAMI7XZlMG5GSaZA0h5jKNCevk/sU+QBKB1p+aQlR7ISspAooUxLJ3b4c1mwo90QwdM6iRpi097otynTkYKfvy7CDC3xBdjOihnCdVvgXdH2KI1gHMXUiVfYmUxboV5U1tjaH0Az54j9Gwyxqw7hxdXnsGYTdFYd/YOkp5Vxk4+Jpgx7kUMVHy/bTpgiVcDAEXYfv6W6iTOsgm+GNREcuVR1vRiC7xqDiAvG5ceylqLcC7yAeKLgA59OuFd+3oK9zBG0x4umG8PIPcJNv+lchYiIiKqoTgfVaDTfDQHf6bko6m5MSYN6iQsJzSGZTfpfKroOZJUk5ZUcT5qEPPRrLgrCLhaJHkf+rdTek1EVLUMOvDVb10k7BYdwYOnGhbn1wBtGzTAueE+WNOzJ8ZLi31W1Q485XFgX0m9Avnx1Tn035SMn+4UATDGyJddMFJNzrBzcy3Tpo1bYHBHYwA5OBqv+EUlSys3w8QeJbuiWPZww/FZ/XHGV5YCpqyppfbFnh/GP5FcSWrTGAPVvAa0sYGHOYCsTJx6JHZqYNMBq9/tg9987eDXwgTmxpKto5PuZeOniESMWRuJwdvihToEFdTQGt5tVP95W7rYYCAApDzBObGzpbU8mFiiHlqpzBnv4fiNIgBmGNVFvJIKAPXwUgfJ5ONoomIdNiIiorrHdUUE7BYdQW6BHr/n9YzzUTV0mo82wMjx/XA8qD/mdVSdf6mfT2nG+ahI3ftXs+ejeXfiJdloAJz7OuNdNe8DEVUd/gusZmt69kRqdg5a7QlFn0Nh8q2gf/Eoz+6L1ce8vhn6ONsheIY7vnBRvOJSokOTxmKTBsbo42IFcwBH4++UXAnKeISjjwHYNMZQTTnJBc/x8FEaTl1JxvYjlxC4/gxGn5MW9NTCP2mSs5lnpGPRb5fUHPcQAwDIx7X7wp1LY2yODi7OWDK1Hy581A9nZjgj2LMJBkov4T28nYYpP16RbCOtD03rq5k0ALCohzayK47yK2YSHZpoc/kTQNYzJOUBQBH+jBTfH8mx7rr0PU/LqljBUCIiIqp0nI+qU/75aN6zbPyT8g+OXknAut8uYvzaa1j1WBylGeejWqjB89GslFhM3paG+CLAuYcTNtTknUWJ6ggGvqpZP7ummH3xovx2ak4OZl+8iLYNGqCfnYZv02o00ncgrnyselyY5Y6fxjhjYBPts6tK1bGJJKU55QnOSS88PbwqufrVrWtrlW2R8+4k4uOfzuDFlecx+Kd4BB5IxfKLWTiVaYQOOtR4ynwuOVneo2yExmepObKhdNGvXExg2cQOA/u6INi/Py7MdMAkSwC5WQjcl6ya8l0eZtJiqSrUXTHTUW4+JNfNCnFO5f2RHncqni4v291H5ajo7jtEREQkN8G+ndr56Opr1zgf1Wk+Woik85cwfvUp9FobjRHbkxB04B5+is9BkqkJWqufmKnF+agWauR8tAgPY6Ixeme6JOjVxwXbfFpAyxxDIqpE2kcEaiFjI7GlZpFNJMStoFOzJbdranp51WiFkZ2MgaIs7I8vApCFI9efA6iHkV2Fr48H8Zi87Q4OPCqCeZMGmOHZFsGTXsDxWf1wJagf1nTVYfIj/RfRoa+rymRKPL5wEe8seJyIwLVn8OIX0ThaSta4uXVbzHvZVlJY858s6KWcdJGmL/rnuCPb2bu8/z6MTKSTGEsEq3lflI63nVWClERUs9k1skA/Bxs4NqnL30FE+mNsVN4v3Kohm4eK89HINEkqDuej2sxHi5AUcR5jjmUhvsAYzvZNMG9kB+ya4YYzHw7EhcBOmKhLoIfz0bLVuPloIZIiLmJwWDYeFhljqE937BJqlRGR9lpaSeaj9jZaZoGWwaADX0XFYkvNIgtwiVfSZLdlE466qlv3xmgK4EDcP0DGPRx4AKBZY3hbK44qwqmTklTi1j2ccWFGT7zb1wED7RujaX1JwCvpkfZLHTvYSbZ7TkqTfRtXgE09NM0tAvAM59XsWqOkoQmsAKCgEJlinwZJaaW8rkfP1Rc7laWFG9dDh5Iyabpp0gBdjAFANT1dn1p7uqtOXKps8kJUd/V3sMHeab0ws5+92EVE5VBUXLMnpJrmo0FdJPsLcj6qxXy06B/8eC5fUsT89b7YNckFk15sDecmDWFpCgDPkJShML4MnI9qoUbNR6WBz7PPAWMTTHqtJ1b3YJ4XUUUM62SHvdN64Y1ebcSucjHowFfPNtbo52ADM5Oa+TJTc3Kw6lo81vTsiQ+6dEE/u6b4oEsXrOnZEztTUlSuvNU5bZrBryGAW09wQFrks49rK2HL4SdIkhb17NbWTqkHAFCUhkt3xUbNWjtaSb7Ekh7ggLr6BrnJCPrqFPqvO4/tZX7JtsRIZ2PJrjUn/kZSgdgvU4SkvyS7A6GtVclWx7IrWdn5UD3VI1wqraZDxhOcUr0THl5JlxQRrdCWynboYw8A+dhxUX2x0KQjkXhx9RmM2PePflLliYiIaqmX2jVGPwcbWJjWnvnomp5umGBvz/kotJyPpmcjvggAGqC7uiLmt5/gzzJiToo4H9VGzZmPPjx3EWPO5gPGZnh3ch/M66i+vhwRVR81v5kNxzo/V+yd1gs29SVXTWqiVdeuYVfKLYy3b4dfBg7EePt2WHUtHrMvRotD6yA7jHI2AfKysPJPaVq5i5gn3gh20hqlR68mI0uxqygHR/f8jZ+UGqVs68EZar7EW3XAu/aS+y7bnaA8OSjKwdHf/8HRIiDL0hbeZZa8MEYf75YYaAzgURrGBJ/Hqotp+Ee+XXQhsh6lIfS3PzHmXD4AY0zq41CSEt2kMQY2BJCXie2XFSedhUg6kaD+dcnlY1VovNLzz7sTj4AzzwGY4d1BFdlS2Rwj+0u20f7ncgKWxytPiPPuxOPjmEIgD/Do2rLkPE3rSQqcPs1TM3EiIiIyTBsndMPeab3E5hpFnI/2s7PjfFROi/moZT10MAaAbOy/8ly5LzsZH+9OV1MPivNRg5iPZiRiXsRzSHYS7Y4ZrXQosUJEVcagA1+1xapr1/DayVMAgNkXL2LVNb2sqjcIHVwbozUK8TAbgH0TjFLJGjbHyP5N0MEYyEtKRf915/Hxb5ewaPt59F99EUFJRpjkIqlNoZQubmyJ1pYA8p5g9n+jsei3RMQDksnMGEdMsgSy7tzDmK8jMWPXJSz67SLGf30RQTeKAAtLBE9wFDLPNKjfAWsm26GbKYBnz7H5SDxGrI2UFsaMRP+f4rEoPh8wNsZQnxcxTzJrkrLDpJfqASjCgYMXMXhTNBb9Fo0Z6yIx5lwhRnYspeaGjRmcH6dhzNdRCPztEhZtj0K/bWmILzJGn0GdMKNZBf/pt+mC4EENYFlUiO2/XUSvny5i0W+X8PGmSPTaIt3Fpm8X5ddjLZ0U3rsD/+2XsOjYP/qZcBAREVGFcT6qWZnzUYt2eKuHiWTOduC8dM4m2V38xXWpOGDeGJNaQbIL4wOF+3E+Kt5DNzVgPpr0533pxgdFOLDvvGoRfPlxCZJ/XURUHSr424aokrVqgYk2kv8c6NxG/VWhNi7YOqEFRjY1BrKf40B8FkLvFcLFpTV2Bbpj3iBpGvWtkh15gCaY+rIdhjYEHj7IRmh8Gs5Jl0yifivMm9kTWwdawtmsGOeSshAan4N4IzP0ebEtDr7bHQN1qLFn3soZW993w08DLdHH2kRa60HaV98MfV5sjV2BfdXWAmjapyeOj22CoZbGeHgvG6Hx2Yir3xhLpvbEFy6lXFFq0hq7ZrSFX+NCnIrPQmhKPixsLTFvfA/81EcfWyobo0Ofnjgxoy3ebGEGi4wchMZn4cCDYjRtaol543til7h1s0U7/Gd4YzibA0kpWQi9mKafwqlERERElanM+agxnL3dJHNHC0jnbFm4lG+ON72dcWbmC5jRWbL87eiNOwr343y0Yqp7PvoEp5I1FfAnoprEqLi4hlfcrEH+c+kKlsfGis1qnRvug10pt7S+Wta2QQOcG+6D106d0rqI6AT7dljTsyda7QkVu9TqZ9cUvwwcKDYTEZEBsDE3Qz2TUv4A0dKj7DzEp2WjhaUFd3YkqoH+dSYSPyeniM1qnRvug9XXrmFnyi2xS62qmI/KxhMRkeGxNTeHhR5qrN/PysWNRzloY12vwjs75mQw44uIiIgUnLqZjjEbL+C7SO3+sCYiIiIi0qdD19MwZuMFbLlwW+wqF4MOfG34MxVfnUhEdh5TUImIiLRhBCOxiYgqICQyBV+dSBSbiYiISAN9z0YNO/B1LhUrwpOQnadx394aZfbFi1qnlRMREVWGYrACApE+BZ9JxorwJOQWyAuN1micjxIRUXXT92zUoANftUlqTo7W9ReIiIiIiPSN81EiIjJEDHwREREREREREZFBMuhdHft/G4m/07IRO8cDzRpZiN0603VXx9TsHJx9WHmp4m0a1McEe3utd9Hhro5ERIZLX7s6xj94in2x99G9tRWGdbITu4lIR11XnsT9rFzcXjgEFqYVv+as666ONW0+yl0diYgMl752dbx8JxNh19PQx94Gnh1sxW6d5GQYeOCr37pIJDysnsDXB1264IMuzmKz3kWmPcRrp06JzWox8EVEZLj0FfgiIv1yXRGBB0/zqiXwVRPnowx8EREZLn0FvvTJ4ANfMf9kIie/EP0dbMSuctEl8FUTMfBFRGS4GPgiqpnOp2Ygr7BIb/NRXQJfNREDX0REhqumBr5q1jPSsx6trfQ2ySAiIiIi0lXvttacjxIREVUjgw58ERERERERERFR3cXAFxERERERERERGSQGvoiIiEjuTPJjjN54Ad9F1t4aQkRERERUex3+Ow2jN17Algu3xa5yYeCLiIiI5NKe5iIy+TESH+WIXUREREREle5upmQ+mvL4mdhVLga9q+O7obG49eQZNk3sBpv6ZmK3zq5mZCKnoEBsrjXaNmggNhERkYHQ166O+2LvY/quK3izVxusfKWL2E1EOpq28zLSc/Kxd1ovsatc/srIwLOCQrG51uB8lIjIcOlrV8etF/9B0L44vDfAAQu9ncRuneRkGHjgq9+6SCQ8zEbsHA80a2QhdussM78A2bU48EVERIZLX4Gv367ew4zdfzHwRaQnrisi8OBpHm4vHAIL04r/MZCRn4+cWhz4IiIiw6WvwNfmC7fx4e/X9Bb4qvgzIiIiIiIiIiIiqoEY+CIiIiIiIiIiIoPEwBcRERHJjenaAmlLvLnMkYiIiIiqxZu92iBtiXeFlznKMPBFREREREREREQGyaCL2+sbi9sTEVFNpa/i9kRUs7G4PRER1VT6Km6vTyxuT0REREREREREBouBLyIiIiIiIiIiMkgMfBEREZHco+w8nEl+jMRHOWIXEREREVGlu5+VizPJj5Hy+JnYVS4MfBEREZHcqZvpGLPxAr6LTBG7iIiIiIgq3aHraRiz8QK2XLgtdpWLQQe+Yv7JxJnkx2IzERERaWBsZCQ2EVEFnE/N4HyUiIhIB/qejxp04Ctwz1WM2XgBD57mil1ERESkRhE3eybSq6k7LmHMxgvILSgSu4iIiEgNfc9HDTrwRUREREREREREdRcDX0REREREREREZJAMOvCl52WhREREBs+5WSPM8eqAYZ2bil1EVA5GnJASERHppHsrK8zx6gAPxyZiV7kYdOBLz8tCiYiIDJ5zs0b4aJAjhnWyE7uIqByKOSElIiLSSbdWVvhokCM8O9iKXeVi0IGv6X3aYo5XBzQ0NxW7iIiIiIgqXWB/B8zx6gALU4OedhMREdVYRsW8DKW1zPwCZBcUiM1ERETVzsbcDPVMTMRmIjIwGfn5yCkoFJuJiIiqna25OSxMataFnpwMA8/4IiIiIiIiIiKiuouBLyIiIiIiIiIiMkgMfBEREZFc/IOn+OpEIg7/nSZ2ERERERFVust3MvHViUREJKWLXeXCwBcRERHJxT94ihXhSTh8/aHYRURERERU6S7dycSK8CScTHwkdpWLQQe+3g2NxeiNF/D4Wb7YRURERGoYGxmJTURUAdN2XsbojRfEZiIiItJA3/NRgw58Xbydgcjkx8gvLBK7iIiISI0ibvZMpFd/3nqCyOTHyC3gfJSIiEgb+p6PGnTgi4iIiIiIiIiI6i6j4mI9h9JqkH7rIpHwMBuxczzQrJGF2K2zzPwCZBcUiM3VKmDqm7h/967YXCV+DTssNml04shhfLtypfz2pDen4rXXX1caU5o3X3sNT7MyxeZKZ2Zujh2//yE2a/RHaCg2fv+d/LZ/4L8xwtdXaUxpxo0YjqKiqr8i3NjGBht27BSbNdq5dSt2bdsqvz3ro7nwGDJEaYwmz3JyMNlvjNhcJVq3bYtv1m8QmzXa+P13+CM0VH77P58uRc8+fZTGaPIwLQ1vT/6X2FwlOjl3wfK1a8Vmjb5duRInjpT8e/5s9Wp0ce2qNEaTlJs3EfTO22JzlejRqxcWLPtcbNboyyWL8WdkpPz2mh9+RDsHB6Uxmly7+hcWfPCB2Fwl+nt6Ieg//xGbVdiYm6GeiQnef/99XLp0Sd6+e/du2NnZKY3VJDIyEm/N+hB/p2WjuaUFHJs0EIdUGl9fXwQFBYnNGvn7++PGjRvy2wcPHkT9+vWVxmhy+PBhfP659j87+vT666/jrbfeEps1mjhxIu7duwcAMDExwbFjx8QhGu3ZswfffPON2Fwl3nrrLbyuw/f8yy+/jKdPnwIArK2tsXfvXnGIRlu2bMF///tfsblKBAUFwbeM73nXFRF48DQPtxcOgc/QwfL21q1b43//+5/S2NKEhIRg165dKCgu1vuV8LLMnvcfDPDyEpvVyn76FG+8OlZ+29GpE7769lulMaUJWb0ax8IOic1VYsGyz9GjVy+xWa0H9+9j5htT5Ldf7NEDi774UmlMaVYs/RRRp0+LzVVi+ddr0alLF7FZreTERHwQMFN+u+/AgfhwwUKlMaVZPPcj/KXwnVSVvlm/Aa3bthWb1Yq9cgWfzPlQfnvI8BEImD1baUxp5gQGIulGgthcJTbs2InGNjZis1p/RkbiyyWL5bd9X3sNb87Q/juprv3taWFRD1aNrWFt3RjWNo3h1NkZnkOHolnz5uJdSMrW3BwWJhXPr9p84TY+/P0a3hvggIXeTmK3TnIyDDzwNeDbSFxPM+zAl7tLF9xKThabq8TN9MewqFdPbFZr59atmP12yS/Vjz5ZhPc//lhpTGm6tGqJjCdPxOYqcSfnmdik0U/ffotFH82R3162ejWmvVMyWShLqwba/dGmb3bNmuFycorYrNGqZZ9h1bJl8tvrNvwXr06apDRGk6zMTHRuUT1fFo6dOuHUpctis0afzJmD9cElk/XNv/4K7xEjlcZo8k9qKnp37iQ2Vwm33r3xR8RJsVmj99+agV3btslv/3b0GF7q109pjCbXrv6FIS+9JDZXCa+h3vh53z6xWaNp48cj7I/f5bePX7gAZxdXpTGaRJ0+jbHDvMXmKuH72mv4fktJoFkTWeDLy8sLERER8vbU1FS0adNGaawm+/btw+jRo8XmKvH222/j+++/F5s16t69Oy5fLvn3nJWVhUaNGimN0WTLli148803xeYqMXfuXHzxxRdis0YODg5ISSn5/azLtO2bb77BrFmzxOYqsXz5cnysw/d848aNkZGRAQBo0qQJHj7UfnOFTz/9FIsWLRKbq8R3332Hd955R2xW8sLKk7iXlYvbC4egnpmJvN3R0VEpeFuWoKAgrFmzRmyuEt9t3oLR48aJzWplZmTAuWUL+e0Xe/TAoTMlFx3KMvudt7FzyxaxuUr8b+9eDPIeJjarlZqSgj5dnOW3BwwahF37DyiNKc30iRNwUIfvMH36PTwCPbX87o69cgXe7iUX/UaNGYOfft6uNKY040YMxxmF76SqdDLmEjp27iw2qxV58iReG+4jvz1p6lSsCim5mF2WYX3dcVXhO6kqXbqZrHUg5tDvv+P/JoyX335n1ix8slz77yT+7Snh2KkTPIcMxaQ334Triy+K3XWavgJf97NyceNRDtpY14O9TcX+Rs7JMPCljkXazw1rlA0hwVpfGTHSc9G3mqquvM66oK58lnXldaKOvM668nnydRoWvs6aQV/ZWTX9deoLX6dh4es0LHydEol//43/fhcCb/c+eNnTAzs2bxaHUAU1t7RAfwebCge9ZAw68BX5bj+kLfHWS7ZXVfjl55/Ru3MnLPzwQ/y4rnqWJhARERGR/sTO8UTaEm9YmBr0tJuIqE6KPn8eQTPfQQ/HDtizY4fYTTWEQS911LfKXOr4+549KvWAYpJuonmLklRxIiIiTWRLHYnIsGXk5yOnoFBsJiIiPct9/hyPHj7E4/R03L93FxfPncO5M2cQff48nj9TXw7HfcAALF+7Fp27uIhddYK+ljrqk8HX+NK3ygx8AYCf91CcO3NGfnvJVysw49//VhpDRESkDgNfRHUDA19ERNUr9/lz7Pv1V2z+8QdEnz8vdgMAvly3DlOm+4vNBo+BLwNQ2YGv5KQk9Ovqig5OTlj85ZcYOnyEOISIiEgtBr6I6gYGvoiIao5LFy/iPf/puHH9utiFGf/+N5Z8tUJsNmg1NfBVs55RHefQoQN+DTuM05evMOhFRETV4rer92C36Ag+/P2a2EVERERECrr37ImTMZcQMHu22IWfvv0Wb776Kp7l5IhdVIbNF27DbtERLD2SIHaVCwNfNUzfgQPFJiIiIiIiIiKqoRYs+xy/HAqDlbW1UvuRgwfwfxMnKLVR1TPowFe/dZGwW3QED57mil1ERERERJXOdUUE7BYdQW5BkdhFREQGpJ+HB8Iiz8K+fXul9oijR7F80SdKbVS1DDrwRURERERERERUFezbt8e+E+Fo3batUvu6FStwYO9epTaqOgx8ERERERERERHpgV2zZth98BBsbG2V2me//RYynjxRaqOqYdCBL2MjsYWIiIhKY9fIAv0cbODYpIHYRUTlYGzECSkRUV3j0KEDdu4/gAYNG8rbsjIz8cWiRUrjSL2WVpL5qL1NfbGrXAw68FVULLZUj4dpabh+LU5sJiIiqnH6O9hg77RemNnPXuwionIoKq4hE1IiIqpSXbt1wyfLlyu1bf7pR8THxSq1kaphneywd1ovvNGrjdhVLgYd+OrZxhr9HGxgZlK9L3P3//6HoS+9hPlBQcjMzBC7iYiIiMhAvdSuMfo52MDCtHrno0REVPWmTPdHl64vKLV9u3Kl0m2qfEbFxbwMpa3M/AJkFxSIzWUa2L0bEv/+GwBg3bgx9kecRAcnJ3EYERFRudmYm6GeiYnYTEQGJiM/HzkFhWIzERHVUJejozFiQH+ltvi792Blba3UZghszc1hUc2JR6KcDAa+dFKewNeFqCj4Dh4kv21lZY2/UlNhZmamNI6IiKgiGPiqXkWPU5B/I0JsNkgWvd8Qm6gKMfBFVcEo+xFMU87DSKFGXbH8f1SpjFNDcQyUHk/5HmrHqaE0rlj9OPGxZMSx4mOp+U8JlceTjFAcJ38slTtrGKdGMQAjIxPkdxwodlEt9earr+LIwQPy28vWrMG0t99RGmMIGPgyAOUJfH0YEICfN22U3/6/mQH4bNUqpTFEREQVxcBX9Sp6nIInSx3EZoNj0qobrD+8JDZTFWLgi6qCceY9WG4YJzZTFXrm+R7y3PgZGIoTRw7jX6NHy2+/7OeHH//3s9IYQ1BTA1816xkZmJzsbOz79Relttenvql0m4iIqCaJf/AUX51IxOG/08QuIiIiqiqaE8KoFhrkPQwT3ngDn3/9Nc7Gxhlk0EufLt/JxFcnEhGRlC52lQszvnSga8bXmYgIjBsxXH67a7duOHw2SmkM1S31zv9P/t+l/cPTmC4u3knTOAXq0qjV/auXjFPuUDNM9fHUpJarjJEqdZxCp+o4oUFK4zihQ/FmXg9eOSPDpK+Mr9+u3sOM3X/hzV5tsPKVLmI3acCML6oqzPiiqqAu48vItp3SbTzLQPGzko27jKyaA6YWSkOK02+V3DCrByPLZordKM56AOQ/l98u8xz1rYH6ynWRKnyOglwUZ96X3yzzHOoeQ3ye4ntRjnM893oPuZy3Ui2jr4yvzRdu48Pfr+G9AQ5Y6F2x+ugGv9Rxw5+peJSdh8D+DmhoXvE/BnQNfO3csgWz33lbfnvm++9j4efK25lS3dIwdA5Mkxn8rC5FtvbIenOb2ExkEPQV+Np79T78d19h4EtHDHyRJiGRKXiaW4CPBjmKXeXCwBdVBXWBL5OOA2Hi0Ft+u/DeNRRePSi/bdy8E4xbdIGxnfRnvSgfecfXyfuN6lvDuPWLSo9R8Nd+FN2/Lr9t0nEgjJt1hFEDGwBA0cNEFFzaK+83sm0Hk7Y9Ss4BIO/o6pJ+deeIP4qi21fkt00cesO4VVf5OYrzc5Af8b2838i2HYxt7ZUeIy8ipCR4ZlYPJva9S38vWr8AE/tems9h1RzGzTppPgeA54NmIbf7a/LbRLWBvgJfWy7cxgd6DHxV/BnVYBvOpWJFeBKy87QPVulT6q0UpdsOjvqZ8BBROWlKHSMiuWIxZZKIKiT4TDJWhCcht6BI7CKqdUxcfWD60iSYvjQJxq1cxW4YO/SW95u8MErshlFDW3m/6UuTJJlRAhOXYSWP4eQhdsPYzlHpMdRR7Ddu/YLYrfw8HZV32wMA42YdlZ+ndQtxiG7vRbnOwXkr1V36no0adOCruqWmKAe+2ndg4IuUGVk1l1wdUziUmNVT6TcS0qKNbNsp9wsTCKP61iqPIRL7Vc4hPE8xvVvtOczqKY0R+1WeZxnvhbpziM9TpV/NZIqIqLaz6D0VxrYl2WVmHb1g0Xuq0hgiIqrdinnBlkhvGPiqRGLgixlfJDKqbw0Tx/4wdX9Dcrz0unK/qQWMLJuX9Lu/ASMr5atBxlbNYfrCy/J+kw7uSv0Qz+EubENvVk/1HE3slYYYWTZTOofpCyOV+mFWD8Ytuuh0DuN2bkpDjCyblfpeqHsM8b0wsizjveCVMyKqxcw6eqHxgptoOGkj6vsskrdbBpxAw0kbYRlwQikgRkREtRnnrUT6YtCBL+Nq/l2hGPgyMTFBm3ZCEUQiAEYNbGDq6gNTVx81gRppSri039TVR20Wk7FD75LHUJMSrngOU1cfsRsAlPrVpYQbNetYcg416doqz1MlXVtSU0F+DjUp4UZ2jiXnqJT3opp/KRDVAgPb2+K3ab0ws59yAJyqj7GtAywDTsAy4ITYJVeUngyzjl6wCjihFBSj6mfMrA0iKg/+6qA6bHhnO/w2rRfe6NVG7CoXgw58Fel7YaiOHqaVbAVv11z1D3QiqmL844OoTE0amqO/gw0cmzQQu6ga1PdZhMYLbsKsoxeehS3Gk8/ai0MAAPmJ4XjyWXsUpiejvs9iNF5wkwGwGqLIcPeRIqJKxXkr1V3NLS3Q38EG9jb1xa5yMejAV/DYrvhtWi80a6S8rW5VKSpiEVOimqSYEwgiqiXMOnrBdnUx6vssRlF6MrJCBuFZ2BJxmBLZuOzt0wBAHgDj8sfqtWlid/w2rRcsTA162k1E+sYLtkR6Y9DfwD1aW6G/g2QLWSIiXnMnoppOcVljUXqyPMsr/0a4OFSj3PObkBkyCM/CFsPY1oHLH6tZ77bWnI8SUTkw8EWkLwYd+CIiIiKqDYxtHdQuaywry0sTSdBsCZc/EhHVVsz4ItIbBr4qUX5enthERNWI8wciqolkAa/6PouRf0NSq6u8AS+RpuWPZh29xKFERERUyWKvXEHkyZPyg6oGA1+VyMzcXGwiomrFyBdRWc4kP8bojRfwXWTJzsRUOWTLGhXreGWFDEJRerI4tMLE5Y+S8y5i/S8iohqL81ZDtPDDD/DacB/5cfeff8QhBODw32kYvfECtly4LXaVCwNfRFR3MOWLqExpT3MRmfwYiY9yxC7SE03LGnWp41Ueissfn4UtRn2fxaz/RURUQxkx8EV12N1MyXw05fEzsatcDDrw1W9dJOwWHcGDp7liFxHVSZxAEFH1quiyRk0ZWsY26tvVUQyAgcsfK53rigjYLTqC3ALu9k1EOuAFWyK9MejAV3VjjS+iGobzByKqRhVd1igLmgFA3vnN8vZnYYth1tFL5+L1RenJKssfLXpPFYcREVE1KObE1SBNmPIGPpg/X340srQUh1AlYOCrErHGF1FNwwkEEVUfE1sHFKUn67ysUV0tMMX7PwtbUu7i9WL2l2lHT3EIERFVg2IUi01kACZMmYIP5i+QH5ZWVuIQqgQMfBFR3cGUcSKqZoU6ZHhBIcurrFpg6orXN5y0UePSSJEumWdERFQVOG8l0hcGvoioDuEEgqgsY7q2QNoSb6x8pYvYRVWoZOmi9rXAxOL1Fr2nsng9EVFtxQu2VIe92asN0pZ4Y6G3k9hVLgx8EVHdwQkEEdVwsh0fLQNOANL6XbrWAhOXL8qWP7J+FxFRbcJ5K5G+GHTgK/Ldfkhb4o1mjSzELiKqg1gpgYhquoYTN6K+z2Lknt+kVZZXacTi9Q0nbdS69hfpT+wcT6Qt8YaFqUFPu4lI33jBlkhv+A1MRHUHJxBEVMOZ2Dog9/wmebH6ihKzv4xttKv5RURERGQoGPgiojqEgS8iIiIiqgV4wZZIbxj4IqI6w4gTCKIyPcrOw5nkx0h8lCN2ERERUZXhvJXqrvtZuTiT/Bgpj5+JXeXCwBcR1SGcQBCV5dTNdIzZeAHfRaaIXURERFRVeMGW6rBD19MwZuMFbLlwW+wqF4MOfMX8k4kzyY/FZiKqqzh/ICqTMSfaRHp1PjWD81EiKgd+H1Pdpe/5qEEHvgL3XMWYjRfw4Gmu2EVEdZJ+f4ESGaKiYu5/SqRPU3dcwpiNF5BbUCR2ERFpxmkr1WH6no8adOCruqU8ycCdnGe4k/MM0TcSxW4iqmp6vnJARERERFQ5OG81RJ/MmYNXfYbJj0cPH4pDqBIw8EVEdQgnEERERERUC/CCrUG6evkSzp46JT/ycrk6rSoYdOCLvyuISAl/KRCVyblZI8zx6oBhnZuKXURUDtxRmIjKh787qO7q3soKc7w6wMOxidhVLgYd+NLzslAiquX4K4GobM7NGuGjQY4Y1slO7CIDUN9nEer7LBKbqRIVc0JKROXBoDnVYd1aWeGjQY7w7GArdpWLQQe+pvdpizleHdDQ3FTsIqI6iH96EFFdVZSejOzt0wAA9X0Wo/GCmzC2dRCHUSUI7O+AOV4dYGFq0NNuIiKiGsugv4Gnv9QWHw1yRENzE7GLiOokXjkjoror9/wmZIYMwrOwxTC2dYBVwAlmf1WBgH72+GiQo9hMRFQ6ZnwR6Y1BB76IiJRwAkFEdZQsu6soPRnPwpbgyWftUZieLM/+YgCMiIiIDBUDX0RUhzDwRUQ1W2F6MswcvfQWiDK2dUDDSRvReMFNpQBXUXoyskIGKS1/JCKiGoQXbIn0hoEvIiIikjuT/BijN17Ad5EpYhdVgewd0/SSiaUY8LLoPRXPwiSBLdnjmnX0AoTlj5AGxIiIqCZg4IvqrsN/p2H0xgvYcuG22FUuDHwRUZ1hxAkEUZnSnuYiMvkxEh/liF1UBWSZWFkhg8oVADO2dUB9n0VKAa8nn7XHs7AlSvW9LKX1vYxtHZSWPz4LWyI+JBERVYNiZnxRHXY3UzIfTXn8TOwqF4MOfL0bGovRGy/g8bN8sYuI6iJOIIjKZMx/JzVC/o1wlaWIpQXAFANe9X0WI/9GuDyQJcviUg5wLUZ9n8VKBe6Z7VU5pu28jNEbL4jNREREpIG+56MGHfi6eDsDkcmPkV9YJHZVia+/+AKrln2GVcs+ww/ffCN2E1GV0+8vUCJDVFRcLDZRNZItRdQUANMU8MoKGaQxkCULgGWFDAIUHlNWAJ/0689bTxCZ/Bi5BdUzHyWi2slIz3/4U83Az1U7+p6PGnTgq7qt+WI5Vi1bhlXLluGHb9aK3URU1fhFQ0TVqDA9GWYdvdBw0kadgkxF6ckqtbhkwSpZwEtxiaSmgJco/0Y4sndMQ1F6sjyARkRENYOe/+6nGqKYH2y1YOCLiIiIqApk75iGZ2GLYdF7KqwCTpQrAKZYq6swPVke8HryWXvk3wgX76KRLNBlGXACxrYOeBa2WJ5VRkRENQAv2NYJ68+b4+szFgZzLA43xn+OocLHxQctMPzFAbib66DSp+ux9E8GvoioDmGRUKKyjenaAmlLvLHylS5iF1WQYo2t/MRweQBMVmReW4pLFcsb8BKXRrKoPRFRTcN5a12Q+dwIT54ZzpGeAzzSw5FbaIoG5vVRWGym0qfrkf6cga9KNfvjefhg/nx8MH8+3n5vlthNRFWOEwgiqn5F6cnI3j4NTz5rL9+5UbHIfGVRDHiVZ2kkERFVIU5bDRJrfFUPgw58Rb7bD2lLvNGskYXYVSXe//hjfDB/AT6YvwBvv/ee2E1EVY1fNFQBRo9TYPbrWzA5tkzsIioXxeCTLABW2s6N5WXW0Usp4CULuumSKUblFzvHE2lLvGFharjTbqPHKTA5tgxmv74Fo8cpYjcZiOKs+yi8fgKFCSdRmHASRTf/VO5/loHiR8ny/oJrR5X6AaD46UN5f2HCSRQ9vqXcn3UfRbcvl4y5Fa3Uj4JcFD1MVHoMUXHWfaX+4vRUpf6izPsouhVd8jxjDyn1oyAXxTnpZZ+jjPei1HPkPy/zHCjmvNUQscZX9TAq5juvtcz8AmQXFIjNRFprGDoHpslR8tvGzTvB9IWXYfrSJABAcfYjPFs7XN5vVN8aJp28YD5qgbwtd/cHSl+OJg69YTY0CMbNOgIAChNOInf3B/J+I9t2MHN7TX4OAMj5vLf8v2FWDyb2vWExfrW8Ke/Y1yg49z/5bePWL8DMcyZMHCT3K7oXj+f/nSLvN7JqDtOuI2HmFSBve/bjOBQ/lGYRSM9hPmoBjBraAgDyL+xE/uGV8vHGrV+Aaa8JMHX1AdS9F1bNYdLevfT3ouNAmHkFaHwv8h0HIsf3c/ltIm0ZJZ2E+QbJzyYAFLlNQf6rPyqNqW425maoZ2IiNlMVKXqcgidLtV+uqI5F76nyZY+ygvYVWYJobOuAhhM3wqyjl14eDwBMWnWD9YeXxGaqQhn5+cgpKBSbq43R4xSYr3SW3y62sUf+9DAU29grjaPaxTjzHiw3jBObqQplj12NAnuFOTsZhLHDvBF1+rT89sWEG2jZurXSmNrM1twcFiY160JPToaBZ3wRESnhhTMqBzHoBQDG0Vth9utbSm1EFaVp50aL3lPFoaUytnVAw0kb0XjBTZh19MKzsMWs40WVQgx6ydrMNvgw84uowjhxJdIXZnzpgBlfVFFixpdRfWsYNXOCSWcvAEBxxl2lTCuY1YNxq67yfgAoiP6lJJNKlgnlOhxGlnaAmscQzwFAKdMKZvVgZNkMpr3Gy5uKbv6plEllZNUcxu3cYNzKFVBzjjKfp/QcJp0HyZ+n3s8hzW5TPIf4GPkdPZDzCpepkfbUBb0U1aTML2Z8VS99ZHwpMrZ1gEXvN1HfRxIEK0pPRvaOaaUuTxTvI8vw0mcNL2Z8Vb+akvFl9DgFpnvegnGSmiVazPyq9fIeJOPB6tfEZqpC1q9/BcsXB4vNVMsx46vq5WQw8KUTBr6oosTAF1WtfCdP5Lz8mdhMpFZZQS+ZmhL80lfg67er9zBj9194s1cb7uyoA30HvmTEYFb+jXA8P7xEJQBW32eRTkGy8mLgq/rVhMBXWUEvGQa/aq+8B8k4v/AVsZmq0AuBa2HFwJfBYeBLO5sv3MaHv1/DewMcsNDbSezWicEvdYz5JxNnkh+LzURURxkxZZy0pG3QCwa47NGYm0DUKEXpyXgWtkS6VHExzDp6wTLgBBpO2ghjWweVwvVZIYNYuL6GOZ+aYVDzUW2DXuCyR6KK4fcx1WH6no8adMZXv3WRSHiYjdg5HnrZ2ZEZX1RR11e9CZM7f4nNVFUceqPjuz+IrURK1AW9ijp4KP2RJ95GDcj8YsZX9aqsjC+RmAEGaXBMH4XrtcGML925rojAg6d5uL1wiF52dqzOjC91Qa9iG3sU29jL22TZXYrBLmZ+1T7M+Kp+L/x7HaxeKCnxQYaBGV/a0XfGFwNfOmDgiyrq2oo3kH4jRmymKtK8az8GvqhUmoJe+dPDYDG/vrxNFuASM72qM/jFwFf1qqrAl4yxrQPq+yySZ4RVFQa+dGcogS9NQa+8D+NhtsFH3l7UwQMFY39UyfRi8Kt2yXuQjPgfgsRmqkLt/WbBsqun2Ey1HANf2mHgSwcMfFFNw8BX9Wr2Qn84/ft7sZkIKCPoBUAl8FXkNkXtMsfqCn4x8FW9qjrwVV0Y+NKdIQS+Sgt6AVAJfOVPD1O7zJHBLyKq6xj40o6+A18Vf0Y1mLF+l4USUa3HXwqkXllBL03UBbnUBcNqE7tGFujnYAPHJg3ELiIqB33XKalqZQW9NFEX5FIXDCMiIhK1tJLMR+1tSi48VwQzvnTAjC+qqL9XvQmYmovNVEWMTE3hFPid2Ex1nNHjFJivdFZqUxf0UpfxJaMu2FUweAEKh8xXaqtM+sr4ovJhxhdpUtszvsx+fQvG0Vvlt9UFvdRlfMmoC3aJY4iI6gpmfFU9g1/q+G5oLG49eYZNE7vBpr6Z2K0zXQNf9o2tkZ+XBwBo0aoVom8kikOIiKgGUAxcafqDrLTAF7R8jMrEwFf1YuCLNJm28zLSc/Kxd1ovsatcqjrwpRi4Uhf0QhmBL2j5GEREdQEDX1XP4Jc6rvNzxd5pvfQS9CIiIsMlW7Ko7g82bRW5TUHeh/EVegwiMjwbJ3TTW9CrOsiWLBZ18Ch3wEofj0FERFReBp3xpW/M+CIiqrvKyviqbsz4ql5Fj1PwPHy12GyQGvitFZuoClV1xpc2ysr4IiIiCWZ8VT2DX+qobwx8ERHVXQx8EVFNwMAXEVHtxcBX1TP4pY5ERESkm/gHT/HViUQc/jtN7CIiIiKiCthz+Aju5DyTH4YU9NKny3cy8dWJREQkpYtd5cLAFxEREcnFP3iKFeFJOHz9odhFRERERFTpLt3JxIrwJJxMfCR2lYtBB742/JmKr04kIjuvZqWDExER1VRGMBKbiKgCQiJT8NUJlrsgIiLSlr5no4Yd+DqXihXhScjO074uFxERUV1WDJb+JNKn4DPJWBGehNyCIrGLiIiI1ND3bNSgA19ERERERERERFR3MfBFRESkhfxXf5Qfxe09xG4iojqrsMdk+e/HgkHzxW4iIqJqZVRcXKzvLLIaY8C3kbielo3YOR5o1shC7NZZZn4Bsgu0XzZp39ga+Xl5AIAWrVoh+gbrOxARUeWwMTdDPRMTsVlnj7LzEJ+WjRaWFnBs0kDsJiIdvbDyJO5l5eL2wiGwMK34NeeM/HzkFLB+LRER1Ty25uawMKn4d939rFzceJSDNtb1YG9TX+zWSU6GgWd8FRlsSI+IiKhyNGlojv4ONgx6EelJkeFeYyYiIqoUzS0t0N/BpsJBLxmDzviK+ScTOfmF6O9gI3aVCzO+iIgMj9HjFBhHb5PfLnKbjGIbewCAybFlZbe3H4jiDpKlj5raq4K+Mr6ISL/Op2Ygr7BIb/PRqs740vR7zTh6K4we3wIAFNu0Q5HblFLbjZJOwvjmKfljFQ7hkkgiIkOjr4wvfcrJMPDAl74x8EVEZHiMkk7CfIOP/Hbe9DAUd/CA0eMUmK90lrfnv/qj/A84i/klV58KBi+Q/wFnvtIZRo9TAABFblOQ/+qP8nGVjYEvorqhqgNfmn7fmW3wgXHSSQBAUQcP5E8Pk7T/+haMo7eqtJscWwbT45/JHyt32TP5fxMRkWGoqYGvmvWMiIiIiIiIaq1kfN+rPlo10O4IPCDev/rlJu7FB/7fQ5K3V7PcWtMDrRrUh+eaZLGrbM+TcWzNTIzv0ULhM7BB9wF++HLLZWRqn99QKfT2vieuhWeD+mjVa23FH4vIQDDwVYlk2V5ERFRzGT2RZGjJmJ5YBrMNPjBTyAIDANPj6ttNYrbK22XZXgAA4XGJiGo7xd93smwvSJeMy38P3lTfbhIjyQKjGi5lLV55YSK2X8oVe2q1B7smorttF0yZvwmn77XEgPFTMWnaVPh5tkBG9CGsfccdzj1m49gj8Z5VxEDfd1IVe+UKIk+elB9UNbjUUQdc6khEVPspBaekyxMrS8HgBShymyy/LasRVhn0tdTxt6v3MGP3X3izVxusfKWL2E1E1awylzqKvx9N97ylFODSp2Ibe/kySNltw5CM73t1wadxgN8vzxA8Uuyv4RLXwvOFj5Hg8gWiLsxCO7G/mt1a0wPu8+PhtOwaImY7iN1qJazzgufccwC6YdbBvXjfszksFAc8j8fGcV6YfywDsH4Hv6euQU9TxQFVoIa/76Q/Y4d5I+r0afntiwk30LJ1a6UxtZm+ljpuvnAbH/5+De8NcMBCbyexWydc6khERLWWcfRWmP36lthcJtPjy2C+0ll+VCbT459V6FxGSSfLdT8iqttkvzvEQFZZjG5K7ic7KivoBWmQTelc0rpg2pLd36gSnyMZgMS1CJx7DoAz5sZEYa4Y9AKAes6YFhqGWfYAMr5H4PJ4cQQR1XIGHfjqty4SdouO4OP/uRkAAIm8SURBVMFTpozWegemqtRE0HjUxPXsz5NxIHAqNtbEpD/Ze+t/SOzRSuaVTfjyNXd0t1X4DFr2wPjAtTiW+FwcXrUKMnBxjR8+PSx26O6Yf82txVEXyYJe5Q1+aVLUwaPCh76yFmRF98Ui+0RUu7iuiIDdoiPILSgSuyqF4u8OlSXYFSD+rivvoQ/yoNfjFJjtectAgl+HECidx178cy38nWRzKnesvaIw7NFlbJ87Au7yeZcNug+Yio2RGQqDJGT1sAIPAJmR3yNwQEltq/YvjMCn++4rjT/mXx+tXvgYCQAQ9zHcG9RHqwZTcUxxUEEGLn43FcPa28gfy7nHCHy6Jxkqf3HJak35HwIencNGf3c4W0mft20XjJ+7Fw80LKbJTdyLT0d0QXvpObpPXIuLqi+xTKe/WYyrACxmrMGszmKvAtNueH/JaFg07wYn02Q8EPt1eN91fd3avO+5iYfwvb87urdUmG/bOmCY//e4KC7PVFvjq+Tn69bzZBxQfC1WLSSPo+alAOX9zPfiwb6ZGCY9R/sXZuKA8o8bUZUy6MBXdWONL5JIxvdDu8B/42XVL4faLOMcvvSqD2f3mVh74DrgMhyTpk3FpGnD0RXxOL3xY0x5wQHjv4uvttd97N8t8Mr8Q7ivYVJFtZdisEtfwa8i6e5jFT0KBkt2PKsIcadJo8cpMDm2TGkMEZE6ZntKfh/qM/gl/q4r71FR4sUAo8cpMI3ZpjSmVktajn95fYwDjYZL51QOaNdB2nd9LV5p744P1oXjVhMv+E2bCj9PazyI3on5Q1vglXXqM5WufjcCLw2djdD7PaT3aY7cxHB8P9EBw9aVFIlv3n8qJo3tJsmIqtcNI6dNxaRpXmguG1AQj++9WuCVD3biakYLSZ2s8V6olxiO7yd3QZ93DiFT/mgKLq3F+K5emL/rHl4cK7lPs4JknF43Ed29VC9YZx6YiT4vTMT3Ecmw7jcBk6ZNQKeLH+OVUWtxVZc5XcEhbP/pOYB6eH2Cl9irwmL8Dty8GYWt84ajmWJHOd93bV93We+75P3ww6c/X8ZzR+l8e7wXmhXcx9WfZ+OVrlNxTFPQSvToED7s3QX+66JgNVg6bzfNkDyO80wceyqML+9nvv9teEzchAduEzBpvBesLZrDSf6DVLdNmPIGPpg/X340srQUh1AlYOCrEpmZm4tNVFEuXyAq5xnulHbUxHXx1Zz4pHcZh/BBdy+s/ROw8v0OEQ8e49LpUKwK/g6rgkNx+O4zxP/2DtohA6c/6IEpG6vpEo8uk6MyDFkv+fmqdbU6DFTeh8qTTF2CXwWD5yNvehjypofpLfugNPmv/ig/nzbEoBcAFLlNQeGQigfUDFFcyER07O6Jjt0nYvV1sZcqJGKp9L3V7vDdfFd8hBJPErA7ZCHG+YwquU+fUfB55ytsOH239AskhU8RtzcEU17zg1tP6X17jkLf12Zj3uYopJZ657onf3qYUuapLsGv4vYeJb8f3aaI3XpX5DZFfr7i9mX/PhaDXpBdtHj1R6W2Wu15BjJHbkJ8TKh0TrUDfo0APD2ED7w+xsUCoOuSGNxMOIjg4O8QfDAZNy98gQH1gItzvfDBYdVJZ8KxcLQT7hO/YwIsAFxdtBYXpeO6TvsOq5ZMksyjO0zCJ8HfYVXwVHQFADzHsX974dNowMp3Ey49uIZdm77Dqk0HcSk1HLPcgAdb/OCvbs4XF47TjosR8SBZ4T474FcPQPRi/BCpMPbpIcybvAkPYA2/Hfdw6egmrArehF0J97DVeTkCl+uwm2PiZVwFAHih14tip5Yq8L5r+7pLfd8LzuHL6dL345d7iJfNtzcdxKUHMZjrAiBjJz79r5bvy/1wnH44AetTH+PwL9J5u/xxNuGH3YqfXwU+84wMNJ4TJfn8Nh3EpQuLUbEqTYZjwpQp+GD+AvlhaWUlDqFKwMAXEenoOY7NnYrt9yVXxv7cMRVOjcQxgNWwNTi8aTgA4HTgLISKV5CIKqDYxr7cwa9iG3sUd/BAcRUEvSD9Q1Lb82kKehnUH3V6FYtd2+8CJgBwF/uOJYgDqNo9RUxIAFy9/DHvx5NIhD18xo7CuLGj4NMZuB21H8v/PRFegaFIVBfAyorCvJGj4LtoJ87eSEemrKZ74VOk3YjG7jVzMcgjABtuCverw2RF48sT/FL8/VjUWD/LtktT1LjkfGUtE9cY9NLyokJ1CH1NYVmaytED32sogeH3fxMg/in8YPdabM8AMHITfpnjrFSnysJlFtZ/PxxABrZ/vkl1mZ79XAQL97HynYnX6wF4Ho7zGp6Hkn824estGUC9CQhePwHNFIu/W/fB3G/moh2A0199J1myp8QBs36cC6d6Ck3Wo/F/0+oBeI7T50qCNg92r0XocwC+a7Ha11rxDhjy/Q68rsvV5MRrkudSzwHt1MxVtVGh912H163RlXCcb2QNvLQYi0Yqvh+S2mSTAiWZbAmxGrLO1Bi59nuMbKLQYFryOKfPxJS0V+gzd8bUN7qJjUTVhoEvMmjy2gb77uNAoLu0ToAN3N/ZW/Ll9DwZx9ZMxTCFNfMa163ruj7+wFS0aiDZ2QeIx6cvSMaKdaIkdRcc5HUMWrXsgfFz9+KWmu92Sa2pHvg+8Tlu7fkY419QWG8/YCo2/qkh11moMdDefSYO/CMO0oLsSxB98Mmy0SoTM0VW4xdjVmdrOHnWw/Mksfc5bh1eq1RvQvPr1vF9l9YXmPKz5KZs4um5RmGCIfvcnRTOX0q9BnU1vnStnaGoXJ/5n+fw/USHkte94rI4tE6pSPCrJqopQa8xXVsgbYl37djR8fwR7MsC2rw6AT4mwO3t+3G2cja7q9s6B+DEpQjcKOPY92ZL4Y5PEf7pFIz7MRa5TT2wPPQIosNCEPzJR1j+yUcI3rIfseFfYnJ7IO3M1/D5936kKd3/Lja8PRe77wNoPwrLfw5F7EXp+S4ewdmfP8LkjuZAbiyWz/gaMfzs5SoS/KqJamPQq/y64QVXse05zuwPBwAMGa9+7mU1dir8AODPvTgmTj883dVk2zRHW9kSSi08OLxXkhnm64ch6oJIbiMwpB6AlEM4pvIj5oVeLmIbYNdGdVfGCxHS1zl2tGoRelMvjJ2mGEXSUgcH2IltWqng+67D69bIbS4OJ9zDnfB3lJdfSjVrruv6wW7o1Uf1PVT3OBX7zN3h5Ci2EWnvzV5tkLbEu8I7OsoYdOCrZxtr9HOwgZkettOk2u3Y293gv/Eeuo6XrMm3aN1Z8uWRcQgfdOmCKfN34mpuNwyZNhWTRnZD7vUy1q1ruz6+jRcmTRuNrvUAoB66jp2KSdOmYkCbkodKWOMO56GzERqdgeaekjoGAxrF4/S6iXDvMlPDmv3HOP5+D7hPXovzDb0wadpUDHmxHjKjd2K+V2fVdOvra/FKey/M//kyMqW1AQZgB/x7TcWxh8pDy3Jr1w+SL0HPqRhV5s673TA35h4iDm7CJKUU8wwce8cZ7mM+Rmh0LrqOlL6HuWW8bm3f90adMXbaVAyQzvfbDZG872Nd60saFD/3pw6Sz33aBAxo/Vxar6EzAg+oewLqaVs7Q6Z8n3kyvh7thU8P2GDItKkY4gK0sy+tSmvdUJ7gl9mvb8Fifn1YzK9fqTuWyZivdJafTxPj6K01IuhV24TvDUUmALf+b8B3MICsUGw7zvqaNUXu6RDM25MOWA5FcOhSjGuvpgREY3cs3rIQPiYAzn+FxUcUPr+4/dgaB8n9t3yEcS62sDCR9pmYw85lFBbv/BqTmwJ4GIrVe9NL7luDvNSuMfo52MDCtGrno7Lgl+KS7rKCX8bRW+W/r0yPfyZ2653p8c9Kfh9r2NWxNge9/H5RU5JDfsTgHbWBAWc4qSS/3cP9ZElfr26qQQtAUpz9BRcAuIZbwoVNp84V3yAl9WoUAMAifjs+CJyp5liD8wCAy/grVrizi7OawJs6ybh1FQCao2tH9a/TzqEcc5+4eDUZSdqo2Puu/evWUsFzZN6Px+k9exG65mMEjugB54k7xVFlUPfzpV7VfOYUnmSKTRfNDeb4JsoIqyJRo45vLxt44Gudnyv2TusFm/pmYhfVMZkZNph1Ohm/b5KsyY9Y6CwpOj/KD9vvA1av70D8gyhsDf4Oq36Jws3UUEyzl6xbf01N4ELr9fEvTsWq4C8wtgMAOGDsku+wKvg7eRAo9/BMvDL/MmA9GsEJjxF1sKSOwe9zugH3N2HKRHWp0/dx+thj+O24h5tRkrX+W6MeI2KJsyTdes0Ohfsk4/t/KdQmiFEY/1E8At/fq/TIZbl6WRJkaPZSD7VXnrRxa50Ppmy5D1iL7+E9bJ3hIHndo1SLnWr9vjcfjlnB3+Ht/pKbPWdK3vdZwyRXsy5+KlmqafV6KOLvSj/34E3YlfBY+rORgdBPNqmeXwNta2egQp/5c2RmDEdwagy2Bn+HrVH3sH68hklYHVOe4FdNou65MuilhZyT2H0QgIkHfHo3gtcwyR/3YbuOCFlDJcIXeKJjd39sSM1D6pGvS+pN9RwFn3fWI/yJZFza8RBM8VPoC9qJmCzx0TTUnuruDbfXZmP5EaFuVepO+Kqpi6VyLJD8oSGXexfhm5dinJd36Y8PAIhCUHdPdJywE6m5dxG2cjZ8BpbU0xq3IFT966gU6di9QZLB1ePdQPiUVrvXcigCp9rDqqMbLLIUAjJpd3EbAFp1goum+5u4Ysoke8CkEVJT1Hxf1wAbJ3TD3mm9xOYqUWxjj4KxP+oU/KpJanPQq7JYKC43U+s+bt0T2yruSYbkomrulb3YvnGTmmMvrqrJWi8fG1gLq/pk2jnqEMTr3EMafLmHzAqW3Kiu9x2QXPj9coQDWlnZwLl9D4yfPBGB89ci9MxdtHPUIXtMR1X7mdddyY+NDeq4kW6Evx+hRh2JGQYe+CIDJN/iV8Phf0i8h4TLO5jkJrRFrsWX0ZK6B798PxpWil9oTYZj2f8k69avLlqL02qKpGu9Pl6j+/j5803IRD34bdgEP6XsKWv0XPgDZtkDiPgSG+MU+6RUah8ATm/MwgAAiAjHX7LGyLX4Mk59fQen2Xsx90VdvrFkV+KATg4txE4tncMPiy5L6h7s3yS8h9YYsmqH5HVHL8YPEQp9UhV/3y/j9Jl6sDLtg7lLhgtp6/Xg9H/S9zAuRvurg2reW/W1Myr4mb/+Nvw0TATrutoa/FL3HBn00k7aoVCEFQIY7A2vBoDF4FHwNQFwfj/CVJabKHqKvZ9MwKA5+5HW3h3jxnrApcFTJEZthf9rX2PbBn/0DQpFanOFvuMhGPf6esQpLqUrTMEGfz9J7an7lnAdJq1b5WKOzBvR2DBnIsZtVggs1LfHcGltK5XD20n+u8jFWeFSfFYU5vlOhP+ao4gplNbGGmwP3JQ8vtenUeqzkrOisGTiRARu/xsWvUdJXof5U8T88TXG+X2F8BzxDpUg9Qh2xQCAG8YPthV7Vbi8uwXRv6zB6rEKOQJ2LdEGAG5cLTVg5zh9C25c3I/w2eIXPaEWB78Y9FIvV82cVJkzOqnNJKsg6TzZadk1NdlrykfFNwJ6jAy12e9A7lMNHeo4umNAPQAIx4UrYqca9zdhSsseGD91LS4KgbJqe98zDiGwqx/WRtwHWnth0rJNWH8wBpdSH+NO5j0cXtZHvIf+VOlnTlS5GPiiuqFXZ5WdHq+GhSIXQLPxfuiq7iqO20RM6gzg+SYc/FPs1H59vEb3D0ofdzRGDVN9LJh2w9CR9QAk49gx1avYXfv3Ua190LyFSg2DhDPh8tepmnLcHKPeLHt7Z3XsdHmtiqIPYv9zAM0nYJS6v1FMu2Hs/zkDeI6f950TOvXwvqMbZkUlIz4zHNPULdVU8x6WSdvaGRX9zLvpcJWzllNcjqjtIf6BBA2BpYIek1EweAEKBi8os5iyPsjOVTB4gVK7UdJJlecGYamRLkfdko6w36MBNMLk8R6S34Um7hj3aiMAsVj/a2lh67uIiwF814Yi/PuFWP7JUuwLX4PJlpLlcovXPRL61iOgLYDUUOxS+MMpbe/XWB6TB7gEICx8C7Yul9at+nk/olcMhRWAuG+2IFwWLGvqjgBpbSvlIwA+Fo8kAazeH2HDZFmdrJL6VnYvL0V0+HpJbazV6xF97EtMbguk7ZmLydvU7KR4JxrhWUMRfGw/9q3+SPo6tiCoM4CH+7HhUBUsCUz4G3EA0MoVrk3FTi25jEVgbwCFJxE09A0EhuxH3J2najLd6pbii1tU/v2XdZivdFZZ2q0u+FXc3kP++6oqdr0t6lByvmKFYvrqgl4AYJx0UuW1aXNoWkZZe7RAcwcAiMeFyxouWBZcxl9xANACzRqLnRXn5CopVK5LEXXdOaBdVwC4j6s31L/OhFhtLnLK9JHWBHuOn3dKanWV5sGeTTiWEY/T5x7DqhFqxPt+67/zECotrh+fcBCrZk/ASE9nNGsimUfeSqy8z6NqPnOiqsHAF9UuLl8gSs1VBvmxXrKLoEhdbYP7/0hSAvr31LTjiDO69oSkCPtt8ctO+/XxGiVelqyLrxePPbPENfOS47szkqGy5YWKnLRMbb51XXLfF1zV10Ro1lq7xxElJKoGZrRyL1myjM+zh3R7bFWyL9rcFHGDAT2874LcR/eRELEXB35ei0+njoBnSz+EioPKoO7nS60q+sxJmXH0Vhgp/MFX3MEDhUPmo3DI/CoJfBW5TZafT5HZHtWgV03wKDsPZ5IfI/FRVaQFlZMsm8jSGz4KAfS+3t6wghZF7r1nY7mnQqVeEzd4eUv/e3Cg0OeE4cNaAniK6CuyINNTnD1/F3aWtpg8ewIcZXWnpKy8x8LXUpIVlnhHuU+UuPl9+P+RDjQdivWrR5UE3mN2IjgOQNsp2LDEA1aK52jsjsVfTkEbAHE/7FT7Wn3mzoWP4h9hJvYYN0HyZp2N/luhQwvXQzBIXJKpciyF4p+VqanSYErrlrpfTJCzxbjVIQjoYQ7kpiDsx6/gO3IUXHuOQt83FmL55pOIu8+abhVh9DgFxtHb5LeLbezlv6+KHKog8OWg8PtYIdBmenyZ0jiqh/6jJBcqj+3aqzbTM3PPJsn8xWU4+utyPVBL7YYMl1xE/vkHSSBG9HQn/BvUh7PTCGzUZpdIDYaMHA1ofJ3x2L+r1JReFT2D1mAAgNyfZmPtdbFXQcYhLPlUcsF1wEczpRc0q/99lwWdnPr3UVNcPwMXIypvo6Oq+szrujEu+Xi/f67BHIu9ivD5EFT4CHLPw9jOGQjs9VylT9dj4UsMfBHJ03hLc+ufSli0/+SxJKjz/DIOqKyZlxwHrogBt/KzaqQmwwgAHHUpPukAp+6S/3rwUN03oA5MVfLVVCXfg27TGy0VZODY0hHoblUf7ds6wHPERPj7f4zvd4XjvqOzSnag3lTxZ04KqiDApauqCLqVx6mb6Riz8QK+i6y5S6Difg9FHACrl73RVzEg1HsUJrcqu8i9S1cnlYxZR3vJb0KXbq4qfZaSS/8KGsF3+Q6cPRWKxb2FLgCALdq2EtvUuLkVs9ckALDF5BUL4aVQxyrutGQZY5thnnARAmsAABdvjO8IIOsIwlSW8DjBzVW1kLxdk7KXHOpd8yYVCHwBsHRF0Mb9OPvzRwgY7AorC0lttbQrJ7FhzUL4+njD9bWvEZaq+fOm0hXbVNq3XrkVth8oNtV5zcbNwiRryY7hr62IV7owmBv3PfxnHQJQD36fTK3YPMbeQXJhMilZuV6iy2zMHQkAhzBv8vdIUJyuFGTgwPuzcABAZscJGFWBJX8WY2djmux1rlG8CPgcCSumYq2uX02tp2LZsm4A4vFl7x749MB91azRR4cwf4CfJLjj9gWWTSmJYFX3+97OXnLRM+F/O5GgtNzyORJW+KjsFK9XVfSZ13WN6xcb1GHbAGiihyMq5QEm/+9P7L2aqtKn62Fbz8ADXxv+TMVXJxKRnafmUiiRTJlr9oGulZFpYypdmlRWFlspmWy6yHyqIaCS8Ri6hLBe6C+58vXgzxg1BdhVXZzrgO4D/PDpLiFDrEBl2qGqq0PFJhFqZeDYO50xZXk4HqA5Bkz7AsHbDiLi5j3czHyG+NPL0VO8i75U8WdemykuR9TlUBdMyn/1R6V2k2PLYL7SWe3Sn8pgtsFHfj5FBWOVn5e8Xc3r0ubQFyMYiU01TAIO/XEXQEtMfsVV6HPC8JclSwXDDkep/nEj1dFBtpxQP3Kz0pEaF4WwI6FY/elCjPPxx/LSMgsgqcMVNGM94gC4zP4ai3sodz+4L8kuc3PVdGnCHi7OAPAUaffEoI89HLUJvGmrcwBOXIrAjVKPhVC7cD4pBalim84kOzgGrQ5B9LkIxIZvwdbPAjDO3R5WJkDujVAEjgnAhpvi/WqGkMgUfHVCf+kQRh08Vf79a3OoW7pY1MEDRW5T5LeNkk7Kf19Vxa6OJjFbS34fKyxHLG7vof75uk1ReV3aHIrLKGutRsOxKvwL9DQFri7qgfZOIxAYOBOBIxzQvtdsnM4Aus45hOVC/VedmXZGO3sAz7/H9KFT8UHgJkjKu1rDb8NBTHMEMo/NhmczB4yfOhMfBPphWLMW8P85A7CegK07ppZ78yMAgGkfLJO9zvk90N7dDx8ETsV4Jxt4Lrqs1QVrkdPscESs8oJVQTy+f80B7W27SJ/7TEwZ0AKt2vpJMpZemovf98+Ck+I5qvl9d3pvMUaaAohbDM9m7pgSOBMfTB0Bd1sbeC5KxoCZEyQXsC9d13pTJu1V0WdOpIa+Z6OGHfg6l4oV4UnIztMiskF1TvPWkqs5Zy5qShGOx9WLAFAPjctbn6Q0nZ0lV3biYoQrOPrVTroM769Y9X+F5d64rFUAS6bZyAnSAvqbsF/ctllUEI49P93Hg+hDuAVpMfwWDpIvx4gY6URKVUKs5DOxaFLeAvqlSNyET3/OADAcwanJ2BU8C35jveDU3FqyY0/Kde2L2uuqij5zQ6C4HFHbo9imnUqh5vxXf1T6ow4AjJ+kwOix5KgKsnOJ5yu2sUf+9DCV4JdJzFaV16bNoS/FKBabapbz+7HtDgDcRcjr4nI7T/j+KF2OeGQHZBu9Vo48JO5dCt+BnnAd6IdBr89F4JyvEbLnJBIbtISjpl0IAQBPsW/RXOx7KK3r9WYpf5Sry/YSpD54JDZVu7YO0tf0JAul1KUvF4vG9uj78gQs/34Lok+tx+L+tkBhApa/Jwkk1jTBZ5KxIjwJuQVFYlf5KCxH1PYoaj9QJdCvrlC8UQ36/SgW5AcAo5snUdR+oMrrK+tQXEZZq3Wehd9vhmPZ693Q7FE4QjduQmhEBtp5zsKqqHs4vETdcjhdOWPm5i8wsjXwIHIntm/8HqdlH4+1F5bF3MPvqyaga5MMnN61Cds3HsJVC2cMeHcHom5uwpAKxn8A5ddpEXcI2zfuxOmn3eC3Khy/L9GyvISSenCaeRCXbx7EsmlecLK+J33um3DsCtDMbQI++e0aboYvRk91z78633frCVh/bQfe8XSAxfPLOLZxE7bvuwarsV9g61/J2LVqpqSAf1wojpU1Ly+PqvrMiQT6no0adOCruqU8yZBnb0Tf0N+VPtKPrj5+sADwYFcorqoLQkTvwPbrADAag18SO/XA3gdD7AFgJzbtUZdz9RyhE+ujVUsHjP+unPW0ADiNGo12Gl/ncxzYo2EnTE2aT8XcmdYAzuHT+errHcgkrPsYG58DsH4HM8dKl1q6jcCoegDu78T+aPEekiKhe/4rSW0fOaQSdqq5Lt2t0cVL7eQm81y4xoBchVXRZ14XqStiry7oVdOoC35pKupMEmePHEEmAIvGLdGmlfrDygJaFLmvmMTNAfBZdBRxOY3gMngKFq/4EvsOhCL6XASiQ5difCkZV4mb30fQcajW9VJHi6T1jm31m8GmF65u6AsAd2IR+1DsVCMmBF4+AQhceVSaIRaN5X6j4Nr9DYSUlsnVwAmTv/CXZJulanmuOsYo6STMN/gotakLetU06oJfRo9TYLbnLaW6jTWPA965IJn/67bT3XAE5zzDnZxNGCJ2KWrSB9PWR+FSuixL/DGiDn6BSS+qTmrazY7BnZxniJitbuWC7HnG4B1hmZrVS7OwPkH2+FF4RzE2b2qNnjM34fDNxyVZ6ndjsOvL0WgnVtVwnIWInGe4c2GW2gz+Up+f9HXGZ8rOEYXgmX3Qs7T7lMGiuRemBR9EhOJzz7yHS6c34Z1hDirL3JXo8L6X93VrfN9bj8YnB6/hpuw5pyfj8PpZGOJYD0AfLEt/hjs5Cps2qT1/GT9fIzdJHlvdigM9fuYEjB3mjVYN6suPu/9URsSSRAx8Ud3VbxbmugFI+RKvvbMXmYpBoUeHMP/NL3ELgNOSjzGkHGnVJWQ71CQjVSn7wBkzl0i+XI7NmoiNccpLETP3vYN5+wBkdIGfr+5f7nIuMzHLU/Y6DykFquTn0FHPTzbBzxrI3TURHmO+x1Vhy2fgORK+G4FX5l+WpkkvRk/5e9gHby/pBiAZa0dNxQHFRIWCDBybO1FSv8FlMd4fptBXDrJst7T7Cm+8g3T5ZNwmhApJcLlxX+K1qToGAnVSRZ95HaNr0Kuw/UAUuU1BkdsUlWyryiA7l6bnw+CXDnJOYtuvTwG0xPQfdiD8gPoj7APJEsgyi9yXV2EUgr9JANASAVv3Y99qf0z2dodLK1tp0C0FN26Id5LIPf0VJmuo66WoWXNJMCs6VlPwLgVx8QDQCFY2Yl8N0LQvfHsDQDR2HS97F8mzB/fj9v1YhN03ly6ZaYlm9Z8iFyk4cb6M+1s2kWZbZCFTXPVZx+ka9CpubF/yO6sKsqSKbUrOp245Yu0NfhERUU1i0IEvI30vDCUD44B39odiUnMg8+eJcJatm3/NHe2la/2tfDdh9+yK//Ep2Y3vOTb+ywuBgTOxXVqI2Gr8Juya6QBkhGN+Lxt0HzFVUm/A3QbOE3ciE9bw+2UHJsmu4JRLc0zaIXudfnCW1iaQn6M8QT3r4Qi+GoppjsCDw7MxrFl9OA/wk+xMKKs78EE4MtEcIzddRvBI5ath7d4Nw9Y3mgMZO+Hf1gbDXiupFzDlu2TAejSC985VrrFQDu3sJTtZnp41HFMCZ2Lt4fuSQp2+kBQ57SE791SMf8EG7Xstxq0h78CvMwBcRkIlJGpWzWded+ga9II0EJX/6o8qtb8qS8Hg+fLzaVKTgl/OzRphjlcHDOtcGWu8Kyb3zBGEFQLo7Idx6jeqBQDYvTwWPpAWfleXWVpRd1JwoxAAXOHmInYCiLuqPuCWFYV5i/cjTUNdL0UuA9wlO1QejkCcuseKO4JdNwCYuMPrRbGzJrDFuAA/2AGIWReMsNLWO97cieW/PpUEA1/3kGZdtITvGEkAM+bHYIQ9Ee6jIPP4EcmOkq3c0beUTLvqYlRNE1Jdg16QLjOX/b6qil0dC3so/D7WEGhj8IuIqO7p3soKc7w6wMOxidhVLgYd+CrW98JQMjzWw7Hq2jWsf9cLThbSdfMHLsNCutb/8o4JaFbB4AsAOL23CZ/4Ngfun0Poxk3YGCFbxmaNAauuIf7oGvi5NUdGxE5JvYE4Czh5zsL6v5JVgkblovA620lrExz7uwUGvLsDl7ZNEEdrp8lwLIt5jIhtczHErTlw5ZBkZ8Jd4bhv7YwB736Hw6nJWD9e3d7O1hjyfTyits3CgM4WuHpAVi+gG/yWhSLq5g746SHwYzF2LdZP6waLgngc27gJX+6JkWSgbUuWvBf1nkvPvRd/W4+WfOa/r8H/Da4n2TL7cGUUCKqiz7wOKE/QqyarKcEv52aN8NEgRwzrVOoCvGqQjn27JH/k9njVG23FbkUNPODrDQBPsW3XSY1F7sutSUu0NQGAKOw7LqS8PjmJoPe24rZyK1CYgg1vS+p6WY1Yim2l1fUCgB4TEOgCIHUrpi86iUzF4NeTKCyeLzmHS8Ab8NKiDli16OGP5S/bAllHEfjaXGy7rpqOlXsjFP4zQhBXCNi9PBdBCsFAu1dnI6AtgIdHEejzBoI2RyHxSclj5D5JQXjIXPjMOYpMAH39x0JdHLK6FVfDhLQ8Qa+ajMEvIqK6pVsrK3w0yBGeHfSzI7VRcXV8G1eRDX+m4lF2HgL/v707j4uy2v8A/mEHRRBMcAdU3E1FTVIT0tTU1LAS7aeGad2Um6ZGZmqZa0W4dV3qapB2c+tKarmmgVcRS0HLBcMFxRVUBJF9+f0xC/OceQaYYRhg+Lxfr+f1Yr7nzMwzyzNz+M4536ePJ+raVnxUmJFfgCcFWkWSiIjIxCqS9LI6vASWSYp/lDSLPRvrn0Jx3zT/USvP7VukXYfNxsGSYs/FLh7Ie1/ztO7aXGxtYG9V8e+6auteJF4bvBLx6IgFB9ZinFxOXVP0IrSe/iug0T9qnh8m/wyMWBWN5X7S7snfTcbzKxLRYcZW7H5DWjNLru3C2gkY8c11ALZo5tsPzzaxQ8blaET9mYlcrwCMaxKJ74+X3Ffqrtl49pNYALbo0H8gOtaX3IWGjhj/8TBFAudxLOa8OltRpL+eNwYPbAOnR3/jQHQiMgqBhgPnY/dnL6Ch+mWPxcyus7EbL2CD3FkWVc/JS5/j8mJfsVWb+jksL5n7LcxE1JdTMXmL4v1sV78j/Pt7wgm5uBkfixPXFInDhkPmY/dizcei9Ogo5gTOL+NEBbbo9vZKbJza0QgFpo1vbcx1ZOYW4IPnhUJKBkrPz0dWgdw0QIWKJL0srh6F9W9LFH8LRedzl2Rr9DSc3VzlGY6Vn22qZH/B82UXobdIuw7rnW9LPruLXTyQP0r3jDEioupk1KCBiD12TH35dOJlNG5qhF/8qwlXW1vYWVWv+VVZ6WY+42vSM83xwfOtjJL0IiKi6sPQpBeUZ3W0vHpU6wxnUP7TV+EtTXpCcdV9yd2fHF0zv6wOK/4Zra0u/Hcb4gGg20AMLivpBQB9h2FcPVRakfsOU9dix0cvoFt94Gbsr9ix8xBOZLXBuE83IO7H9xA8wAcAEHVcsdYy55GqoGEeLhz5BTt26triSs60W88Xy3ZvxZpxPmhldR0Hdv6CHUeuAx1fwJx/bUVUqEyiqLqxcoT/7E04H7kIU/t3REMkKh7Hzl9x4r4tWvkGYtm2X3BimY7HUr8flu09hAOh4zH46cZoqFETza5+Y3R7aSo27PkFO6pp0gsApvb2MFrSqzxsdko/H8ub9AIUZ3VUfV6JZ1rU+qwzcJPcZprG/T0q+0ySumZ+qZJ1REREcsx6xpexccYXEVH1oLkEUJ+kF5RJM8u4zWLYJPSZMaE580tVl6w0Zj/ji4iA8sz40vzs0CPpBZkZq6akz2e55syv8syIJSKqLjjjy/TMfsYXERGZJ9U/Ovr8o6RSVN8DRS37qbfKVOxi+H2pZn4V9J9XZtKLiEhF9dlR5DNer6QXoDyro4GfWYbQvC+5szrqop755TOeSS8iIioTZ3zpgTO+iIjMj9XhJbA+slgMV5ipZyEYa8bX8aQ0fPHbFbzYtiGm9C7/P6JEZBplzfgypsqcAZY36QDrchFRrcMZX+Vz8O9UrDl+Ha90boQJPZqJzXrhjC8iIqr1iryek1wu6D8PeZMOIE+YKaErXuQzXh3XrMtV7FUz/6FLzcxFTFIarjzIEpuIqJYRZ9Rqft5pzggrdvEoOy7cFpNeRESky50MxXj0elr5y4SUxqwTX+9GnsfI8FNIy84Xm4iIiGQVeT2n+IdMI4kFAMUuLVDcsp/WP2tF9T1k4zWVpYWFGCKiCpi47SxGhp8SwzWSrs+7YheNuMaSRc14kR5LGYmIqHYz9njUrBNfp2+mIyYpDfmFRWKTSaz87DOELVmMsCWL8fXq1WIzERFRtVPECghERvX7jUeISUpDbkHVjEeJiKj6sDByQsdcGXs8atY1vnp/FYPE+09wPqQf3BztxGa96Vvjy6O+M/Lz8gAAjZo0QdzlK2IXIiKqYhZp1yWXVcsVdcXFtvLETcFYNb5+OncXb+34C2/0aIYvh7cXm4lITx1Do5GSmYeb8wfAzrrivzmbssYXSvlcq0hcbCMiqi1Y46t8vjt1E+/vuYhpfT0xf6C32KwX1vgiIqJar9jFQ7KVFRfbyhMnIqqpdH2uVSQuthEREVUmJr6IiIhI7eVOjZD66UDO9iIiIiKiKvFGj2ZI/XRghWd7qTDxVYlmfDgHs+bOxay5c/GPadPFZiIiqkFsv2yn3izjNovNRES1ls1/31Z/PtpsHCw2U01VXKTeiouLABRrb8UyGxHpxBpfVcOsa3wZm741voiIyHzYzXVQ/53/yjco8hkvaa9qxqrxRVUn7/g1FCanIS8mCVbN68O2txesWtSHVXMXsatJFCanITP0N/V+2fbxgkNgNziM8RG7kgmZusZXedhsHAzLq0cBAEUt+yF/0gGxC9Uwlhl3UW/ja2LYuMQEgK7/SsV+EoorWVhYlFxd1+2I/Uqh7ldaZ+V+ldYFqkSHspO0r/SSZkKkGEBun3eQ61PJrwGZHGt8mR5rfBERERFVobzj1/AwYCPuus3Dw4CNSJ+2E9lb45AZegQPAzYitXsYUruHIXtrHAqT08SrV5q849e07jfv+DWkT9uJhwEbTbovRGSmtGaK6dg0Zp5pb4rrFhcVAapNq4/GzLWiQqAcW3FhAVBYABSVshXmA4X5sChjQ0EeUKjYLCSbTD/lZlGQB5SW7yMivTDxRURERGRihclpeBiwEQ8DNiLv+DWxWaIwOU2RcHr5W2RvjRObjU61b7rkHb+G7K3xYpiIzJ2NvXQTie3l6SPSt708fURiu9hHbBPb5fqIxHaxj9gmthORUTHxRURERGoPnuTheFIarjzIEpvISLK3xiG1e5hWwsu2jxccxvjAefUoOIb0h20fL8kyR3UCrJJnXGkmtayau8A1chIapSyWLHHMDD1SqftARNWPlUdPyWbh2kLSbunaQtqnaWdJu4WDs/ZtODhL+ojtlu5tJO0W9dy0+kja5e7DyV3Sx6ppZ+l9uEmLZ8veh2ZiysZeq13ruXDzLv0+ZPZTK/lV6hJPIvN273Eujiel4XpatthkECa+iIiISO1/1x7i5fBTWBdzXWwiI1AtF9TkGNIfjVIWwzVyEpxXj4LDGB84hvSHa+QkNDw9C66RkyQJsMqecZUXU5KQcwx5HrZ9vAAAzqtHSRNxNx6p/yai2sF22DzYjV4Ou9HLYd1jtNgMq46D1e22IxeJzbCo66putxu9HJbNuohdYOM/Vd1u0+8fYjOsPHtKbkOOZrtV+xfEZlg/M7ZkPwd/IDbD0q215DYsnBuJXcp8Lip+H0x8Ue21/1IqXg4/hU2nbopNBjHrxFf8rQwcT+KvkUREROVlyV+YK424hNC2jxdcIyfBMaS/pJ/Ito8XGp6eBYcxPurEU2boEWSGHhG7GoVmQkuV9FKxalFfcpnK9kdyOsejRKS3Yn4fUy1m7PGoWSe+gneew8vhp5CSmSs2ERERabFIq/gsJ2PcRlUq4smeK01q9zD136qkl5hYKo1iNlg39eXM0COVUvNLc5+yt8ZLittrLs/UZ99rs6CtZ/By+CnkFhSJTTWKhfKsjRVhjNsgqj2M+48/UU1i7PGoWSe+iIiIystm42DYbBxcocSV+jb4zx0JNGdnqepmiRRLGOOQPm0nMkOPaNUAg3JZpGatrextxl/y6BDYTTKzTHVmSXG2GtUelnGbYbtxMKwOLxGbys0Yt0FUqzDvRWQ0THwREVGtZ7NxMCyvHoVF2nWDk1+S29j5NpNfJKFZk0tz1pZKZugRPAzYiPRpO5G9NU5yWSwi7xjyvDoxlXf8mlZ7RSmK7Ev3UfM+dCXuyDxZxm2GzX/fBgBYH1lsUOLKGLdBVPsw80VkLGad+LLkZwUREZVBTHIZkvxSJb1U9LluddPQ0Q69PV3QqkEdsYkMVJicpk4cWTV30arpVVq9ruytcVqF7K2au0gSU2K7MWgWuNfkMMYHDU/PEsNUCmPXKTE1i7Qbksv6Jq40k17q2KOa+xlJZDI1/LODqCIaOynGox4uDmKTQcw68VVk3GWhRERkhopdPFAw6hsUteynjumT/BKTXgCQN+kAijVurybp4+mCXRN7YEpvD7GJSpG9NQ4PAzbKby9/q+4nLhEsTE6TJL0cxvioz+youdxQrOVl27vkdlSzw/Td5JZSAkD6tJ3qNqvmLnBePQoNT89Co5TFcF49SuxOZTB2nRJTKxwwFwX950li5U1+ySW9inzGI/+VbyQxItJWwz86iCpkUJuG2DWxByb0aCY2GcSsE1+TejVHiH9L1LW1FptMwqO+M5rUcUCTOg7wad1KbCYiomrC0OSXuSW9SH+FyWm46zZPnSyS26TLBKVnRdRMPqmSTKrkl2aSLC8mSf03ZBJo4n2WZ5OjmGFWkmQTk3Ckv+A+ngjxbwk765o77DYk+cWkF1HFWHDGF5HRWBQXM5dcXhn5BXhSUCCGdfKo74z8vDwAQKMmTRB3+YrYhWqZupEhKK7rAghHneJicZlfcOqrafaTOYJVofLenoWFheztqBQDsChHnYFi1a6VcltQ9yv79lDGfqmV57YAABbIHjBTDBKpWaRdh/XOtyXJrGIXD+RPOgDbL9upY/mvfAOr+O+rVdLLxdYG9lZWYpgqWWnLFOWIZ3LUvL5jSH/JMsi849fwUFlQXnUWSE2p3cMqVN9L3JfC5DTJmSfF/aHqIT0/H1kFhWLYJKwOL4H1kcWSWEH/ebBMOqr+PCxq2Q+F3cYx6VXDWWbcRb2Nr0liVq2fg+2webCo6woAyD+1DfkHv1S3W7q3gbXvBFh3HAwAKH7yANmrXlS3Wzg4w6qNP2yHlSRRc3fMQmFiyXepVevnYOM/FZZurQEAhYlHkbujZHm1hWsL2Pi8CutnxqpjWUt7lrQ7OMOy6dOwG71cHcs7vBIFJ/+jvmzl2RPWvSfCylNxvaK7Ccj5dry63cK1BazbDYCN/1R1LPub11B8X/kDhI09rDx6lv5cNO0MG78puu/DyR3WnYbqvg8A2S+EIK/zCPVlMg+jBg1E7LFj6sunEy+jcdOmkj41mautLeysqtcPPVnpTHzphYkvqqi6kSGwTooVw2QiRa4eePzG92KYSEJX8qu0mV+o4qQXmPiqMqpi9FAmkqxaSGd0qfqoZliJySbVWRwhk9wqLSkGAHfdSv55NKTuljiLS3P5o1VzF4NukypfVSa+oCP5pUnu85JJr5qHia9qkPga+AHyOg1XXybzwMSX6WWlm/lSRyIiiXLPDKPaTNeyx9JUddKLqgerFvVh1dxFdlMRZ2jZ9vGSnKHxYcBGdc0uae2v0s+yaMimSazr5frTm5J2lbzj19TLIcXHQrWD3LJHTeLnJZNeRAYq5riVyFiY+CKqQhauLWDZtLNkk7Cx12q3cHCWdLF0byNtd20habdwcte6DZHYLt6H1n66t5G2Ozhr3QZs7CV9xHYLJ3dJu9Z9CPspdx/ifmq1C88FUXnJJb90MbekV0JKJr747QoO/p0qNlEZCm88EkMAANvenuq/xVpdVsIZGvOOX0Nm6BGtGlziZU1ys8z0IVfXS0yMqeTFXEP6tJ2SRBnVPmUlv1SY9CKqAP5ga5Z2HjyE21nZ6s2cZnsZ09nbGfjityuIvvpQbDIIE19EVcjCxh5WHj1g4zdFsT0nrYdhYW0HC4f6Je1+U2DZrIu0j4MzrNsPVLdbdxgkaYe1nfQ+/KZI223ste9DOS1bRes+uo+WtMPGHpZPtZTchoVzI0m7hUN9WPcIVLdbdSyZ+g7lfZT2XMjup9ZzUb/056IcdcqIVMqT/DK3pBeUia/QqKs4eOm+2EQG0kwiyc2UUi1j1JVsgrCkEqpZWcplkw6B0tlg+ihMTlMvtYRyX8TC+URyykp+MelFVFEct1LtdeZ2BkKjruLolQdik0HMOvH1buR5jAw/hbTsfLGJqNqwqOMCK8+esPLsCUt3b7EZFnVd1e2qOgEiS412y8btxWbJfei6Dc12cTYWAFi4tS65j0ZtxeZy7afkPuo1FJth0bBVyX1UynPBAQTpp7TklzkmvQDAkr8wG53mckYAyN4aL2mHMuHkvHoUXCMnqf9ueHqW5Hpi8ktVE8xhjI86pi/NpJdtHy+tOmJUcRO3ncXI8FNi2CzoSn4x6UVUcVzpSLWZscejZp34On0zHTFJacgvLBKbiKg2MvIHKNUO6uSXj6IobbGLh9kmvQCgiOe8qRSOIc+r/84MPaI16wvKxJMq+eQwxgdWygLzpSW/KkKrrpdw1kgyjt9vPEJMUhpyC8xzPComv5j0IjIWjlup9jL2eNSsE19ERJqKOYAgAxW7eCD/lW+Q934C8t5PMNukF1Uecfngw5e/lU1+yamM5JdcXS8iQxUOmIu89xOQuySbSS8iY+EPtkRGw8QXEdUeHD9QBRW7eIghojKJdbRUsYcvf1vuBJYxk1/i/rCuFxkDPx+JjI0DVyJjMevElyU/K4iIiPTynJcrfprYA1N6859YYxHPgKhKYKkSUKr2smaAGSv5xbpepmXsOiVEVEvws4NqsRfbNsRPE3tgQo9mYpNBzDrxVWTcZaFEVMPxI4GobA3q2qKPpwtaNagjNpEBHgZslCS9XCMnwXn1KK0zPT4M2IjU7mF4GLBRnQxL7R6Gu27zJAmxiia/WNfL9Ixdp4SIagkmvqgWc69nhz6eLvBwcRCbDGLWia81ozrhp4k94OZoJzYRUa3EAQQRGZdtb084hvSHY0h/WLWoL2mTS3qpCti7/vSm7NkY845fU9ffUiW8xLNAGpr8Yl2vqhExpit+mtgDdtZmPewmIiPjqJXIeMz6G7hbUyf08SwZGBJR7WbBX86IyMgcxviUJL40klG6kl4qVs1d4Lx6FFwjJ6nP4KgPfZNfrOtVdXo2d+Z4lIj0x3ErkdGYdeKLiEiKAwgiqnxi0st59SidSSbbPl5wXj0KDU/PQsPTs9RLIVWXG6Us1lmDSy75lRl6RLJM8mHARmRvjWNdLyKiGofjViJjYeKrEuXn5YkhIqpKHD8QUSUTC9k7rx4lu6RRjlVzF9j28VLPACvPLDAx+ZUZekSyTDLv+DXW9SIiqok448ssbdu8GWFLFqu3xxkZYheqBEx8VSIbW1sxRERVigMIorL8dO4uGn5yCO/vuSg2URnE5YaOIf3LnfSqCDH5pSIXY10vIqKaoZjjVrO0bfMmhC1Zot4yHz8WuxCA707dRMNPDmHRoUSxySBMfBFR7cFfzoiokqhmWqmoan+ZisOYbuq/bft4qZdKivsgFuAnIqJqisNWIqMx68RX769i0PCTQ0jJzBWbiKhW4giCiIwve2scMkOPqC87jPEx+cyqvBjp8krVbC+x6D6ZXsfQaDT85BByC4rEJiKiUnDcSmQsZp34qmqs8UVUzXDGFxFVgszQ39R/q4rV66swOU29GaLwxiMxJKu8/YiIqKpx3GqOAsdPwKy5c9WbY716YheqBEx8VSLW+CKqXorFABGREbj+9Ka6MH15CsfnHb+GzNAjeBiwEXfd5uGu2zykdg9Tb6rYw4CNyAw9Uq5kmOZZI7O3xquvo1noXuxHRETVGH+wNUuB48dj1tx56q2ek5PYhSqBWSe+LPlZQUSaOIAgKlNDRzv09nRBqwZ1xCbSwaq5C1x/erNcSa+HARvVCS3Nsz/KUSXIUruHlZkAcwgsqfGluk5q9zCkT9tZ0scEhfZJmyW/e4jIIPzsoNqrsZNiPOrh4iA2GcSsE19FnN5BRBIcQBCVpY+nC3ZN7IEpvT3EJipFeepopXYPk012qWaL2fbxglVzF9nbUhTPjxfDarZ9vLQK2Wsmyqyauxi0BJMqrqiYA1Ii0l8x1ypQLTaoTUPsmtgDE3o0E5sMYtaJr+7NnNHb0wU2Vmb9MImovPirOxFVEbF+l+rMi41SFqPh6VlwjZwE18hJ6rMxNkpZDNfISZJZWmXN+nIM6Q/XyElaiTPHkP5oeHqWJEam80yL+ujt6QI7a45HiUgfHLcSGYtZfwN/FdARuyb2gIuDjdhERLUSBxBEVDXEmV55x68hfdpO9ZJHzeL2ecevIXtrHLK3xWtdr6zi9GJCrVHKYq2ZYGRa4YFdsGtiDzFMRFQq/l5LZDxmnfgiItLEAQQRGZs6SSUUkS8PzSL3msXtHwZsRPq0nQbdpiZx5hcREdUkHLgSGQsTX0RUi3AAQUTGlb0tHunTdiJ92s4yZ2MRERGVG3+xJTIaJr6IqPbgAIKoTAkpmfjitys4+Heq2ERG4hjSX13DyzGkv7qwvWpzGOMDhzE+cF49Cg1Pz4JtHy/xJoiIyMyxtD3VZmdvZ+CL364g+upDsckgTHwRUS3CxBdRWRJSMhEadRUHL90Xm8jIVGdiVBW2V23Oq0fBefUoOIzx4XJFIqLaij/YUi125nYGQqOu4uiVB2KTQcw68bXx92R88dsVPMkrFJuIqDbiAIKoTBZMEBMZ1dqY6/jitytimIioDPw+ptrL2O9+8058nUxGaNRVPMkrEJtM4tnnnlNvPXr1EpuJyMQ4ZZyobMU8UoiMas3xJIRGXUVuQZHYRESkG3+wpVrM2KNRs058VbWte37Gfw8cxH8PHMQ3//lBbCYiU+MAgogqUfa2eGSGHlFv2VvjxC5Glb01TnJ/ptjyYq6Ju0FERJWC41ZzNGrQQDSp46De7ty6JXahSsDEFxHVIhxAEFHlERNReTFJYhejygz9TSsxVdlb3nEmvoiITILDViKjMevEFyd3EJEEPxSIytTOzREh/i0xqO1TYhMRGcCC3z1kLgpyUJx5H8VPHqD4iXbB6eL8HODxPXV78WOZswMX5Ja0y9xGWfeBglwUa96HbJ+cUtuL83NQ/DhFYz9TpB0KcoHCvFJvo3z7Wcp95OeUfR/F/Oyg2qtrEyeE+LdEv1YNxCaDWBQXFxt7+WS10furGCTef4LzIf3g5mgnNustI78ATwqqpl4YmYe6kSGwTopVX7Z0bwPrzi/B+pmxAIDiJw+QvepFdbuFgzOs2vjDdtg8dSx3xywUJh5VX7by7AmbF2bC0q01AKAw8Shyd8xSt1u4toCNz6vq+wCArKU91X/Dxh5WHj1hN3q5OpR3eCUKTv5HfdmyaWfY+E2BlafiekV3E5Dz7Xh1u4WTO6w7DYWN/1R1LPub11B8XznbQXkftsPmwaKuKwAg/9Q25B/8Ut3fsmlnWPcIhHXHwYDcc+HkDisv39Kfi9bPwcZ/qs7nosCjF56MKrlPInPiYmsDeysrMUyVLH3aTvWSRsVZGOur22x7e8G2jxegnA2WPm0nAMAxpD8cQ/qr+5XlYcBG9Uwr18hJ6tvMDD0i9Kx8eTHX1PuiOvMkla5jaDRSMvNwc/4A2FlX/Dfn9Px8ZBXwxE1UuSwz7qLextfEMJnQk1HLUeChMWYnszBq0EDEHjumvnw68TIaN20q6VOTudraws6q4t91xpSVbuYzvtaM6oSfJvYwStKLiGo+Fu0mosrkENhNndRyDOmvTlBVFs37MtVm27tyH5M5ihjTFT9N7GGUpBcR1Sac8UVkLGb9DdytqRP6eLqIYSKqtTiAICIi0+rZ3JnjUapxcnJykJZdwK0qt4zH4stCRAYy68QXEZEm1lkhouoge6vi7I9lFYpXLY/U7FfZs8iIiFROXM/kVoUbzLciEZHJMfFFRLUIE19EVDUU9b8Us34Kk9OQGXoEDwM24q7bPKR2D8PDgI3qLbV7GO66zZPUDwOTXkREtQt/sCUyGia+iKj24ACCqEzHk9IwMvwU1sVcF5uoglx/elM2eVWYnIa844qi8XnHr6EwOU3sAocxPnCNnCSGiYjIbHHcSrXXwb9TMTL8FDaduik2GYSJLyIiIlJLzcxFTFIarjzIEpuogqyau8A1chJcIyfBMaQ/rJq7qGeByXEY4wPn1aPQ8PQsOK8eJTYTEZE54w+2VIvdyVCMR6+nZYtNBrEoLjbfxcPvRp7HjUfZiBjTBS4ONmKz3jLyC/CkoEAME5Vb3cgQWCfFqi9bureBdeeXYP3MWABA8ZMHyF71orrdwsEZVm38YTtsnjqWu2MWChOPqi9befaEzQszYenWGgBQmHgUuTtmqdstXFvAxudV9X0AQNZSjVMj29jDyqMn7EYvV4fyDq9Ewcn/qC9bNu0MG78psPJUXK/obgJyvh2vbrdwcod1p6Gw8Z+qjmV/8xqK7ycpLijvw3bYPFjUdQUA5J/ahvyDX6r7WzbtDOsegbDuOBiQey6c3GHl5Vv6c9H6Odj4T9X5XOS37IOskZ+pLxOZExdbG9hbWYlhve0+fw+Ttv+JN3o0w5fD24vNJNBcjugaOUl2RldZ5GZ4lZYQq0qZoUeQGXoEAOC8ehQcxviIXUgwcdtZPMzKx66JPcQmg6Tn5yOroFAMExlVTtYTIOOuGCYTsrB3gl39hmKYarhRgwYi9tgx9eXTiZfRuGlTSZ+azNXWFnZWFZ9ftfn0LczcfQHT+npi/kBvsVkvWelmPuPr9M10xCSlIb+wSGwyiZWffYawJYsRtmQxvl69WmwmIpPjL2dEZSky39/Dqi3VzC/NjczH7zceISYpDbkFVTMeJTKEfZ26sG/UilsVbkx6mSeebKt8jD0eNesZX72/ikHi/Sc4H9IPbo52YrPe9J3x5VHfGfl5eQCARk2aIO7yFbEL1TKc8VXFM75aPYesEUvVl4nMibFmfP107i7e2vEXZ3yVk+aML9s+XpIC9uao8MYj9WMzdIZbbdMxNBopmXm4OX8A7Kwr/pszZ3wREdVcnPFVPt+duon391w02owvJr70wMQXVRQTX0x8EVUWJr6qRt7xa3gYsFEMmz2r5i5oeLrk85V0Y+KLiIhUxMTXhIhkOD7VTNKnJjPWfLbComIUFBXDytIC1pYVv9WKf/sSEdUUFf/MJDJ7L3dqhNRPBzLpVU62fbzUheprC9s+Xiy2T0REZASFRUCBGW35RtqKYAFLS0sUw0KrzZCNM770oO+Mr9hjx1BUpKjnYGdnh+69eoldqJYRZ3zBxh6Wrh6wcHIHABSl3SiZJSXTDuUsJk0WDs6wbNZFfVnv27Cxh4W1Xam3YeHgDAunRobvpynuoxzPRX7rfsgavkR9mcicGGvGFxmuMpc35h2/hvRpOwHl2R4dQ54HAGRvjVcXm3cM6Q+HMd0k16sMtSnJZwyc8UVERCqvDB6EE//7n/ry/32bjLpmNOOrujLrxJex6Zv4IhJpJb7IpPK9/ZD10mIxTGQWmPgyb5pLKh3G+KhnXGVvjVMnxBxD+sMxpL/kemR+mPgiIqq5xKWOb//nBuqZUeLL0sKi2i2yKTb3GV/GxsQXVRQTX1Ur39sfWS8tEsNEZoGJL/PGxBepMPFFRFRziYkvFrevfGZf3N7YmPiiiroYOgG5N/4Uw2Qiddv0gve7X4thIrPAxJd5Y+KLVJj4IiKquZj4Mj0mvvTExBdV1MXQCXh4OV4Mk4m4d+qN1kx8kZkyVuLrwZM8JKQ+QaN6dmjVoI7YTEaWd/xauWqDFSY/Utfysu3jBYdARS2vvJgkZG+N04qXh20fL9brqoGY+CIiqrmY+Cqfe49zcflBFpo528PDxUFs1gsTX3pi4osqiomvquXWuQ+8/7leDBOZBWMlvn46dxdv7fgLb/RoxjM7mkBm6BF1QsvUXCMnwbaPlximao6JLyKimouJr/L57tRNvL/nIqb19cT8gd5is16y0oGK71E1Fn8rA8eTyv4VlYhqi+pWapGo+rG04HFCZEx/JKdzPEpERKQHY49HzXrGV++vYpB4/wnOh/SDm6Od2Kw3zviiikretlQMkYk1D/xIDBGZBc74qpnyjl9DXsw1MWwSDmO6camjCXQMjUZKZh5uzh8AO+uK/+bMGV9ERDUXZ3yVj7FnfDHxpQcmvoiIqLpi4ouoemLii4iIVJj4Kh9jJ74qvkdERERERERERETVkFknvoy8LJSIiMjstXNzRIh/Swxq+5TYREQGsOCAlIiISC9dmzghxL8l+rVqIDYZxKwTX+a7iJOIiKhytHNzxAfPt8KgNg3FJiIygBlXFSEiIqoUXZo44YPnW8GvpavYZBCzTnxN6tUcIf4tUdfWWmwyCY/6zmhSxwFN6jjAp3UrsZmIiIiIzFxwH0+E+Lc0Sn0vqimSsL6H4n8A+c0FXbsNwcJNZ5FRJeWD9yO4jgOa1AnCYbGp2lI9p92w/orYVg4PzmLLogAM8nIpeR2cGsFvyBSsP5iEXLG/iWXErML4ufvFsN5urOiGJnUc4LciSWwiqtXM+ht40jPN8cHzrVDXtuLFfomIiIiI9DW1twc+eJ4/gJKmHKRcisL6d3zxTEAEbojNZETpOL3IH02a+2LWsv1IRFsMmBiEsRODMOBpIDE6Agtfbo8uw9cjMUe8rokcnIJ2L3yIw/fEBiIyFrNOfBEREREREVWVgB+zcTtL2FLuIvr7ILQAkHF4ChZur6qMi7lLx+F3umD4spOA80iExafh2rVYbF6zDmFr1mHzsbu4nRyJia2AjMMz4BcQgRTxJkyhIFuMGKzFjHjczspG9AxPsYmoVmPii4iIiIiIyFQcneE9ah02z1EkJ/Zu31XlS+3MUe7BDxG86R5gH4gNCVsxtq292AVo8CKWHIvAAACInoKPmIQkMktMfBEREZFaQkomvvjtCg7+nSo2ERGREXl376X4I+kutFa5FaTj3KYPMbqbJ7w06oO16zYEC3fqrkmVe2UXFg5pX3IdV08Mmrwepx+IPeWk4/DkRorrNQ7C4XRpq+K2u6GdU9m3rao1FbwXyIhZj+C+ytut4wCvzkOwcLfWI1bKwY2dH2J0Z2UtLidPTF5xEhlitzLdww9LI5ABoPuSzzHUWWzX4ByI2SHt4NTWH3ZPLomtyPgzotzP6eHJqjpkwuOo44B2fYMQ/rvmk6qsW/bqNsXFHwIUfXuskix/Vdx/N3R11agT17gbRs/ehRtCnk62xteVVfCr44Amk/cDD04ifLKvxmvYHqNn70KKjlpzBr3mu+9hb7Cv8vlyge87u6pmJl01tfPgIckM0MZNm4pdCMDZ2xn44rcriL76UGwyCBNfREREpJaQkonQqKs4eOm+2EREREZ049JZAICdny9aaDYUJGD9C40w6J1VOHbdAT1Hq2pS2SPjUhTWj2uP4SsSNK8BAEj8yh9encdgfXQSnP0CMXZiIPo2uIdzP8zA8E5jEHlLvIZU4orBGP9DOuAciM0JERigkSzK2BuELp3HYH10AvD0i4r9aZOuuG0vf6zXzhcBAM6tG4JnXpiByHvdEDAxCAF+7si9EoX1Yzwx6CuxAHs6Dr/TDr7jVuHYFWd0Hx2EsaPa49Qn/nh1xVmdyT5ZV7Yi4ncA8Mfro9zFVi2dPo1HQvw+rJnYRRJP/Mof7XynyD+nOh93Go681w2+41bhj7r+Ja9d3DbM9W+LWQdV2SoHeL8ShLEDlMsSPRR9x77SFqq5aZr3b98rUNE+tAvs0hNw7Ksx8H1hFRJ1JK20nFmF0Z38MXf7XTw9KghjR/vDrSAJx74ag67+0mQbKvCaH/5HF0wOv4tOo4MQ4OcMu6Zt4SZ2IirDmdsZCI26iqNXZLKsBjDrxNe7kecxMvwU0rLzxSYiIiKSYWlhIYaIqAImbjuLkeGnxDDVZjnpSNw5BaPnJgDwx9KZyplfSimbZ2Dh7wB8PkN0ykVsj1DWpIpNQ8L3gbADcG7uZzismfC4sADjZ58E0AWzT6XhzL4IhK2JwPbEu9gzox2QvgvBs7bpTB4lfuUPv7lnAWd/hEVJk164sgqvvroNGeiC6VF3kXAsUr0/ZyJGwqngJBb6z8BpmQRM4uEotPg0HtcS92HNmnVYsy8JCVuVj+GTVTit0Td373RM3nQPcA7EhuQk7IlYh7CIfTiTHAnvL4Kw8qpG57Kcj0ciALj3Quey816ycg9OwXDZ5zQN0Z/7w67gJBb6T8HhTPGa93DscBoCtt7FtdiS5yr603YA0rFlxVblDCh3DJizDmFTlK9/n+kIW7MOYXNeVCSKbkVgrvL+P45PQ+y+CEX7j7G4lrwVAfYA4j7EyoOSO9ftQhSOtVqA6JQkxXsqYh/OqG9nAb6O0ehbgdc8I90F048pXr81+5IQPb+d2IWoTMYej5p14uv0zXTEJKUhv7BIbCIiIiIZRcXFYoiIKuD3G48Qk5SG3AKOR2ujyFc1lqepl8o1gt+4CNxwD8SGxH0YK1nplI7j0RfhZu+MiUumw9tasw1wGjUFr9sDwFkkXi+JH/taMWOne9guTO+gWcvKGd3nfIih1vZwOx2FYzIlrDL2BqkTPB9H7cPYttL2Y6sX4BwA7yVbMfsZ6ZpBt9FfY9lQAOnrsW6nzI17zMaakHaw0wg5jVA+hpwo/HFFFb2HnV8pEnNDV63H0AYaV3B+EWu2BgEyN6/LjSuK2XRo52ngbKN72LlCsVRyQMQB4Tm1h/e7W7F8KID0CKzcLLNsc8QqLB8hfa68J0xHXwCIjsJfkhZ5Gcej8Le7PZze+gzvCK8JGozEmxMV+3TukjhzThdPTP9mNrwlbw/V7eTg2MmS26nQa97hHYz1EYNE+jH2eNSsE19ERERERETV0r1tmPzShzgmqaXljICIJJx5eBdL/DTjKu5o3lKMncXx3TkA2mHYIJnpTY6B2JCRhjOJ6zBAqO+e8vsC5cyedpgdH6udYMFJ7NusuO1RQ+XOFOiMPsP8AQB7j0SJjYCfL7zFmNxjKIjFsWgAeBHDhsoUofcbo0z46alpI8MSX5lR2Kvcn1GyBcKcETAhEABwevc+rRpWnfr0kiT7AADujdBQjJXCaXQEzlxLQ8IqxfMrathM7vUojT96dBBjcrdTwde8R1vp0l2iaoCJLyIiIiIiokoQ8GNJEWv1lpGGhFNbMbYVgEurMNp3Ac7JLBkDgNz0e7gRtx97d67H58EBGOTVDQsviL3u4MY9AOgC71ZiW2m2YZb/5zgHKG7juszsnXsXkZgDADk4vnoKZgVrb5/vVM4UOnVJq06Ud9tyLnO7nqTYD/cu8HYUG6FIlskkbcqUoL1P5XLvruJ6bX3RSXZ/AHTspkjqJSRpJb68W8kljCogJx0p18/i8M5dCF80BeP7esJvrnadt1J1aCeThJRhqtecyITMOvFladxloURERGbvOS9X/DSxB6b09hCbiMgAxq5TQmbA2h5OHUYi7JiyvtL1z7FSsmQsB4mbgjDI1QFejT3h2zcAk8fNwKrw/Uh0bIsW4synK5eUyStDOKPvoC6K2lNvzNGu2ZSZrjzjZBKOhUdgi9x2uLxL7cqhgQucxBgAwBPeeuRTWrRVFqm/lWbAGSE1WNlrz9wS3UvSPiunkeReiECwrwuauDZC1/a+GD9uDOYui8DhCw7wbiW+EYzE1K85kYwX2zbETxN7YEKPZmKTQcw68VVk3GWhREREZq9BXVv08XRBqwZ1xCYiMoCx65SQGXEeiWEjFH8ePqmsSQUgcYU//N7ZhnM59ug0dDaWfB+JgxeTkPAwG9f+2oogcZlgq7boJITKxxkBWy9h+48RmN1BUbNppni2SGsoEz+B2CzOXBO3U9MrvsTtga5EVQ4yHomxUnT3V9TTuncSf5UnKxXzIbp6+WL87G3SGUyFOTpPCKDWtn3FH7ecS6swvMcURP6ZA7unX8T0VVux+dhFnLmThtsPL2LDm0aeVaZi6tecSIZ7PTv08XSBh4uD2GQQs058xbzbG6mfDoSbY5l5eqoJ9gZpFwfV3Bp7YtDkVTh8RWaatgncWNENTeo4wG9FzfkFpGL7nIMbB1dh1pBuaOdU8jp4efli/KIInDPOmWcNl5OEvcFBCFcXTTXUfgTXcUCTOkE4LDYRERGV4XyIH1I/HQg7a7MedpOxFOzHyrlnFYXIj6Xh4I8LMHHUi+jk4Q4newBIQKLWUkcX1Fe1aRS8L3EPW4Y4oJ23P9Zf0oy/iFEjnAHrdpi++h04AUj8JAjrNcdOHm3RGVAU06/wmKoUHp6K5N29s0jUOksiAFzC35qngCyL+xAE+AFAFH7YWXbm69i2r5Fy7ywOXwfcoajH1QIALsXinOz+aJw5spE75KqAVdTh0A9xDkCLkFhci43E7LdGYoCPJ9ycFTO9Ei/pudSxvEz1mhOZEL+ByXyk38O5Hz7E+M7dsDCmapJftcatbZjs5QLflz/EluN34N4nEGMnBmHsaH+4p5/F4WVTMKh5e8w9KKnWakJJWP9Ce0wOP1v2r3REREREVSFzP37Zrfizby/l0rzrqmWLvdBD7sx4cbE4LsbQC/1HAcBZ/LJXJsmjLNSecctTdw2w3suw5nV7AGex8J8RGjWr/NF3BAAkIGJTyaw0TYmL2qOJqyd8p+83fNxlPRgvjACA/di5V2b8eCESkTIPTTd3jJ2vSOadnjsbcjepdmkVFv47B4AzJk4LVMx2cvTHUD/o3h+kI3LTNgCA9yB/wwrolyoJiWcUf3VXvTc0FZzFqWgxaCwmes2JTIiJL6p5OnyGWHGabVYaEi7uw8cDnBVJj0mfKX6BIeO7tArD2wdh7z2gU8g+nEm5i+h9EQhbsw5hEfsQ+zAN0WH+cEISwl9ui7kx4g2YiNFyny9iTVY2bmdFYIDYRERERKS3HGRc2I+FLwUgMgeAfSCCVGcydG+kLEC+Czt3CwmXB7sQPOxzrWLiADBg5my0AHB61kisuqAxCCpIx973puMwgBYhMzDAWvNamuwxIGy9YqwTPQOfqu/bHgEfKG77RugYrR81cy98juBlSUBODgYEvlh2PSyd7BEwTZGoOhw0WDozLScBq96Wf9yl6r0Aa153BnK2YXLXAIT/qT04zL2wHqP9FTOrnF6PwOzeqhZ3jJoRpN4fyXOKHCSuG4M5exWv3eyKLjls1V7xmt+6q5FwbAT31oq/9m7fJV3+WZCOve8MxirZ2X3GYKrXnMh0mPiqRPl5eWKIKo09nDz88c6WVRgKANcjsDNO7EMVl4T1kz7E6QLA+9N4HPzUH25adTXt4T1lH34M8QSQjvBJC5iEJCKFwkzEb/8C418dho5d/dC6qx9aPxeA1+ZFIl6s3RK9CK27+mFmpf2iXYbkbRjR1Q8jvrsDAIha6IfWXSdg7TWxI4ALG+Df1Q+tu47Bcq0lSCXtPp+fF1sqj/L5U+2/IaLm+aF110WQOVm98VTgdU7+brLB1yUylchXZcpz1HFBux4BWP87FDOTvl+FAaozBzoG4r057QDkIHJMI3QdEoRZwVMwvm8jNGk+BpFPvYOJgwAgAX9pJoc6LMDmNf5wwll83sNFeb0gjG7fCJN/SAd8PsPm+TIzhzQ5B2LJ510U9/2PD3FYtcTPR3XbSQh/uRG8fAMwK3gKgod4wqvHApwD0GlJFJaok0YG6r0Cez7vpZh11s0Fg16dgllBQ9DVrRs+N2hc74wB6y9h8xRP4N5+zPV1QZPGvhgfPEXx3HR2gVePGTiWDriNisDR9S9KCuvbDVqn3h/Jc+rtAr9ZUchAF0zfvwpDK7rOsamnIvEVPQWvvToFs5btR4oy+eQNIHf7GLTzHoLg4CmY9aov2rk2wuQfXDDxrRcBAInnK2HJo6le81po2+bNCFuyWL09zpCvakfGxcRXJbKxtRVDVNkce6FHBwC4hxt3xUYg98p+rJ/si66NNQYfrp4YNHk9TuuqSZWThL2zh8DXtWSw0rVvEMJj5KY9y7i0CoOU9zVILBhakI7T64IwyMtFvT/tug3Bwp1JMtOGlbWmeqzCDXGfnBopHoOOXcq9sgsLh7SHl/I+uo5ZpbNvqaJXKQYe9u9gyYzST63TKWQBhtq7o1NHB+UptjU8OIst5X1Or6yCXx0HNJm8H3hwEuGTfUtqirm2x+jZu5CieQaivUFoUqe98lTfCVjYWdE3eG9JF/3eB3I1vgx/LQx9zU//vgqTvZX30dgXq/4U+xIZx0/n7qLhJ4fw/p6LYlPFXPsFk4cOw2tLDyH5KT/MXLwIa0LnY85AT9zctxKvDQjAnGhdhVSq3rM9+wG4jvMJ2j9qJf8Ri5tWAHAHUX9oJ5pSE87jJgB/345iU+kKM3Fh10rM3KJ9m6SnR4nYsXQRvk8WG4iqhp17O/SduAJ7kpMQJmROOs2Pwp6wQHRyBlKit2FLeAT+eNIN76yPRUL8Ckwf6Q8A2HtAmpb2nrgPv59ah3f8PJEevQ1bwrfhWGY7DF0ShYSo6fDWOdurRIspX2O6B4D0CAR/clId9564D2f/2op3/NrB7sJ+bAmPQGR0Otx8ArHk17s4WMa4sLy8341Cwq8rEOBjh3N7I7BlexRyng7EkqgofNxB7F0O1s4YEHYR1+K3YvrQLnDDWRwOj1A8N7ec4e03HWGxd3Hm+0C4yTw/JfvjXvKcPvBE33fX4WByLGY/U9GslyLZuXRrEDrZA4l7I7Bl0S78BUXyaU/UCgT4OAO3ohAZHoEtx3Px9JR1OJh8EUs+Gqko4L/zAI6JZ+M0AlO95rXNts2bELZkiXrLfPxY7EIAvjt1Ew0/OYRFh4wzhcKiuJinmimvjPwCPCko/6eKR31n9ayvRk2aIO4yqwNWyN4gNHl1m2Kpo64ziBTsR7BTACLhj7Br+zDWvaQpY+8U9HtVUbPAyedFDOvSCHiShMM7oxSJE+dAbE6IwADN769LqzC8p2KGE5r6I2CQJ3B1HyKj7wFwxtCIs9gwWnEnN1Z0g+/cBHgvuYjoGcopz+n7EdwuAJHpQKcl8dIviIIErPfvhoVxAOw90XeEP5qjZH/cJkQKvzztR3CdAES6+6OvYxSOXbFHp6Fj0Nn9Lv7ash/ncgA4B2Fz4rqSXw2Fx+3WOxAD2gLJB7fhmPtn2DAyApM/Efa5FIcnO2D8D4DdlChcC+slNpdPqc8p0P3zeOx5V+N5urIKfp0/RGIHf/S9FYVjT9zRd9QQyXMFn88Qe0z5nvgzArO+3o+/tuxSnA1p1Bh0dgZ6/GMdxj5tyPtA+bwjEJvVyx0Ney0Mfs3tneGUk46Mti9ibG/gr512mJK4FQGat021noutDeytrMSw3n46dxdv7fgLb/Rohi+HtxebDZMVizkjZmNHmjdmbluLqa2FH4YeHcXMV+djd5oPlu1dgdfclTOBpv+KEauisdxP2t0kkrdhxPC1wIyt2P1GY+D+Lxj/whc4MepzXP7YV6PjQ+x4KwBzEIBxGZH43ukDnPj3MDTU6HFgjh+C9/XD8phFGKHPyTLFfdCH8vnrYMh1laLm+WHyzy9gw5n5UPybXb0kfzcZz69ILNd7RNEXmLNnAyY1F1trlvT8fGQVFIphIiKqAUYNGojYY8fUl08nXkbjpk0lfWoyV1tb2FlVfH7Vd6du4v09FzGtryfmD1QsADdUVrqZz/jq/VUMGn5yCCmZ2vMoyPzk3orC+oAgRAJwmrJAkvRCwUl8PikCKXBGwI93kXAsUl2T6kxKvPIUztuw8FvNsxsm4POXFQmaTp/G41riPqxZsw5r9iUpfjVDOvYGTUekrgkK6fsxq6si6dViyj78KPlVJAeH/+mPhXGA04gInEm5iO0Ryv1JjsJ0HyBlUwAmh4tTpQDci8Kx+4HYkJyGgz+uQ9iaSBxUP4YIfL1D4zqZ+zFnnPJxb72LM79GIGxNBLYn3sXmdssU6/PLLQHnlGfTURdg1Vfmfszyl39Or536DH3tgdOz/THroHYNBlyIwrFWCxCdkqTxXG1FgD2AuAX4WlVL7OkghK35DKNaAoAnRn26DmFrFEkvw94HpdDntajIa56TjoyhEUiIj1Tcxx0mvahmuRCxEjvuA4MXr9ROegFA/X5YMKsfnJ7KxeVruj5Uq9hTnfBsawB/JkLyM1ZWHKL+ADr0DcTovo2BP2JxIkuzw3mcOAagpy+e1SfpRWajY2g0Gn5yCLkFRWITERERmYBZJ76qGmt8VZILH8JXtTxNY/PyHoKFh9PRfX4UfhdnI/0ZhT8cnYFnFuATcSG+fTuMDVb8li1ZIx/9NdZfB/DMCnwf0k5SuNHpmQV4bwRg5x6LY0dlkjQFCVg/LABb7gFOr0fiYJi/pGYAbkVg5aZ0wD4QazYIU6ude2H2akVByWNfrJOtjzV01XoMbaARsC55DMeOx6vDKTtWKYqmjliF5SM0H7czBqzfitf1qgCfhL8vAYA9WjTTKuxVLik7VmFLOoChEfhReE7tOkzHhvUvAkjHlqWaZxNS8cT0b2bDW/OunUfizYn2AHJw7GQ5klWGvA/KUN7XoqKvecCbgdL3EFGNkYj9P98BrF7Aa4N0Z2ydhixC3IG1mOOruw8A5CYfxbJ3JsCnu6JGWEf/qZi5/TwyJBNgYjGzqx9az4vVDAK66lY9Oo+NM1W3ORA+E1biwC3xO9wDz/Z0BC7HIe6+RjguDgfQGP49G6NDX1844Sii/tBov30OcY+BDn19SmaBPTqP7+dNhb//QEWds65+8BmsfByqPtGL0Hr4WlwAcGHFGLTuOhkbNZbpZcRHYuaEklppPgEzsOzQHe0l0wUPEf/dfAx+ruT5WiDXr1xUz+tRZBzbgPEBwxT732sYXlt6FMnCjWbEb0OwRj03n8Ey9y1X46vwIQ58OQP+vZT7PHw+Nsafx9pAP7QO3Aat1Yp5d3Bg6VT4KPv7BMzHxviSBGrUPD88vyIRQCKWDZfeRrn2kYiIyEgCx0/ArLlz1ZtjvXpiF6oETHxVItb4qhqnFwUiOFxIXPjMxsHEu7gd9Y7s6Ybd3DWnhymcOxKJXADeI1+UuY49ArZm49q1JISpzsKjUpCEyHGKmT12o7fi9w3SQpkAkHJwF04DwIgA6VI4FZ8hGGAP4Pp+HNY6Y0sX9OilnXiSewynohX/2g0YNVL7jCvW/hg1Uft2yuaJ5tp3VQ45OP6Lcn9Gj9R6TgDAaVQQAgDg9104rDXxyV9Zv02qYbOyl2iqGfA+KF35X4uKvuad9SwNRFRt3I5D1G0Afs/i2QquxMyI/gL+L8/HxnjAf9p8rAl9D+O872D30qkYPO0X7YRIeTyOxcxXp2JZ9GN0HPse1oROxWt20QgO3gCxTn03X18AcYjT+Iq5EB8H1PPF8x0APO0LfysgKrakiH3u2XO4AEf4PK1cbpgVizmvTsWCQ5noOHoq1oQuwvIZw9AR57F76VTM3PVQ0a/dGKyZ/QKaAWg2RLFf/soke0b0IgyeuBK777XBuI8WYc3iqfC3OoeNIWPw2vfSemAX1k7Faz9kwv/dRVizeDyetTuP70PGYOYhMbGnh9gVGDz9F6DPZKwJfQ+TnrZF/Pb5GLkotiRhFL8SgyeuRVwdVT239/Ca+x18HzIGk3cqH6OsO9g4PgDB35+D3cCpWB46HzO7XMfyiVOx/LLYV2H3h2MwM64xgucvwpqPAtDw9lEsmzgZy5WFvzu+vggLhjQG0BgjZi/Cmhm+iu8Ag/eRiIjIMIHjx2PW3HnqrZ6T3H9FZGxmnfiytBAjZBY6fIbYrGzcFrZrdy5i+xJ/OOEeDgd3w/jtOqqLF+Qg414Cju3chcgVHyJ4SDe0G7NN7IV7txSZl05t9UisAEj8ZAiClaeAzr2cBPFEZQCQfE4xC8EuYQtmBU+R2VZAMWHgLP7SOglYO3h7iDE5SbhxDgDc0am1dnIGABp6thVD5ZCARIPK1d3FvSQAaIceXeT3B9Zd0LkDAFzEjVtCW4d2ytN7G0k53welK+9rYarXnKjiGjraobenC1o1MNK6PNVMrDqO2gl4vSRiw5e/ILXOC1jz6yYsf+MFDB4YgDn/jsSBd72RevwLfGZAMufC5pXYfd8VI5Zvxub3A5S3uRkbhriKXYGOPngWQNwlVXb6Dk4cuwP07IQOAGDVBs/6ABnRJ9RJswt/xgFWvvB/WnE5I/oQDjx2xLh/bcKaqQEYPLAfRrzxATZveg/dAET98beio7s3BvdtAycATu18MXigD1rVAVAYh+XzfkVq8/HYvXcF5ozuh8EvBWL5tg2Y2dYWN/f+Kk3YNdHsNxkblPdzINqgU6Qp3G+A8T9GajxfG7GgG5Dx8yGcUHaJ2hOJVLyABeEfYNJL/RT9whdjUhNbnD92AqnCTarkHlqLZReADjM24MDiQIwY+AImLd6E/R/5lLyXRH7zceLH+Yr7Gf0eDvwrAE64g6hYRRKwYYd+8GvnCMARHfv2w2BfD9hVYB/1ZWnBASkREZE+GjspxqMeLg5ik0HMOvFVVMVl+y0tzfrprXbsnD3Rd8Y+7PlUUUvr8CcrpEvGHuzH50M80cTJBe28umH0uDEInrsKkcfvoEUrMbmVhMQzQkgfPi+irzOAuA/xvkzNpkfpiiWGuX/uwpbwCJltl6JAulG4wFnHCWdatNLnbCztlEkpIOVRxXbOTuasOVLyZ+U0Cr3eB8Zj2tecyHB9PF2wa2IPTOldzbKtF6KxOxloNnoMBgurAlqNHYPBAA7sO6rnErXriDpyB2g9CsF+mlMxHeE/aRRaaUQAAE/5wL8tcCX2nCIpcj8OUZeAZ/v6KJN6rvDt6w3cjsWJZAC4jhN/ZEpmuzkNmY+4k79gQU/NGwbg3hjlqrn+51Hsfgw8O3EUOmjOoLPywNRthxD3w3hFEk6p1csDpf3cffB8awCJ1w2bIQcArf0w2Esz4IqO7RwBXMeV24qI21ONAfyK5Ut+wYV7yoSkVUfM2XsIcculxf9L5OHAvqOA1QuYOU76/mv+yniM07EaZMRLL0hnEfv4wB/AhUSt6bMShu2j/op4HikiIiK9DGrTELsm9sCEHs3EJoOYdWamezNn9PZ0gY0RzipgCCeNaYsZ6TpmH5HReY8Yo5gZdP0kTqlyTun7EdwpAKui7wFN/TF2SQQ27IvHmeQ03M64i4NLxDMUesK7qxAqL58FiP41Ehu+DoQdgGOzZmOv+PIrEz/eSy5qzVwTtzVDhevqLQ263n65mToaZHmip59iptaxk2fFRhn3sOXlRvAbEoT1MdKMTm6ZJ0dthzZa/3Eagd7vAyMy6WtOVI04OMIZALIy9UxKCVLv4CYAn6dl5n7W6QiftgBuPZCpD1iaO7h8GUA7b+0kl5c3tFcYN8azfRsDcedxHkDuH7E4AW/49yyZHda8py+aIRFx5/KA++dw4rJmYkxDViaSL8TiwKFILF84H68NXoTdYh85GY+RAaBhA5kZaTLsrMWyC7awq+CSU1jZQrzVpxopl3IqZ2V1GP8BJrW2xZWdX2DE4IGKOmAzN+D7P0qrn/UAqbcAtG6DVuI+WjVG8yZCTEWrr7h38gzbR/0906I+enu6wM66asajREREtZ1ZfwN/FdARuyb2gIuDjdhkEk81LKkilPXkCYvdV6Eb385BpLKoekLiPoTNCMRQv3Zwa6BI5Ny4ol3MvL6zoi3xinzR9JTwIWjS2BPDv5Je1/uVQHjbA04jPsdSPwA52zBz9n7JINq7o+KsiPoUUdefJ1p0AoB7OHdZfipR4nmN4uvl0P2VINgByA3fimNlJa9uReKHg+lIjD6J9Pr2ABrB3RMAEnDqrPz+oOAs/roAAI3gVl9srDhD3gfGYprXnKgaUs6SQvQJnNC1VA0A7v+Cyf4TMH7jeQOSDnnILe22jajD0x2BwjjEXQBOHD8KNPHFs5pTtTo8C/96wIE/4oDzcVqJMeRex/fTA9C69zA8//psBIesxfexD+A20EcyU6vGq+eDOT/+ghM/LMKccf3QrT4Qf2QzFrw1Bj4TIw2fbWZMJtrH8MAu2DWxhxgmIiIiEzHrxFdVa+AmnSR/725lrd0iTTf2blUscXTvhc7KGuOqZIN3n14yRdXTcTpaewZT9wEjAQDn/rtfZgaBslB7+r1Slgu6Y+y/PoM3gIxNQVgYU9LSYsCLaAEAP3ytSMSIMrdhch0HtPMegnCD6mkpDBiqeAyHt+8qOVOYWgJ+2a69DLNUvT9UJvPWY+6K0hI46Tj8yQJFMXe/2ZjYAQDs0WeY4myH8vsDZOyMQCQAdHgRfbTrw1eYIe8DYzHVa05U/TTGs36NgcJfseNgyZn2RMm/RCLq0XXk1GusPTsKABo2RjMAcX/KnPc0KxHnLwNo2kB64gqtWWZ5yMjSvOyBjm0BxJ3TKmSP5OuQraXe81kMxh3EJ8QiLg5w8ntWSFh1hL8fgPPXsfvP80C9TvDRSIzFr3wPC6KBwZ9uQlxMNC6fOYS4vWux5v1haK15M7o41YMTgNQH2sXXL3w1Bh39F2G3XHHJKmGLhh36YdL7i7DjwC+4HLMJy/o7Ijd+G3ZoPeEA0AANmwK4/DeuaCUyHyJZuYzSuPTdRyIiIqppmPiqRE81lCa+Ll3kCKpSZd7DuX+PwYi5yuTGtCB0Uja18FDUbkr8zzYkSmYq5SAxdDCC92rGlIZ+iOkeAH6fgXGhCZJ/njJ2v4M5ewF4zMaUQRoNolbTsSbEE0A6wqd9XnLfHWZg9lAA2I8549YjUXMCVEE69r43HXsBZLQOxDCt9TflZzdqBiY6A9gbhFcliaocJIYGYVXp5U9kuGPsys/QCUDiJ93gN3s/UsTJWwXpODzLF+N/SAfQBR+vDFL/I+r22nSMVe2P8JzmXliPydP3K86Y+XGQIklkMNVstyQka+T2DHofGIuJXnOi6qhD0Ht47SngwLz3sPay9uznjD83IHh1IvBUAD56RccSvg5+GNEcuLl9Kw48ljZd2bIVBwD4+6mWFCoTWn+cQ5xmAuX2L9gRrXFZlZS7HYkNR6RJuQs/RWonwwCgjg/8ewLnD0ci6jbg76u9ILKjjw9wKRY7/rwD+Pmim7rlDuLiHgLwwYiXPOCkcf6AjEOHEAUA9x6UFFVXLuHLLdB4zp7uhxH1gBPbfpEmhx4fxYbtd5Dr1QnPVsKMWf08xI6ZAfAZvhbxmvtYxwMdveoBsIW9bK1aWwwe0g8o/BXLv5d+QWUc2YndwuuuFysoZgaqP/sN3UciIiKqaZj4qkTtO6rSLgonjh6VXCYDXfgQvnUc0ETc3DwxaPouxeysZz7DhndLCpV7T1uAodYALiyAn5svxgdPwaygIfB1dYHfJ0noOyVQURfszCXcUF+rHWb/tA59nYFzn3SDl/cQBAdPQfAQT7Qbsw0Z6IKPf1qATmUUau8UskKR7LmwAMHrVMsmnRGwcR8mtgIyDs+An5snRgdNwazgAAxya4TJP6QDzoHYvLUkaWQQ615YEvUZulsD5+Z2g5dvAGYFB2G0twv8Pjmrrjull7bTsefUCvR1BhK/CkBXVxf4DglSnJnwVV+0c22E8euSAOtemB51AO9onjjS8UWEqfZHeE69eszAsXSgU8h+LBuhoxq/HrxbeQLIQfj/+SM4eAq2/Gno+8BYTPSaE1VQQkomvvjtCg7+baxz2gGo44tl/56KbtaJWP7qMPi/8wU2/nxUUd9q5gQ8O2EzLlh3xJx/v4duYr0mNW9Mfn8YGmb9iuAXJmDmd7/iwKFILHsrAIO/SoRdt6mY85IqaaZMaD2OxOTAlfj+0FHs/m4RBgesxGUXzSL2QId/fI45HTKxe+Z4vPZlpPo2R0QozgiozRUdn26MjOOxuIB+8BeL1ANo2NMXHRCHE38Ag/v4aLQo9wu/YsFE5XPw8zbMeWcMng35FRlWADIyoc6LN/FAawBXftqE7w8dxYV7AKx8MHPxC2h4aQMGD52BZduP4sD2tRj/6nzsznLFpGkBRivKbjhX+Pf1REbyNowLnI/l24/iwKFfsXHhVEzaeAfoGYjXJMXxS9gNnIo5HYALKyZj8Lxt2H3oV2ycNwHPhsTBTkdx+/Jo3twDwHVs3xiJA4cSkVqBfSQiIqLKdfZ2Br747Qqir2rPcDcEE1+VqN+AAZLLMUx8VS5rZ7j5vIjp31/Etajp8NZM6jgHYsPFrXjHzxN2OWdxODwCW3ZfhNOoz7D5ryRsD5uCvvYALkTi8C2N67UNwvaEeIS9648WD6IQGR6ByOM58B7xGfYkx0qTOro4vohPVr0IADg3ewq2qG7f2R9L4u9iT1ggOjVIx7HtEdgSvh/n7Nqh77tbEXstAgMqnv9RJKquRWHJ611gd2E/toRvw7HMLggIi1KfAVNfdh3ewfZrSdgeFoS+bZ1xL3qb4syEe88C7l0QsCQSsSlRmP2MzAPQ2B831XManY4WftMRFnsXBz+VW4aoP+9pEfh4hDtw7yQiwyMQHp1k+PvAWEz1mhNVQEJKJkKjruLgpftiU8V4BWLH0a1YM64T7K5FY9m8+QgOWYmNcYDPuEX47ehaTCoj0eDk9wGiflqESd2AqNWLEByyEt8nNsaIj9bixIZASUH0Dv/YgB0z+qHZvUgsCJmPOeF38OyySHw/XlmEXcXKA5PCt2LN6Ma4smMlgkNWYsf9TpgT/gFGSHuqdejrq/ic6tAJ3TRmbak194F/EwDwgX9PaaH1Dv/YgA1v+8Dp2i+K52DRJsTVeQFr9hzChiEALp/DBfVyTF8Ef9wPzVJ+xYKQ+VgTp5j55eQ3HwfC38MI97/x/dL5CF4aifPuL2DZtm2YUzK9rEo1HLUCJ5YHwgdx2Lh0PoJDFmH5kUy0HrcIJ9aXdsbExsrXwxuph9ZiZsgirDnvgZnhizG+Ikvg+07Asv6NkfrzSgSHbMKJrIrsIxEREVWmM7czEBp1FUevPBCbDGJRXGy+51je+HsyHjzJQ3AfT9S11fkTcrll5BfgSUFZFb1LFBcXo32TxuozOlpaWuLS3Xuo6yj9tZmIiKiiXGxtYG9V8e+6XefuYfKOP/FGj2b4cnh7sZmoisRiZtfZ2P3S57i82FdsrNbWxlxHZm4BPnjeOOvY0/PzkVWgVQSNiIioyrna2sLOquLzqzaduolZey5iWl9PzB8oc0ZvPWSlm/mMr40nkxEadRVP8sqfrDImCwsL+L/wAtzc3fHWP/+JnQcPMelFRETVWjHM9vcwqgGSv5sMn8HzsUM490rGEUUNtA7eHtKGGmDN8SSERl1FbkGR2ERERLXEn/HxWDjnQ5yNixObSIaxR6NmnfiqDj79IhRnriXh0y9C8Uzv3mIzERERESk17z8Qze4fxZwJyvplh47i+y9nYHDIr8h4ahhmviYsVSUiIqoBvgr9AutXrcKQvn3Q5+nOOPG//4ldqBIx8VXJ3BtzgEZERERULs0D8X34exjhnoQdn89HcMh8LNiVhGavLMJvv3wAf7maakRERNVY8vXr2Ltrl/ryzRs30KY9y0mYklnX+Or7rxhcSn2C8yH94OaoOMF5Rehb44uIiMhUjFXj68GTPCSkPkGjenZo1YBZBqKK6vzlUdx9nIub8wfAzrrivzmzxhcRUc0yYdQo/Lp/n/ry/018E6Fr1kj6mAtj1fi69zgXlx9koZmzPTxcHMRmvZh9ja8is03pERERVY4GdW3Rx9OFSS8iIyky39+YiYioDLt//FGS9LKwsMC0Dz6Q9CFt7vXs0MfTpcJJLxWznvEVfysDWfmF6OPpIjYZhDO+iIioujLWjC8iMq4/ktORV1hktPEoZ3wREdUMGRnp8G3fHo/S0tSxoLf/gaUrV0r6mRNjzfgypqx0M098GRsTX0REVF0x8UVUOzDxRURU/eXn5WHsiOGIOXpUHWvWogWiTsehTt26kr7mpLomvqrXHhERERERERER1VBFRUWYPHasJOkFAGvCI8w66VWdMfFVTaQ9fCiGiIiIiIiIiKiGyHz8GBNGjcKhfXsl8Q8XfIqezz4riZHpMPFVDWxY8y/06dwJB3/5WWwiIiIyqeNJaRgZfgrrYq6LTURERESkw42kJAzt9xyOHDwgiQe9/Q8WtNfTwb9TMTL8FDaduik2GYSJryr26/59+DgkBI/S0hD02mv455sTxS5EREQmk5qZi5ikNFx5kCU2EREREZGMn7Zvx6BnfXH50iVJfOjIkWZdzL6y3MlQjEevp2WLTQYx68RX769i0PCTQ0jJzBWbqoU7t27hnfHjJbHCQhYrJSIiIjIXHUOj0fCTQ8gtKBKbiIiohrt2+TJefXEwpga9gYz0dEnb5OB/YsOWrZIYVQ2zTnxVd42bNsWS5Stg7+AAALC1s8OCz78QuxERERERERFRNZCRkY4tEREYM/wl+Pl00ypiX6duXUTs2IGFoaGSOFUdJr6qWOD48TgYcwIdn34a774fAvdGjcQuRERERERERGRCWU+e4FZyMv46cwYHft6DTz+cjaHP9UW7Ro0wa+oUHD18GAUFBZLr9PX3x6ETsRg07CVJnKqWRXFxcbEYNBe9v4pB4v0nOB/SD26OdmKz3jLyC/BEeGMbU3ZWFhzq1BHDOg3u/Sz+OnNGDJvE7azyr7X9dt1azJs1S315cVgY3pwyVdKnNE3qKGbEmZqLqyvO37wlhnVasWwZQhctVF9evWEjXn39dUkfXXKys9GygasYNomW3t44dvZPMazTpx/OxterV6svf/fjjxg4dJikjy737t5Ft5ZeYtgknu7WDfuPx4hhnWZOeQdbv/tOfTny0K/o1aePpI8uiQkJ8PPpJoZNou/zz2P7L9KzyJRm8tgx2Ltrl/ry4T/+QPuOnSR9dDl98iSGP+8vhk1ixCuvYP3m78WwTqOHDsGxqCj15VN/J6JJs2aSProcOXgA415+WQybxNigIIStXSeGZbnY2qDPM88gLi5OHcvIyEC9evUk/XTZsmULXi/nZ5axzZo1C19++aUY1qlVq1a4evWq+rI+Q5l169Zh6tTyfwcZ09KlSzFnzhwxrFODBg3wUHnWZ1dXVzx48EDsotOyZcvw0UcfiWGTWLt2LaZMmSKGdbKwsFD/3bJlS1y5ckXSXprZs2fjiy+qZrb8Dz/8gLFjx4phLR1Do3HvYToefDZSHfPx8cHp06cl/Urzj3/8A998840YNonvf/oJ/QcNFsOybt+8iR5tvNWX+/r7Y/vefZI+pXln/Djs/u9/xbBJ7PktCt179RLDsi6eP4cBPXuqLw8dOVKv5UxjRwxH9K+/imGTiI6Lh3e7dmJY1snjxxEw8AX15TFvvIHl69ZL+pRmWL/nEH/qlBg2ifir18o9oeDQ3l/wxquvqi//Y9o0fPLZ55I+penb5WlcTUwUwyZx9cFD9eqhsvz4ww+YNnmS+nLI/I8xQ4/vpKc9WuB+aqoYNoma8L9nQzc3LPoyDCM03ku1kautLeysKj6/6rtTN/H+nouY1tcT8weWfK8YIiudM76qFX2SXgDw5MkTMUREREREREREJtC1e3csWb4cMefO1/qklzG90aMZUj8dWOGkl4pZJ766N3NGb08X2Bgh46hiZWFRbbaszExx90xG3JfSNog/xBfref0qJO5LaZuF8EAt9Li+8d6hBigu1tqf0jbx9bTQ4/WsysdpAe39KW2zEGaQ1JTXU5/9tJJ5PS31eD2r9OjUYz+tLCy0ZgRZ6vE8WYifYSakz+sJmZlP4uXS6NO3qlVkXyty3YrS9741+1fkuqZWkfvW97r69jem8t73My3qo1dzZ0msvNdV0be/MVXke764gmMMU9Ln89ZS3E89niMrCwugCl9Pvb7/hOta6Pl6VuHD1O9xivtZW15P6Pt6Vt3jFPeltE3rc0Tf17Mcuj/zDELmzcMfFxNw4NhxTJ4yFU716mndVm3cqiuzXupo7oYPH47Hjx+L4UpnZWWFw4cPi2Gddu7cidUaS+OmTZuGUaNGSfqUZuDAgcjPzxfDlc7Z2Rm7NJaAlWXTpk349ttv1Zc/+ugjDBo0SNKnNP7+VbNkrHnz5ti8ebMY1mnt2rXYvn27+vLSpUvRu3dvSR9dHjx4gFdeeUUMm0Tbtm3x9ddfi2GdvvjiC+zdW7JkcPXq1Xj66aclfXS5fv063njjDTFsEt27d0dYWJgY1unjjz/GUY2CnN9++y1atmwp6aPL+fPnERwcLIZN4vnnn8cnn3wihnWaOXOmZAng9u3b4ebmJumjy8mTJzF79mwxbBLDhg1DSEiIGNbp7bffxt9//62+vHfvXtQp52ziw4cPY9GiRWLYJAIDA/VaGvf666/j9u3bAABLS0scOXJE7KLTrl27sGLFCjFsEm+99Rb+7//+TwzrNGLECGRkZAAAnJycsHv3brGLTv/5z3/w73//WwybxIwZMzByZMmyvrL0798fRUWKMx42adIEP/zwg9hFp6+//hpbtmwRwyYxf/58DBgwQAzLysrKwtChQ9WX27Rpo9fSxbCwMOzZs0cMm8Tnn3+OXuVcApiSkoLRo0erL/v4+GD58uWSPqX59NNP8dtvv4lhk1izZg06duwohmVdvXoVb775pvpyv379sHBhSbmLsoSEhOCPP/4Qwybx3XffwcPDQwzL+vPPPzFt2jT15aFDh+KDDz6Q9CnNlClTcPHiRTFsEv/973/RoEEDMSwrJiZGsjR89OjRei2JHz9+PJKTk8WwSURplHEoy8GDB7F06VL15TfffBMTJkyQ9ClNQEAA0tLSxHCls7GxwaFDh8SwTsb839Pe3h4uLi6oX78+XF1d0b17dwwcOLDcZSSoeshKZ+KLiIiIiIiIiIjMEGt8EREREdUgD7LECBERERGVhokvIiIiUnvwJA/Hk9JwhRmWaicmGYiompM5ExEREZnMvce5OJ6Uhutp5T+jZ2mY+CIiIiK1/117iJfDT2FdzHWxiarYz38Dfz9QbERERETmav+lVLwcfgqbTt0Umwxi1omv+FsZOJ5k+gJ8RERENZVlNT4jT20Wk1yyzHHPJbGVqrM/ktM5HiUiItKDscejZp34Ct55Di+Hn0JKZq7YRERERDKKeM6baunnkpN1ctZXDRO09QxeDj+F3ALFmSuJiIiodMYej5p14ouIiIioptOc7aXCWl9ERERE5cPEFxEREVE1diJZjCgSYZz1RURERFQ2s058GXlZKBERkdlr5+aIEP+WGNT2KbGJqkBpyxo566tmsOCAlIiISC9dmzghxL8l+rVqIDYZxKwTX0ZeFkpERGT22rk54oPnW2FQm4ZiE1WB0grZP8hSLIOk6q2YA1IiIiK9dGnihA+ebwW/lq5ik0HMOvE1qVdzhPi3RF1ba7GJiIiIqForbbaXimbRe6qegvt4IsS/JeyszXrYTUREVG1ZFPNnKCIiIqJqJyym7MQXALzRFejdXIwSERERUVa6mc/4IiIiIqqJyjPbS4WzvoiIiIh0Y+KLiIiIqJqRO5OjLg+ygO9Y6J6IiIhIFhNfREREpHY8KQ0jw09hXcx1sYlMxJCi9ZfKOTuMiIiIqLo7+HcqRoafwqZTN8UmgzDxRURERGqpmbmISUrDlQdZYhOZiCFLFznri4iIiMzFnQzFePR6WrbYZBCzTny9G3keI8NPIS07X2wiIiIiGZYWFmKITEzf2V4qlx4oEmBUvUzcdhYjw0+JYSIiItLB2ONRsz6rY99/xeBS6hP0bO4MGytLWFlYYGdQd7EbLqU+wQc/XxTDGNbeDW/7thDDWPW/azhyWXtNwb8COqF5fXsxLDvY6dSoHpYMaSuG8dO5uwj/Q3s63wfPt0IfTxcxjH/8+BfuPs6VxJzsrLH59a6SGADE3UrHpwcTxTBGd2mM//NpKoax9PBlnLzxSAwjPLALXOvYSGIPs/IxcdtZSQwAerWoj48GtBbD+E/cLWw/e0cM49PBbdC1iZMYxrgfzuBxboEk1rieHda/2lkSA4D/XXuIL6OuimFM7NkML3dqJIYxd98lnLv7WAxj18QeYgjJj3Lwz8hzYhj9WzfA9Oe8xDC+ib2BXy6miGF8Obw9vJ+qK4YREHEaRcIh2fqpuggb3l4SA4D9l1JllyL9s48nBrZ5SgzjvV0XcO2h9D8iG0sL/PiG9jGRkJKJ2b8kiGEM7+COyb20Tx224ug1RF3RPibWvdIJTZykx0R2fiHGfB8viQFAlyZOWDi4jRjGf/+8i02ntY+J2c+3Qm+ZY+KtHX8hJVN6TNS3t8F3Y7tIYgBw+mY6Fh7SPibGdG2Csd2aiGEs/jURfySni2FsGtsVzvbWktj9J3mYtP1PSQwAenu6YPbzrcQwNp26if/+dVcMY+HgNugic0y8/p94PMkrlMSaOtlj7SudJDEAOHr1IcKitY+Jyc80x/CO7mIYc/Ym4MK9TDEse0xcT8vGtJ/Oi2EMbPMU/tnHUwxjXcx17L+UKoYRNrw9WsscE3Kfn20a1kXoS9rHxL6EVKw/oX1MTH/OE/1bax8T7/50HjeEX5HsrC2xfbyPJAYAF+49xpy9l8QwXu7UCBN7NhPD+DLqKv537aEYxvpXOqOxk50k9iSvEK//R/uY6NbUCQsGaR8TP/55B5tP3xLD+GhAa/RqUV8M481tf+JBVp4k5lrHBuGB2sfEH8mPMGPXBVxKfYI3ejTDlzKfPVS5vjtjeOILUJzd8Q3tIQBVoc5fHsXdx7nw9agPSwsLjtM4TuM4jeM0CY7TOE7TZ5y2+NfLYhj/59MUo7s0FsP49GAi4m5pHxObx3aFk3BMpGTm4q0df0liANDXyxUh/i3FML47dRM7ZY6JJUPaolOjemIYgZvjkFNQJIm1qO+ArwI6SmIA8NuVB5jzSwKuPMjCtL6emD/QW+yil1pzVsc/ktMRk5Qm++YGgMe5BYhJStParur42fTy/SytvjFJacjOl364AUBOfpFWv5ikNNkvcAC4la6Y0iduD55IDwaV0zcVj01zO5msPQgCgEfZ+Vp9Y0qZPpiQkqnVNyYpDfmF0jcsAOQXyj/OhBTtD2UoP4TFvjFJaXikY3be7zceafU9LXMQA8D9zDytvjFJabiVLv2SVTl397FW35ikNOTkaz/O7PxCrX4xSWm4fF/+vXL1gfx7JTNX+70CAMeuPdTqe/Z2htgNAHBXOf1T3O4JiVCVM7cztPpGX9V1TMg/TnFApvJ36hOtvjE6nsPComKtfjFJaTiv45i4mS7/XtF9TGi/V37X85hIfiR/TFy4J39MFMgcE7kFRjomcqT/SKiclDkm5L7YoBzciX1jktJwO0P+vfLnHfljQs6TPPn3iq5j4oquY0IYHKqI/WKS0vDnbfn3yt3Huo4J+ffKmVvax0Tsdfn3SkaO/PdEko5j4pKuY6JA+3EW6DgmLtyVf6/cTM/R6htTyjFxSuaYOCXzjwGU/xxfSn0ihsmEKpL0gnLWV3nPBkmmFXtdcSxynCb/ncRxmvZ3Esdp8scEx2nyx4QcjtPkH2dNHqeJfWOS0nBTxzFx/p78e6WgSHvuU46OY+KSnsdEuo5jIlbmmIjXcUykZuYZveSGWc/4ir+VgSyNZJSFMosvepxbgD/vaB+gjevZoWWDOmIYifefICVT+43r09QJDjZWYhjHZT6InO2tZTOht9JzkCQzwGnXsC4a1LUVwzh9M10rc2pjaYFnZLLJadn5sr8ONHe2RwsXBzGMiymZeJilPcCRm3kGHY/TtY4N2rs5imHcSMtGcnqOGEZHd0fUd5D+SgnlgCpfOEDtrS3RvZmzJAbll4fcP26eLg5o6qw9I+/c3ceyB6jc48zOL0TcLe0Bjpujrewvg1cfZOGOzACnS+N6cLSTZtmh/PIQD0hHWyvZX5LuPs6V/UBo3aAO3OtJf6mAckAl/vJkaQE866H9OHUdE02c7ODlqn1M/J36BKkyH+bdmzrD3kY7vy73Xqlvb42OMsfEzfQc2UG/rmPi1M105ArHhK2VBXo21+OYqG+PFvW1j4kL9zJll07LvVeg43E2qGODdjLHxPW0bNzU45g4eeOR1peWg40lfJqW/5jwcnXQ+qUXAP668xgZwi/30PE4s/IKES8z6Hd3tJX9ZfDKgyytWaoo5ZiQew7r2Vnh6cblPya8n6oDN0ftY0L8jgAAKwvAV+aYyMgpwF8yg/6mTvbwdNV+r1xKfYL7FTwmXBys0cG9/MdEezdHrVkeUP74kycM+m2tLNGzufZ75WFWPi4qBziN6tmhlcx3IFWen/8G9mj/YK03zvqqXsRjkOM0+e8kjtM4ThPpPCY4TuM4TVAbx2maWtR3kF15duHeY6Rll++9kltQhFM3tRNRT9W1RduG2u8VXcdEp0b1tGZYAkDs9TQUCh+gdWys0K2p9nslNTMPf99XHBPNnO3hIfMdqI+sdDNPfBERERHVFB8dlq/R1aAO0NwJOKOxoqBrIyA5Q74/AMzqDbRpIEaJiIiIapdas9SRiIiIqDqLSZZPYg1vCywdAHQRSh81dwZmPauY2SWX4DLGzDEiIiIic8DEFxEREVEV+/lv6eXhbYGvhwMvadfNVWtQR7GscVZv7QTY36z1RURERAQw8UVERERUtTRne/VurpjhVVrCS44qAbZ0gOJvcNYXEREREcDEFxEREVHV+vlvxWytpQMUM7cqck6BBnUUt7F0APBUHc76IiIiImJxeyIiIqIqokpMydXp0vT3AyAspuQyz9xIREREVDYWtyciIiKqQm0alJ30IiIiIiLDMfFFRERERERERERmiYkvIiIiIiIiIiIyS0x8ERERERERERGRWWLii4iIiIiIiIiIzBITX0RERETVXAMH6eX7WdLLRERERCSPiS8iIiIiIiIiIjJLTHwREREREREREZFZYuKLiIiIiIiIiIjMEhNfRERERERERERklpj4IiIiIqrmGtQRI0RERERUHkx8EREREdUwD7LFCBERERHJYeKLiIiIiIiIiIjMEhNfRERERERERERklpj4IiIiIiIiIiIis8TEFxERERERERERmSUmvoiIiIiIiIiIyCwx8UVERERERERERGaJiS8iIiIiIiIiIjJLTHwREREREREREZFZYuKLiIiIiIiIiIjMEhNfRERERERERERklpj4IiIiIiIiIiIis8TEFxERERERERERmSUmvoiIiIiIiIiIyCwx8UVERERERERERGaJiS8iIiIiIiIiIjJLTHwREREREREREZFZYuKLiIiIiIiIiIjMksX9G8XFYpCIiIiIqpePzpT87WILhHTQbCUiIiIiORZfjmTii4iIiKi6+3tSyd82mYDXNs1WIiIiIpLz/yMSK+nNsk7EAAAAAElFTkSuQmCC;" vertex="1" parent="1">
          <mxGeometry x="1110.5" y="391.32" width="484" height="278.68" as="geometry" />
        </mxCell>
        <mxCell id="qeDbLO5Tcm8qtFllbZOF-9" value="" style="sketch=0;points=[[0,0,0],[0.25,0,0],[0.5,0,0],[0.75,0,0],[1,0,0],[0,1,0],[0.25,1,0],[0.5,1,0],[0.75,1,0],[1,1,0],[0,0.25,0],[0,0.5,0],[0,0.75,0],[1,0.25,0],[1,0.5,0],[1,0.75,0]];outlineConnect=0;fontColor=#232F3E;fillColor=#DD344C;strokeColor=#ffffff;dashed=0;verticalLabelPosition=bottom;verticalAlign=top;align=center;html=1;fontSize=12;fontStyle=0;aspect=fixed;shape=mxgraph.aws4.resourceIcon;resIcon=mxgraph.aws4.waf;" vertex="1" parent="1">
          <mxGeometry x="575.01" y="85" width="40" height="40" as="geometry" />
        </mxCell>
        <mxCell id="qeDbLO5Tcm8qtFllbZOF-11" value="ACM" style="sketch=0;points=[[0,0,0],[0.25,0,0],[0.5,0,0],[0.75,0,0],[1,0,0],[0,1,0],[0.25,1,0],[0.5,1,0],[0.75,1,0],[1,1,0],[0,0.25,0],[0,0.5,0],[0,0.75,0],[1,0.25,0],[1,0.5,0],[1,0.75,0]];outlineConnect=0;fontColor=#232F3E;fillColor=#DD344C;strokeColor=#ffffff;dashed=0;verticalLabelPosition=bottom;verticalAlign=top;align=center;html=1;fontSize=12;fontStyle=0;aspect=fixed;shape=mxgraph.aws4.resourceIcon;resIcon=mxgraph.aws4.certificate_manager_3;" vertex="1" parent="1">
          <mxGeometry x="575.01" y="337.5" width="40" height="40" as="geometry" />
        </mxCell>
        <mxCell id="qeDbLO5Tcm8qtFllbZOF-13" value="" style="outlineConnect=0;dashed=0;verticalLabelPosition=bottom;verticalAlign=top;align=center;html=1;shape=mxgraph.aws3.lambda_function;fillColor=#F58534;gradientColor=none;" vertex="1" parent="1">
          <mxGeometry x="620.01" y="529" width="25" height="25" as="geometry" />
        </mxCell>
      </root>
    </mxGraphModel>
  </diagram>
</mxfile>
